<svg width="195" height="268" fill="none" xmlns="http://www.w3.org/2000/svg"><path d="M50.01 53.579c.65-5.945.583-11.447 5.632-15.522.66-.532 1.384-1.041 1.97-1.654.845-.883 1.523-2.008 2.244-2.995a26.347 26.347 0 013.878-4.276c9.898-8.796 25.373-12.87 38.413-11.407 9.969 1.118 21.004 6.367 27.29 14.36 1.812 2.306 3.083 5.432 5.019 7.474 2.859 3.016 2.749 5.333 3.522 9.14.311 1.536.876 3.095 1.419 4.566 1.359.844 4.32 1.898 5.157 3.161.332 1.449.031 4.986-.885 6.204-.395.525-1.411.552-2.014.612.535 3.947.799 8.395-.097 12.307 1.864 1.029 2.871 2.134 3.502 4.208.149.488.22.999.289 1.503 7.681 4.557 13.272 10.728 15.537 19.56 1.584 6.178.943 15.67-2.455 21.167-.298.478-.632.93-1.001 1.356-.674-1.045-1.583-2.794-2.897-3.137-.393-.102-.741-.102-1.09.133-.942.636-1.19 2.306-1.266 3.336-.069.934.076 1.905.171 2.833-.702-.787-1.994-2.766-3.084-2.738-.392.01-.696.227-.923.53-.896 1.195-.683 3.295-.574 4.705a39.3 39.3 0 01-4.631 2.165c-1.517.592-3.811 1.106-5.104 2.005 3.154 1.466 11.198 4.988 13.264 7.568-.294.353-.367.519-.812.661l-.696-.242c-1.56-1.254-3.474-2.245-5.236-3.19-7.826-4.199-18.234-8.297-27.029-9.546-3.837 6.329-8.802 10.81-16.129 12.611a27.715 27.715 0 01-1.24.283 26.114 26.114 0 01-2.513.379 26.818 26.818 0 01-1.903.118 22.436 22.436 0 01-1.271 0 26.916 26.916 0 01-2.534-.191 26.765 26.765 0 01-1.883-.309 26.32 26.32 0 01-3.067-.825 25.188 25.188 0 01-2.365-.932 24.654 24.654 0 01-2.26-1.162 27.681 27.681 0 01-.546-.326c-3.684-2.282-6.583-5.573-8.232-9.579-9.724 1.771-19.326 4.795-27.882 9.813-1.62.951-3.545 1.992-4.76 3.447-.47-.422-.748-.713-.79-1.355 1.23-1.68 7.743-4.982 9.909-6.084-.995-1.502-1.7-3.359-2.824-4.735-.4-.492-.77-.742-1.418-.809-.264.074-.469.15-.677.337-1.166 1.05-1.216 2.344-1.301 3.803-1.39-1.484-5.56-6.799-7.226-7.096-.237.092-.388.088-.521.322-.588 1.035-.13 3.072.154 4.175-2.669-2.114-4.941-4.495-6.763-7.385-5.06-8.027-6.002-17.861-.073-25.679 2.757-3.636 6.268-6.594 9.18-10.094 3.857-4.638 7.549-11.037 8.847-16.997l.046-.216c-.09-1.96.303-4.127.024-6.03-.51-.145-1.11-.17-1.403-.653-.697-1.15-.333-5.492-.32-6.92 1.223-1.39 2.535-2.108 4.228-2.758z" fill="#1E1E1E"/><path d="M52.665 76.647c1.05-1.33 8.669-7.38 10.223-7.57-2.59 3.584-5.8 6.564-10.223 7.57z" fill="#EBFDFF"/><path d="M51.338 54.443c.576.455 1.304 3.745 1.575 4.562-1.704.61-3.218 1.462-4.765 2.394-.32.19-.644.358-.976.526-.276-1.58-.019-3.7.059-5.304 1.328-.784 2.739-1.464 4.107-2.178zm85.877-.883c.801.367 1.61.984 2.379 1.434 1.275.746 2.586 1.42 3.9 2.092-.119 1.54-.114 3.117-.711 4.56-.447.357-.624.23-1.178.174-2.305-.64-4.579-2.462-6.555-3.784.861-1.436 1.504-2.944 2.165-4.477z" fill="#FEC636"/><path d="M53.77 77.88c.435.68.31 2.632.361 3.466-.833.342-1.715.698-2.366 1.343-.549.544-.902 1.243-.878 2.027.034 1.09.686 2.187 1.48 2.904.365.33.676.504 1.169.473l.12-.33c-.15-.741-.584-1.307-.923-1.97-.266-.518-.573-1.173-.29-1.752.321-.658 1.232-.923 1.865-1.186a95.869 95.869 0 001.317 6.73l1.12 4.606c-.812-.34-1.624-.68-2.407-1.08-2.479-1.264-4.385-3.25-5.225-5.946-.633-2.029-.58-4.407.45-6.3.963-1.773 2.379-2.425 4.207-2.986zm84.739-1.146c.609-.043 1.277-.075 1.876.058a4.157 4.157 0 011.145.436 4.08 4.08 0 011.463 1.404c1.149 1.87 1.023 4.79.534 6.862-.862 3.65-3.2 6.004-6.288 7.925a16 16 0 01-4.255 1.416c2.012-5.994 2.409-10.931 2.894-17.135.878-.408 1.688-.738 2.631-.966z" fill="#EBFDFF"/><path d="M139.181 81.051c.489.082.609.058.976.414l.005.385c-.512 1.085-1.66 2.029-2.501 2.878-.348.024-.516-.068-.821-.226l-.112-.367c.317-1.23 1.58-2.223 2.453-3.084z" fill="#1E1E1E"/><path d="M49.324 62.506c1.26-.882 2.593-1.355 4.039-1.841.21.376.43.745.663 1.108 2.359 3.6 6.047 4.84 10.052 5.696a12.948 12.948 0 01-1.19 1.61c-1.554.19-9.172 6.239-10.223 7.569-.66.224-1.35.391-2.021.58-1.755-4.494-2.096-9.991-1.32-14.722zm85.151-2.882a129.605 129.605 0 005.811 3.392c.466 4.157.507 8.072-.205 12.211-1.784-.027-3.454.236-5.099.978-1.669.35-3.403.13-5.015-.387-3.182-1.019-6.514-3.829-8.04-6.802-.328-.36-.595-.83-.867-1.236l-.221-.436c.595-.417 1.822-.329 2.549-.36 5.377-.239 8.464-2.883 11.087-7.36z" fill="#60A4FF"/><path d="M121.06 67.78c2.689.803 5.225 1.975 7.745 3.197-.976-.258-2.067-.658-3.067-.741 2.416 1.328 3.849 1.25 6.144 3.265-1.341-.553-6.103-2.633-7.105-2.53l.027.138c3.526 1.372 7.599 2.125 10.178 5.097-1.669.35-3.403.13-5.015-.386-3.182-1.02-6.514-3.83-8.04-6.803-.328-.36-.595-.83-.867-1.236z" fill="#EBFDFF"/><path d="M91.749 49.08c1.716-.085 3.533-.105 5.248-.006.372.022 1.112.036 1.433.258 1.281.892 1.847 4.563 2.492 6.03a12.519 12.519 0 002.117 3.26c1.01 1.104 2.221 1.935 3.594 2.522 4.519 1.932 15.521 3.173 20.61 3.368a23.628 23.628 0 01-4.525.839c-6.271.58-15.061 1.507-20.346-2.587-1.817-1.409-3.15-3.315-4.925-4.758-1.31-1.066-2.316-1.06-3.918-.886-2.922 1.026-5.24 5.842-9.467 7.586-3.868 1.596-8.147.799-12.19.911-2.615.073-5.298.387-7.903.119-1.394-.144-2.951-.48-4.23-1.062-.398-.18-.598-.294-.735-.708.795-.599 5.988.074 7.354.048 4.775-.093 14.974-1.057 18.76-3.717 1.625-1.14 2.847-3.025 3.74-4.77 1.07-2.09 1.211-4.709 2.89-6.448z" fill="#FEC636"/><path d="M80.936 119.125c10.355 3.421 17.476 3.365 27.89.044.144 2.213.444 4.558 1.254 6.636.896 2.296 2.342 3.607 4.554 4.578-1.573 2.451-3.927 4.494-6.31 6.124-5.086 3.331-11.516 4.502-17.484 3.488-6.099-1.035-11.115-4.347-14.681-9.348.59-.328 1.15-.688 1.65-1.147 2.836-2.607 3.04-6.792 3.127-10.375z" fill="#EBFDFF"/><path d="M93.182 19.037c3.728-.479 8.157-.108 11.812.61 8.292 1.63 16.618 5.949 22.316 12.256 1.327 1.47 2.426 3.077 3.527 4.714-7.958-4.4-17.568-6.319-26.591-4.709-2.692.48-4.886 1.478-6.498 3.776l-1.11 1.934-3.968.023c-1.204-2.316-2.322-4.012-4.839-5.03-5.327-2.156-15.228-1.428-20.683-.082-2.438.601-4.7 1.527-6.996 2.52.248-.308.499-.614.754-.916 7.897-9.372 20.304-14.06 32.276-15.096zm52.167 62.223c7.681 4.558 13.272 10.73 15.537 19.56 1.584 6.178.943 15.671-2.455 21.168-.298.478-.632.93-1.001 1.355-.674-1.044-1.583-2.793-2.897-3.136-.393-.103-.741-.103-1.09.133-.941.636-1.19 2.306-1.266 3.336-.069.933.077 1.904.171 2.833-.702-.787-1.994-2.767-3.084-2.738-.392.01-.695.227-.923.53-.896 1.194-.683 3.295-.574 4.705a39.3 39.3 0 01-4.631 2.165c-1.517.592-3.811 1.106-5.104 2.005-7.112-2.832-17.792-7.361-25.488-5.663-1.729-2.728-1.962-5.797-2.384-8.921 10.336-4.609 18.071-11.516 22.302-22.192 3.297-.349 6.622-1.797 8.994-4.132 3.119-3.068 3.855-6.787 3.893-11.008z" fill="#60A4FF"/><path d="M137.425 109.341c.161-.002.278-.011.441.022.426.086.761.616.967.964 1.596 2.706 1.575 7.221.741 10.186-1.161 4.126-3.941 6.547-7.565 8.578-.124-.001-.238.005-.36-.03-.347-.099-.475-.348-.636-.643.087-.693.562-.846 1.127-1.187 1.004-.606 2.062-1.184 2.921-1.994 2.929-2.761 4.266-7.24 3.341-11.153-.324-1.373-1.449-3.439-.977-4.743zm10.725-11.005c.178.058.307.09.472.192 1.875 1.162 3.767 7.889 4.028 10.066.615 5.135-1.101 9.163-4.241 13.132-.304-.156-.528-.358-.782-.584-.199-.98.932-2.208 1.461-3.046 2.83-4.475 2.809-9.95.605-14.696-.552-1.189-1.785-3.023-1.997-4.288-.041-.245.307-.577.454-.776z" fill="#1E1E1E"/><path d="M47.48 69.94c.318 2.57.808 5.047 1.578 7.525-1.426 3.99-2.795 7.478-.827 11.608 1.475 3.096 4.316 5.158 7.498 6.257a18.66 18.66 0 001.574.454c4.613 10.565 11.459 18.148 22.187 22.708-.062 2.934-.291 5.828-1.417 8.566-8.285-.907-20.403 3.982-28.016 7.257-.995-1.502-1.7-3.359-2.824-4.735-.4-.492-.77-.742-1.418-.809-.264.074-.469.15-.677.337-1.166 1.05-1.216 2.344-1.301 3.803-1.39-1.484-5.56-6.799-7.226-7.096-.237.092-.388.088-.521.322-.588 1.035-.13 3.072.154 4.175-2.669-2.113-4.941-4.495-6.763-7.384-5.06-8.028-6.002-17.862-.073-25.68 2.757-3.636 6.268-6.594 9.18-10.094 3.857-4.638 7.549-11.037 8.847-16.996l.046-.217z" fill="#60A4FF"/><path d="M52.735 105.585c.455.05.606.006.948.327.177 1.254-1.804 3.12-2.302 4.357-.523 1.296-.883 2.944-1.005 4.337-.298 3.422.812 7.154 3.54 9.377 1.024.835 2.334 1.503 3.185 2.51.101.517.004.575-.233 1.027-1.707-.499-3.186-1.43-4.434-2.689-2.408-2.433-3.646-5.872-3.623-9.27.024-3.528 1.401-7.462 3.924-9.976zm-7.973-14.271c.335.097.533.193.808.408 1.492 3.773-8.505 11.433-10.452 14.831-.659 1.15-1.055 2.707-1.212 4.02-.391 3.297.692 6.568 2.705 9.173.559.722 1.268 1.31 1.84 2.034.1.52-.1.673-.359 1.122-1.887-.697-3.452-3.01-4.298-4.78-2.828-5.918-1.477-11.374 2.922-16.023 1.978-2.09 4.277-3.89 5.948-6.256.971-1.376 1.55-2.948 2.098-4.529z" fill="#1E1E1E"/><path d="M58.035 63.938c-3.077-2.167-4.138-5.225-5.028-8.758-.124-.492-.196-1.512-.47-1.902-.16-.229-.543-.477-.769-.658-.505-3.147.89-8.656 2.78-11.25 3.567-4.892 10.754-7.133 16.47-7.976 4.473-.66 13.99-1.21 17.799 1.587 1.544 1.134 1.796 3.093 3.244 4.139 1.92-.015 3.873.05 5.778-.21.037-.006.075-.01.112-.015.937-2.197 1.912-3.893 4.236-4.86 6.406-2.664 18.343-.481 24.57 2.216 3.429 1.485 7.158 3.764 8.611 7.39.95 2.371.793 5.026 1.273 7.506-1.99 4.753-3.778 10.412-8.567 12.993a17.32 17.32 0 00-2.002-.51c-.31-.063-.195-.025-.47-.218l.021-.243c.038-.493.132-.915-.128-1.36-.336-.205-.446-.334-.855-.224-.402.108-.751.5-.987.813l-.038.344.331.332c-.908.23-2.606-.218-3.566-.337-4.118-.508-10.816-.95-14.339-3.029-4.545-2.681-4.783-10.915-7.528-11.913-.954-.346-2.512-.069-3.519-.053-1.017.016-2.122-.265-3.122-.074-.93.177-1.49.746-1.97 1.535-.688 1.13-1.052 2.469-1.495 3.709-1.61 4.508-3.254 6.996-8.045 8.255-3.472.912-15.379 2.41-18.52 1.793l-.283-.241c-.069-1.333.157-1.688-.912-2.692 4.784.215 13.734.504 18.167-.67 1.514-.4 2.938-1.067 4.12-2.11 2.614-2.312 3.7-6.517 3.835-9.886.11-2.723-.284-5.086-1.602-7.483 1.123 4.918 1.22 10.829-1.657 15.238-1.337 2.048-3.442 3.107-5.785 3.544-2.321.433-16.202 1.084-17.736.048-.74-.5-1.094-1.934-1.386-2.755a17.76 17.76 0 01-.608-1.994c-.873-2.832-1.687-5.705-.147-8.498 2.05-3.72 6.973-6.308 10.934-7.355 3.923-1.036 9.175-1.479 13.116-.307.658.196 1.313.572 1.937.87.4.19 1.19.7 1.574.376-.206-.781-.698-1.123-1.358-1.521-3.605-2.173-11.52-1.374-15.443-.33-4.187 1.115-9.072 3.7-11.325 7.563-2.398 4.115-.385 9.39.767 13.594.307 1.123 1.514 2.008 1.66 2.82-.517.316-.985.429-1.147 1.044-.012.044-.06.369-.066.402-.08.484-.254.88-.462 1.32z" fill="#EBFDFF"/><path d="M124.269 42.495c.841.246 1.914 1.12 2.437 1.815 1.867 2.48 2.558 8.69 2.092 11.767-.638-.568-1.156-1.232-1.697-1.89-2.272-2.979-4.647-5.736-7.204-8.474 1.403-1.157 2.877-2.185 4.372-3.218zm-64.877 4.389c3.579-3.097 6.212-4.372 10.874-5.337 1.478-.306 2.983-.631 4.493-.709-2.703 2.487-5.79 4.515-8.5 7.01a92.3 92.3 0 00-5.812 5.887c-.637.704-1.184 1.556-1.844 2.218a17.747 17.747 0 01-.608-1.994c1.584-3.531 4.39-5.854 7.207-8.4-1.9.65-3.878.824-5.81 1.325z" fill="#60A4FF"/><path d="M109.502 36.364c4.579-.624 10.132.594 14.3 2.467 3.556 1.598 7.484 4.407 8.839 8.23.86 2.425.189 5.319-.901 7.578-1.114 2.31-2.896 4.13-5.364 4.973-4.199 1.434-14.081.55-17.962-1.404-2.492-1.256-3.814-3.584-4.652-6.142-1.22-3.725-1.448-8.143.355-11.71-.214 1.416-.428 2.81-.468 4.244.017 1.504.151 2.928.448 4.403.562 2.785 1.581 6.395 4.125 8.016 3.438 2.19 12.866 2.934 16.858 1.98 2.266-.543 4.123-1.797 5.332-3.812 1.298-2.163 2.022-5.172 1.357-7.64-.779-2.89-3.449-5.079-5.934-6.53-4.877-2.846-11.809-4.654-17.426-3.408-1.405.312-2.515 1.137-3.833 1.488l-.271-.163c.009-.267-.027-.309.141-.539 1.098-1.513 3.347-1.803 5.056-2.032z" fill="#1E1E1E"/><path d="M106.171 41.123c.43.03.778.132 1.169.305 4.638 2.057 14.879 11.226 16.444 15.994.119.36.183.57.008.919l-.96.198c-.806.028-1.61.038-2.405-.12-1.557-.308-3.056-.92-4.46-1.649-2.65-1.376-9.5-5.959-11.089-8.367-.235-2.374-.154-5.283 1.293-7.28zm-23.017.055c.168.053.268.167.4.28.95 2.159.96 5.214.587 7.513-1.39 2.035-5.776 4.627-8.004 6.003-3.907 2.414-6.947 4.732-11.746 3.597-.486-.17-1.377-.42-1.677-.855-.119-.171-.035-.326.032-.502.437-1.153 1.654-2.395 2.462-3.307 5.028-5.673 11.237-9.398 17.946-12.729z" fill="#60A4FF"/><path d="M94.041 58.216c.08-.002.162-.007.242-.007 2.338-.006 4.358 3.03 5.933 4.515 5.809 5.475 11.237 4.495 18.536 4.312 1.35 2.108 2.667 4.257 4.423 6.058 3.344 3.428 6.55 4.689 11.287 4.771-.74 10.97-2.493 20.286-9.958 28.896-7.153 8.25-17.459 12.71-28.227 13.46l-.584.011a38.754 38.754 0 01-3.853-.15 38.419 38.419 0 01-3.82-.527 37.82 37.82 0 01-2.82-.64 37.377 37.377 0 01-2.767-.846 40.567 40.567 0 01-4.448-1.854 39.401 39.401 0 01-9.49-6.547 42.2 42.2 0 01-.697-.667c-8.343-8.171-12.247-20.099-12.38-31.623 4.767-1.981 7.573-5.78 10.277-9.98 2.214-.194 4.442-.385 6.667-.353 5.606.08 10.568.668 15.359-2.843 2.21-1.62 3.97-4.736 6.175-5.911.048-.026.097-.05.145-.075z" fill="#EBFDFF"/><path d="M105.44 98.757c.29.199.38.39.534.7-.014.32-.059.448-.251.718-1.212 1.704-5.521 3-7.518 3.342-4.586.785-9.14-.201-12.938-2.874-.307-.389-.572-.767-.52-1.263 1.17-.539 3.644 1.396 4.788 1.907.714.319 1.513.529 2.277.693 5.129 1.103 9.377-.484 13.628-3.223zm8.34-24.467c1.057-.047 1.98.108 2.909.64a4.378 4.378 0 011.281 1.135 4.308 4.308 0 01.451.731 4.357 4.357 0 01.301.805c.321 1.184.182 2.505-.485 3.546-.777 1.213-1.867 1.644-3.215 1.93-.888.028-1.707.008-2.536-.348a4.202 4.202 0 01-1.45-1.023 4.29 4.29 0 01-.533-.716 4.234 4.234 0 01-.371-.811c-.39-1.149-.294-2.463.295-3.527.763-1.378 1.913-1.938 3.353-2.361zm-39.3-.003c.886-.082 1.762-.163 2.626.106a4.379 4.379 0 01.857.361 4.44 4.44 0 011.401 1.209 4.503 4.503 0 01.484.794c.512 1.085.574 2.433.124 3.549-.544 1.35-1.614 2.107-2.929 2.623-.83.167-1.564.212-2.39-.01-1.207-.325-2.207-1.103-2.787-2.214-.591-1.132-.705-2.452-.265-3.657.528-1.444 1.552-2.145 2.88-2.76z" fill="#1E1E1E"/><path d="M117.855 85.603c2.214-.367 5.146.069 7.014 1.305a6.402 6.402 0 01.488.356 5.936 5.936 0 01.657.624 6.671 6.671 0 01.38.47 6.23 6.23 0 01.329.506 5.592 5.592 0 01.579 1.391 5.963 5.963 0 01.127.59c.278 1.657-.047 3.494-1.094 4.835-1.388 1.778-3.481 2.298-5.597 2.58-2.566.134-5.398.022-7.543-1.586a5.559 5.559 0 01-2.237-3.945c-.167-1.609.268-3.186 1.306-4.435 1.427-1.718 3.437-2.456 5.591-2.691zm-48.041-.188c2.388-.181 5.14-.225 7.292.98a6.285 6.285 0 011.063.755 6.207 6.207 0 01.887.956 6.19 6.19 0 01.527.825 6.106 6.106 0 01.394.895 6.498 6.498 0 01.184.627c.403 1.644.204 3.45-.747 4.873-1.152 1.722-2.9 2.383-4.837 2.78-2.707.203-5.606.38-8.002-1.157a6.058 6.058 0 01-.774-.577 6.592 6.592 0 01-.676-.688 6.138 6.138 0 01-.563-.784 6.362 6.362 0 01-.655-1.466 6.054 6.054 0 01-.153-.624c-.3-1.53-.015-3.11.869-4.4 1.214-1.772 3.162-2.59 5.191-2.995z" fill="#FEC636"/><path d="M117.523 128.426c8.795 1.249 19.203 5.347 27.029 9.546 1.762.945 3.676 1.936 5.236 3.19-1.069.912-1.892 2.204-2.651 3.372-4.003 6.154-6.566 14.197-7.144 21.512-.18 2.27-.38 4.998 1.218 6.834.264.302.526.553.913.684.306-.917.609-1.846.984-2.736.172-.409.328-.781.752-.949 1.848.967 7.443 11.453 8.727 13.856 3.561 1.212 13.561 4.813 15.865 7.178.312.321.321.507.323.938l-.245.213a2.14 2.14 0 01-.961-.215c-.781-.35-1.455-.89-2.203-1.303-1.419-.782-2.936-1.468-4.416-2.128-3.669-1.635-7.566-2.911-11.336-4.308-3.041-1.127-6.166-2.505-9.303-3.309l-.234-.059c.513 1.892.753 3.734.526 5.694-.798 6.885-6.394 13.147-11.585 17.291 5.962 1.975 11.344 4.972 17.144 7.292a58.012 58.012 0 0011.752 3.217c5.501.864 11.126.797 15.776-2.622 4.471-3.288 7.006-8.739 7.793-14.132 2.301-15.773-7.186-32.811-17.454-44.148-1.562-1.724-3.315-3.403-5.063-4.936-1.272-1.117-2.946-2.198-3.945-3.543-.035-.531.1-.687.339-1.151 2.3 1.388 4.45 3.405 6.388 5.263 9.336 8.953 17.063 21.051 20.194 33.67 2.116 8.527 2.007 17.168-2.682 24.834-2.411 3.942-6.321 6.973-10.845 8.041-6.512 1.536-13.973-.368-20.272-2.214.193 3.258 2.586 24.309 2.203 25.854-.279.158-.554.314-.845.449-2.448 2.844-5.624 4.853-8.825 6.749a89.73 89.73 0 01-4.341 2.395 88.082 88.082 0 01-6.75 3.119 86.195 86.195 0 01-4.637 1.755 88.733 88.733 0 01-4.73 1.488 88.868 88.868 0 01-4.806 1.216 87.107 87.107 0 01-12.251 1.83c-16.883 1.265-33.823-1.666-48.916-9.478-3.68-1.904-7.497-4.113-10.653-6.815-.725-.621-1.64-1.352-1.926-2.286a27.214 27.214 0 01-1.106-.032c-.514-.817 2.109-23.454 2.328-26.42-7.472 2.184-15.947 3.912-23.308.433a19.728 19.728 0 01-1.806-.964 20.571 20.571 0 01-2.504-1.773 20.305 20.305 0 01-4.61-5.441 20.005 20.005 0 01-1.338-2.762 20.035 20.035 0 01-.351-.961c-3.474-9.977.505-22.394 4.97-31.563 3.913-8.038 9.363-15.005 15.718-21.25.816-.802 2.282-2.566 3.39-2.784.457-.09.585.058.917.317-.09.883-1.89 2.207-2.533 2.771-3.921 3.437-7.541 7.724-10.565 11.97-5.535 7.772-9.68 16.953-11.216 26.407-1.092 6.718-.707 13.243 3.417 18.916 2.985 4.108 7.392 6.692 12.398 7.449 11.245 1.701 27.24-5.027 36.282-11.744-3.163-1.233-5.709-3.199-7.527-6.083-2.891-4.586-3.368-9.57-2.184-14.764-3.942.564-7.86 2.147-11.588 3.508a295.993 295.993 0 00-12.108 4.669c-2.084.878-4.053 1.926-6.191 2.683-.456-.12-.486-.103-.766-.475.037-.1.058-.208.112-.3.868-1.464 13.602-6.044 16.06-7.009l8.75-13.64c.317-.078.479-.117.785.076 1.388.878 1.84 4.644 2.015 6.156 1.013-1.584.359-8.23.214-10.351-.445-6.541-3.533-20.643-8.382-24.86 1.214-1.455 3.138-2.496 4.759-3.447 8.556-5.018 18.158-8.042 27.882-9.813 1.649 4.006 4.548 7.297 8.232 9.579a23.532 23.532 0 001.662.935 24.303 24.303 0 001.727.808 25.042 25.042 0 004.228 1.367 22.18 22.18 0 001.246.253 26.7 26.7 0 001.889.262 22.42 22.42 0 001.267.096 22.479 22.479 0 001.271.032 26.98 26.98 0 001.905-.071 26.818 26.818 0 001.266-.126 26.334 26.334 0 003.121-.591c7.327-1.801 12.292-6.282 16.129-12.611z" fill="#1E1E1E"/><path d="M46.665 172.849c1.042 1.092 1.171 6.356 1.262 8.005a119.298 119.298 0 00-7.08 2.416c-.347.101-.694.174-1.047.249.041-.323 6.115-9.484 6.865-10.67zm97.386-.853c2.546 3.481 4.644 7.426 6.807 11.159l-1.656-.67c-2.341-.848-4.682-1.687-6.98-2.65.4-2.692 1.085-5.228 1.829-7.839z" fill="#EBFDFF"/><path d="M111.903 195.22c2.13 1.346 4.2.249 6.476.715 2.689.552 5.139 2.137 7.415 3.6-2.582 5.653-6.408 9.987-11.465 13.541-3.223 1.991-6.531 3.408-10.144 4.511 5.782-5.663 7.207-14.632 7.718-22.367zm-34.451.14c.176-.036.072-.024.344 0 .614.055 1.02 2.094 1.21 2.716a59.752 59.752 0 001.98 5.405 59.357 59.357 0 008.931 14.717c-3.058-.571-5.967-1.316-8.844-2.518-6.68-2.788-12.46-8.131-15.495-14.724 3.762-2.95 7.08-4.922 11.874-5.596zm7.202-45.184c.032.048.096.086.097.143 0 .026-.482.593-.526.648a28.764 28.764 0 00-3.624 5.957c-2.571 5.731-3.26 12.034-3.535 18.237-5.064-.741-9.628.138-14.329 1.993-.233-.077-.258-.197-.397-.392-.376-2.197 1.006-5.365 1.86-7.348 4.23-9.833 10.679-15.341 20.454-19.238zm17.264-1.035c4.763.918 9.565 2.936 13.455 5.849 5.597 4.19 12.927 13.584 13.907 20.777.054.399.18.768-.069 1.096l-.37-.127c-5.366-2.511-10.941-2.371-16.602-.988-1.042-9.922-3.143-19.179-10.321-26.607z" fill="#60A4FF"/><path d="M128.031 168.052c2.178.746 4.212 1.801 5.864 3.427 2.744 2.703 5.466 9.702 5.445 13.519-.034 6.13-4.891 11.885-9.014 15.94-3.497-2.442-7.56-5.797-11.92-6.276-1.529-.168-3.304.313-4.739-.098-.61-.176-1.193-.573-1.49-1.147-.17-.327-.257-.734-.086-1.077.773-1.55 7.611-.433 8.256-.737.267-.126.365-.16.455-.446-1.616-1.844-9.799.172-12.234-.627-.517-.169-.705-.407-.929-.885.051-.444.083-.685.423-1.004 1.644-1.543 7.555-1.548 9.702-1.406 1.558.169 5.133 1.7 6.181 1.468l.094-.212c-.356-.84-1.605-1.316-2.417-1.579-1.439-.466-2.964-.865-4.482-.941-2.624-.13-7.909 1.123-9.992-.254-.428-.283-.578-.541-.667-1.034.292-.7 1-1.134 1.678-1.425 4.133-1.77 9.38-2.501 13.772-1.419 1.263.31 2.473.841 3.674 1.334.373-.128.375-.174.6-.505-.064-.342-.064-.435-.348-.666-2.051-1.678-8.111-1.984-10.658-1.715-1.168.124-2.283.573-3.446.659-.722.053-2.029-.038-2.539-.658-.161-.195-.308-.399-.295-.659.024-.467.308-.819.633-1.128 2.936-2.792 12.176-2.727 15.941-1.695 1.16.318 3.729 1.872 4.251 1.802.414-.055.616-.253.807-.606 1.063-1.961-1.668-8.007-2.52-9.95zm-65.11.074c.044.062.115.111.13.185.06.306-2.185 5.926-2.148 7.853.014.717.31 1.791.93 2.227.32.225.56.217.92.133 1.025-.242 2.074-.751 3.07-1.109 1.674-.601 3.45-.94 5.218-1.101 2.406-.22 9.29-.037 11.027 1.703.294.294.494.628.476 1.058-.034.795-.838 1.45-1.353 1.988-1.671-.322-3.365-.598-5.072-.578-2.432.028-6.776 1.062-8.417 2.954-.288.332-.319.486-.272.912.094.066.17.174.282.2.347.08 1.806-1.076 2.21-1.301 1.924-1.07 4.234-1.512 6.418-1.542 2.458-.033 7.25.476 8.991 2.417.302.337.324.515.283.949-1.361 1.877-7.033.914-9.166 1.094-1.518.128-2.955.505-4.307 1.213-1.191.624-3.966 2.515-4.29 3.861-.065.272.062.315.215.516.963.038 2.82-2.127 3.736-2.759l.226-.155c2.259-1.311 4.569-1.579 7.141-1.59 1.402-.006 3.134.08 4.149 1.184.288.314.39.588.38 1.014-.911 1.97-7.567.196-9.756 1.986-.19.156-.134.127-.143.387l.308.291c1.172.07 2.45-.431 3.671-.471 1-.033 3.404-.309 4.12.483.274.303.362.71.332 1.102-.771.919-5.01.789-6.302 1.02a20.339 20.339 0 00-4.579 1.365 20.546 20.546 0 00-2.136 1.079 20.044 20.044 0 00-1.993 1.325c-.842.627-1.61 1.361-2.472 1.959-.917.637-1.946.917-3.047.681-2.574-.551-4.942-3.047-6.297-5.193-2.382-3.772-3.286-8.457-2.295-12.821 1.323-5.828 4.72-11.338 9.812-14.519z" fill="#EBFDFF"/><path d="M92.178 148.748a29.872 29.872 0 017.325.111c6.254 5.345 9.155 13.058 10.599 20.967.369 2.023.506 4.082.91 6.097l.041.203c-.763.246-1.589.465-2.238.954-.597.451-1.073 1.035-1.158 1.801-.116 1.055.384 1.955.997 2.766l-.192.069c-1.28.474-2.688 1.1-3.244 2.454-.207.503-.221 1.035.016 1.531.468.981 1.44 1.32 2.38 1.69-.581.569-1.265 1.28-1.302 2.148-.024.546.127.993.507 1.383 1.046 1.075 2.54 1.076 3.926 1.095-.226 7.744-1.275 17.822-6.727 23.746-2.453 2.665-4.956 2.693-8.305 2.855-1.284.057-2.52.029-3.802-.071-5.699-6.513-10.117-14.987-12.28-23.353.798-.106 1.64-.189 2.412-.416.711-.209 1.228-.435 1.583-1.123.083-.628-.1-.942-.296-1.524-.449-1.329 1.185-1.127 1.601-2.163.341-.849-.234-1.769-.568-2.54.878-.371 2.24-.904 2.603-1.885.21-.571.114-1.07-.18-1.585-.895-1.574-2.207-1.93-3.831-2.393.354-.523.75-1.06.945-1.667.214-.668.202-1.406-.16-2.02-.944-1.602-3.654-2.05-5.303-2.46.136-7.981 1.72-17.374 6.891-23.683 2.184-2.665 3.637-2.679 6.85-2.987z" fill="#EBFDFF"/><path d="M117.523 128.426c8.795 1.249 19.203 5.347 27.029 9.546 1.762.945 3.676 1.936 5.236 3.19-1.069.912-1.892 2.204-2.651 3.372-4.003 6.154-6.566 14.197-7.144 21.512-.18 2.27-.38 4.998 1.218 6.834.264.302.526.553.913.684-.475 1.94-.934 3.865-1.239 5.841l-1.578-.435c-1.438-4.678-3.344-8.478-7.826-10.864a17.795 17.795 0 00-4.357-1.616c-5.5-8.95-12.783-15.818-23.233-18.346a43.25 43.25 0 00-.866-.195 36.32 36.32 0 00-11.48-.57 37.244 37.244 0 00-1.76.238 37.004 37.004 0 00-4.33.97c-.284.082-.567.168-.85.258a35.024 35.024 0 00-4.14 1.594 38.006 38.006 0 00-2.379 1.197 32.783 32.783 0 00-1.534.893c-5.482 3.39-9.216 8.169-12.419 13.665-4.748 1.615-8.173 6.1-10.3 10.439-.534 1.09-.983 2.209-1.415 3.343-1.153-.012-2.221.17-3.338.447.006-1.141-.054-2.323.027-3.459 1.013-1.584.359-8.23.214-10.351-.445-6.541-3.533-20.643-8.382-24.86 1.214-1.455 3.138-2.496 4.759-3.447 8.556-5.018 18.158-8.042 27.882-9.813 1.649 4.006 4.548 7.297 8.232 9.579a23.532 23.532 0 001.662.935 24.109 24.109 0 001.727.808 25.212 25.212 0 007.363 1.882 22.387 22.387 0 001.267.096 22.472 22.472 0 001.271.032 26.941 26.941 0 001.905-.071 26.855 26.855 0 001.266-.126 26.343 26.343 0 003.121-.591c7.327-1.801 12.292-6.282 16.129-12.611zm9.504 71.935c.749.486 1.465 1.025 2.189 1.548-.498.291-.998.582-1.483.896-.535.348-.853.623-.985 1.261.557.884 3.458 1.468 4.527 1.882 5.209 2.014 10.153 4.633 15.339 6.703.405 3.168 2.286 25.968 2.619 26.626.063.126.179.216.268.324-2.448 2.844-5.624 4.853-8.825 6.749a86.437 86.437 0 01-6.561 3.498 88.127 88.127 0 01-6.836 2.926 87.542 87.542 0 01-7.061 2.333 88.868 88.868 0 01-4.806 1.216 87.107 87.107 0 01-12.251 1.83c-16.883 1.265-33.823-1.666-48.916-9.478-3.68-1.904-7.497-4.113-10.653-6.815-.725-.621-1.64-1.352-1.926-2.286.362-.482 2.505-24.225 2.742-26.998 7.448-2.601 13.633-6.082 19.966-10.758a32.513 32.513 0 001.178 2.138 31.616 31.616 0 001.336 2.043 32.259 32.259 0 006.765 6.992 31.327 31.327 0 001.997 1.404 32.31 32.31 0 002.098 1.247c8.346 4.489 18.601 5.718 27.705 2.972 10.373-3.128 16.523-8.853 21.574-18.253z" fill="#60A4FF"/><path d="M93.075 60.048c-.434 10.552-3.269 20.844-3.713 31.408-.096 2.27 4.243 2.714 6.05 2.714" stroke="#000" stroke-width="1.5" stroke-linecap="round"/></svg>