<svg width="221" height="289" fill="none" xmlns="http://www.w3.org/2000/svg"><path d="M194.363 163.59l.421.11c.31.353.373.363.394.823-.423.536-4.055 1.349-5.004 1.791-1.764.82-3.185 1.929-4.673 3.17l-.344-.016c-.084-.144-.32-.479-.362-.658-.091-.386-.035-.44.183-.723 1.964-2.547 6.349-4.073 9.385-4.497zm-130.011-9.787a39.778 39.778 0 00-.524-6.751c-.192-1.156-.709-2.679-.662-3.839.009-.195.052-.262.122-.42.424-.284.418-.313.919-.257 1.305 1.479 1.568 8.905 1.6 11.194.028 3.162.108 6.345-.088 9.503-.07 1.127-2.036 17.679-2.154 17.977-.008.02-.236.341-.243.349-.033.037-.076.064-.114.097l-.65-.133c-1.042-1.726 1.511-15.264 1.728-18.288.181-2.543.056-5.172.04-7.724-.545.531-1.278 1.411-2.039 1.576-.287.062-.395-.077-.634-.211.321-1.348 1.69-2.223 2.7-3.073z" fill="#1E1E1E"/><path d="M141.753 97.536c.88-.552 1.636-.337 2.602-.111 3.186.742 6.494 2.042 9.515 3.307 14.897 6.242 25.94 16.013 37.743 26.675 1.35 1.219 6.908 5.723 7.513 6.792.226.4.177.583.019.998-.373.979-1.408 1.919-2.105 2.697 7.686 7.919 16.392 20.78 16.163 32.097-.18 8.855-6.554 16.695-12.698 22.54-5.551 5.281-11.9 9.834-18.396 13.875-2.571 1.6-5.232 3.051-7.804 4.648-.292-.458-.48-.745-.498-1.31.839-.964 7.394-4.495 9.018-5.533 11.347-7.251 29.786-20.955 28.816-36.005-.688-10.663-8.729-21.529-15.542-29.399a449.663 449.663 0 01-12.651 13.902c-2.513 2.686-5.018 5.467-7.732 7.952a868.135 868.135 0 006.431 6.584c.896.914 1.745 1.928 2.696 2.779-5.37 6.698-10.482 13.48-16.215 19.887.822 1.747 1.365 3.418.895 5.352l-.22.261c-.473-.106-.593-.313-.828-.713-.341-.581-.364-1.268-.42-1.921-.256-2.942-1.541-4.255-4.117-5.53-.193 2.167-.404 4.244-1.389 6.222-4.022-.535-11.09-.921-14.479 1.797-.559.449-.822.845-.997 1.534.122.584.262.88.785 1.201 3.409 2.092 9.798-.343 11.217.523.099.39.176.361-.034.735-1.416.671-3.006.807-4.497 1.246-2.367.697-6.871 2.344-7.755 4.796-.2.556-.353 1.402-.022 1.934.333.535 1.045.693 1.63.728 2.994.178 6.821-1.707 9.657-2.713.741-.263 1.717-.743 2.499-.804.427-.033.549.087.899.304l.145.366c-.066.128-.091.289-.198.386-.93.836-3.5 1.343-4.737 1.832-1.851.731-8.329 3.783-7.611 6.349.118.421.338.801.725 1.032 1.327.792 3.927-.381 5.244-.873 2.209-.825 8.042-4.339 9.823-4.176l.354.31c-.037.476-.158.641-.531.948-2.229 1.832-7.488 2.363-8.302 5.43.119.517.327.672.787.935 1.453.833 3.343.345 4.827-.158a19.125 19.125 0 002.78-1.175c1.114-.587 2.746-2.011 3.933-2.191.226.195.439.38.641.6-2.399 2.668-5.618 3.808-9.027 4.605 4.365 12.809 6.575 26.81 6.734 40.329.023 1.944.33 5.027-.579 6.742-.041.075-.089.146-.134.22-.116-.068-.277-.159-.381-.238-.722-.556-.454-2.873-.446-3.753.061-6.773-.623-13.389-1.293-20.124-12.95-6.268-22.276-20.433-27.121-33.613-5.133.745-10.233 1.494-15.434 1.591l.062 16.123c.023 3.136.321 6.507-.132 9.607a11.191 11.191 0 01-.888 3.036c-.146.321-.307.635-.483.941-1.019 1.765-3.194 4.104-5.239 4.549-.517.112-.854.042-1.306-.235l.058-.154-.112-.15-.03.199-.091-.208c.946-1.341 3.095-1.853 4.299-3.063 1.219-1.224 1.936-2.859 2.259-4.541.577-3.006.262-6.365.262-9.433l-.011-16.566c-3.834.139-7.613.15-11.449.033-.06 5.642.002 11.294.043 16.936.039 5.426.012 10.85.581 16.254.375 3.43.911 6.834 1.609 10.214.459 2.236 1.387 4.962 1.381 7.202-.001.483-.005.739-.345 1.105l-.477-.05c-.885-1.035-1.206-3.936-1.502-5.355a126.251 126.251 0 01-2.411-16.244c-.315-4.128-.275-8.279-.293-12.417-.03-5.916-.021-11.832.025-17.747-6.409-.162-12.713-.757-19.067-1.596a100.09 100.09 0 01-1.683 4.118c-5.294 12.122-15.3 24.641-27.819 29.567-.785 4.409-1.351 8.91-1.848 13.359-.263 2.351-.396 4.723-.782 7.058-.34.399-.65.406-1.138.556-.596-1.643.118-4.969.317-6.756 1.428-12.779 3.825-25.233 6.687-37.759a18.649 18.649 0 01-3.207-1.628 18.713 18.713 0 01-2.837-2.211c-.767-.721-1.861-1.716-1.9-2.818.272-.378.257-.353.716-.444.86.366 3.303 3.104 4.423 3.94 1.874 1.399 5.54 3.136 7.872 2.837.569-.073.895-.253 1.255-.711.19-.623.177-1.103-.065-1.716-.954-2.422-4.16-2.84-6.248-3.779-.508-.228-.737-.432-.923-.952 1.665-1.377 10.88 3.985 13.822 2.083.316-.204.523-.442.567-.83.069-.62-.303-1.256-.687-1.71-3.128-3.691-11.63-3.35-13.248-5.069.207-.177.377-.275.644-.341 2.426-.604 8.162 1.17 10.416 2.164 1.01.447 1.952 1.057 2.89 1.637.51-.085 1.046-.158 1.532-.342.59-.223 1.171-.678 1.382-1.292.162-.474.022-.984-.2-1.413-1.177-2.261-4.835-3.931-7.198-4.578-1.225-.335-2.513-.468-3.718-.856-.25-.429-.243-.473-.206-.971.09-.087.15-.221.268-.262.335-.117 1.446.023 1.841.035 2.69.084 6.755.356 9.174-.961.515-.281.601-.514.734-1.041-.074-.291-.14-.545-.316-.795-1.88-2.674-7.812-3.487-10.814-3.555-1.474-.033-3.736.278-5.115-.17-.544-.176-.539-.443-.735-.922l-.526.148-.242-.162c-.239-.943-.1-5.256.24-6.106.164-.41.306-.393.695-.537l.672.415c-.09 1.969-.124 3.998-.47 5.94 5.344-.141 12.883-.326 17.129 3.472.6.538 1.04 1.212 1.03 2.044a2.826 2.826 0 01-.974 2.085c-1.468 1.238-4.018 1.325-5.86 1.537 2.324 1.187 4.418 2.239 5.666 4.663 15.323 3.414 33.649 4.115 49.252 2.695-.179-.594-1.45-1.38-1.952-1.893-.922-.943-1.19-1.832-1.176-3.125.124-11.19 18.059-18.518 26.203-23.811 3.443-2.236 6.73-5.037 9.652-7.917a147.441 147.441 0 01-.438-6.644c-.286-5.939.311-11.741.503-17.662.027-.853-.224-5.013-.009-5.432.096-.187.282-.31.423-.466.09.063.123.081.209.184 1.417 1.692.565 9.209.482 11.671l3.248 2.786c3.723-3.573 7.025-7.886 10.434-11.769 4.674-5.323 9.522-10.491 14.178-15.824-9.713-8.691-18.578-16.73-30.202-22.945a82.742 82.742 0 00-11.751-5.22c-1.738-.607-4.827-1.175-6.245-1.956-.302-.167-.485-.506-.665-.784z" fill="#1E1E1E"/><path d="M77.948 210.191c.197-.022.406-.052.605-.035.418.038.838.27 1.077.617.323.47.303 1.055.164 1.58-.258.978-.723 1.424-1.565 1.94-.584-.04-1.081-.036-1.596-.352-.075-.476.14-.679.34-1.089.445-.916.41-1.229.068-2.193-.026-.074-.054-.147-.081-.221l.988-.247zm113.799-80.647c1.152.495 4.834 4.152 6.038 5.208-3.111 3.402-6.072 6.932-9.163 10.349a365.195 365.195 0 01-15.686 16.381l-.21.039c-1.474-.67-4.03-3.505-5.606-4.65 2.39-2.334 4.486-5.111 6.706-7.62 5.869-6.634 11.676-13.424 17.921-19.707zm-46.799 77.415l.166.1c.333.652.972 1.756 1.568 2.194.853.627 2.491.334 3.497.208-.963.765-1.985 1.651-2.373 2.866-.252.789-.231 2.228.223 2.956 1.661 2.668 5.633-.027 7.094.457-.052.887-.111 1.588.517 2.295.824.927 2.004 1.054 3.167 1.16 2.333 7.004 3.931 14.133 5.103 21.418l-1.957-1.138c-11.001-7.269-18.72-18.803-23.394-30.984 2.156-.468 4.278-.876 6.389-1.532z" fill="#60A4FF"/><path d="M79.948 207.234c2.298.599 4.773.854 7.121 1.239-5.804 13.274-13.465 24.54-26.491 31.706l-1.474.784c.29-2.776.94-5.566 1.482-8.305.878-4.435 1.727-8.892 3.109-13.203 1.557.576 3.117.856 4.687.137.733-.335 1.352-.909 1.604-1.689.39-1.204-.136-2.271-.702-3.31.87.211 1.814.466 2.713.485 1.056.021 2.546-.324 3.546-.073.886.221 1.31.89 2.338.792.99-.094 1.869-.606 2.491-1.372a4.43 4.43 0 00.96-2.356 4.43 4.43 0 00-.002-.859c-.105-.977-.47-1.362-1.216-1.947-.033-.026-.474-.361-.52-.419-.225-.285.233-1.255.354-1.61z" fill="#60A4FF"/><path d="M162.521 154.889c3.735 2.347 6.564 6.037 10.28 8.397.674-.49 1.276-1.127 1.886-1.696 2.723 2.789 5.528 5.583 8.048 8.556-2.256 3.401-5.034 6.644-7.547 9.865-2.378 2.906-4.714 5.869-7.268 8.622-1.265-1.267-2.355-2.06-3.994-2.786-.063-4.799-.628-9.599-1.001-14.381a142.838 142.838 0 01-.404-16.577zm-.935 16.708c.486 6.262 1.832 14.332.14 20.363-4.385-.061-11.709-.661-15.209 2.663-.519.492-.856 1.083-.865 1.811-.011.925.524 2.058 1.206 2.673 1.062.96 2.685 1.145 4.05 1.331-2.701 1.387-4.561 2.479-5.962 5.287-5.13 1.272-10.812 2.294-16.087 2.618-.179-.595-1.45-1.38-1.952-1.894-.922-.943-1.19-1.831-1.176-3.124.124-11.19 18.059-18.519 26.203-23.811 3.442-2.237 6.73-5.037 9.652-7.917z" fill="#EBFDFF"/><path d="M121.651 210.236c5.201-.097 10.301-.846 15.434-1.591 4.845 13.18 14.171 27.345 27.121 33.613.67 6.735 1.354 13.351 1.293 20.124-.008.879-.276 3.197.446 3.753.103.079.265.17.381.238-.506 1.918-.896 2.868-2.681 3.909-10.124 5.904-25.413 9.595-36.975 10.855-2.039.222-4.705.686-6.705.196-.343-.084-.532-.189-.761-.466-.334.04-.546.033-.871-.056-1.275-1.468-3.873-9.076-3.872-11.004-1.187-.823-2.132-1.82-3.11-2.871l-4.37 3.936c-.388 2.379-1.139 7.05-2.304 9.054-.481.304-.506.24-1.077.145l-.075-.054c-.553.189-.968.557-1.434.903-1.181.185-2.376.141-3.563.063-10.326-.676-36.501-7.983-43.243-15.618a27.376 27.376 0 00-.161-2.031c.489-.15.797-.157 1.138-.556.386-2.335.519-4.707.782-7.058.497-4.449 1.063-8.95 1.848-13.359 12.518-4.926 22.524-17.445 27.818-29.567a100.09 100.09 0 001.684-4.118c6.354.839 12.658 1.434 19.067 1.596-.046 5.915-.055 11.831-.025 17.747.018 4.138-.023 8.289.292 12.417a126.428 126.428 0 002.412 16.244c.296 1.419.617 4.32 1.502 5.355l.477.05c.34-.366.343-.622.345-1.105.006-2.24-.922-4.966-1.381-7.202a109.15 109.15 0 01-1.609-10.214c-.569-5.404-.542-10.828-.581-16.254-.041-5.642-.103-11.294-.044-16.936 3.837.117 7.616.106 11.449-.033l.012 16.566c-.001 3.068.315 6.427-.262 9.433-.323 1.682-1.04 3.317-2.259 4.541-1.205 1.21-3.353 1.722-4.299 3.063l.09.208.031-.199.112.15-.058.154c.452.277.788.347 1.306.235 2.044-.445 4.22-2.784 5.238-4.549a10.848 10.848 0 00.876-1.923 11.148 11.148 0 00.496-2.054c.453-3.1.155-6.471.132-9.607l-.062-16.123z" fill="#60A4FF"/><path d="M105.185 272.306c-1.113.989-4.069 4.162-5.386 4.109-.286-.012-.215-.021-.456-.217.112-1.46 3.678-3.941 4.892-4.982 2.17-1.86 5.001-4.857 7.546-6.007 2.549 2.963 5.226 5.279 8.347 7.607.576.429 1.626 1.06 1.827 1.767-.339.386-.34.36-.854.428-1.772-.584-3.676-2.443-5.175-3.586.902 1.869 3.443 7.588 3.278 9.443-.334.04-.547.033-.871-.056-1.275-1.468-3.873-9.076-3.872-11.004-1.187-.823-2.132-1.82-3.11-2.871l-4.371 3.936c-.388 2.379-1.138 7.05-2.303 9.054-.481.304-.506.24-1.077.145.462-2.603.99-5.191 1.585-7.766zm-6.564-260.25c-.25-.203-.455-.252-.49-.595-.082-.829.671-1.718 1.202-2.284 3.579-3.818 12.059-4.83 16.994-4.858 9.951-.057 20.065 3.728 27.142 10.827a36.9 36.9 0 014.566 5.57 34.575 34.575 0 011.417 2.304 34.433 34.433 0 01.849 1.592 39.848 39.848 0 01.769 1.63 40.467 40.467 0 01.688 1.668 36.94 36.94 0 011.561 5.176 37.967 37.967 0 01.49 2.66 38.546 38.546 0 01.293 2.688 38.604 38.604 0 01.084 1.802c.007.3.01.6.009.902-.018 3.29-.526 6.58-1.297 9.773 1.838 1.738 3.017 3.52 3.129 6.138.124 2.927-1.041 5.972-3.066 8.085-1.82 1.898-3.927 2.499-6.465 2.744-2.103 9.043-7.433 16.915-15.379 21.84a78.431 78.431 0 01-4.093 2.327c.034 1.037.04 2.079.201 3.105 1.819.137 8.018.381 9.069 1.614.195.229.31.543.425.816 1.439 3.571.736 7.592-.715 11.039-1.851 4.398-5.155 9.157-8.854 12.195-4.963-1.091-9.214-3.461-13.476-6.15-.694.669-1.407 1.324-2.071 2.022l-.021 17.032c.004 1.972-.302 4.586.1 6.492.649.435 1.271.74 1.537 1.518-.063.526-.077.655-.38 1.082-.59.122-.947.012-1.477-.288-.447-.512-.77-.919-.898-1.599-.434-2.307-.176-4.988-.174-7.344.004-5.275.099-10.556.069-15.831-2.945 1.623-5.723 3.114-9.182 2.048-5.08-1.566-9.764-7.1-12.08-11.684-1.566-3.099-2.285-6.181-2.124-9.643-15.778 2.093-29.98 11.267-41.407 21.899-2.953 2.747-5.988 5.642-8.448 8.85 7.601 6.657 14.747 13.952 20.769 22.092 1.317 1.781 2.798 3.707 3.725 5.716-.055.334-.08.5-.29.776-.9 1.183-4.93 4.757-6.296 4.801-1.03.033-1.467-.404-2.18-1.096-2.826 2.715-5.437 5.79-7.79 8.921 5.415 5.961 9.618 13.389 13.007 20.652.477 1.021 1.517 2.391 1.458 3.553-.014.276-.196.355-.38.535-1.253-.259-1.924-2.543-2.428-3.627-3.806-8.184-10.467-19.918-18.217-24.705-.99-.612-2.065-1.162-3.182-1.498-1.228-.371-3.183-.231-4.2-1.03-.232-.183-.157-.166-.18-.495.286-.338.47-.454.93-.463 4.787-.1 8.784 3.056 12.15 6.052a130.825 130.825 0 017.731-8.82c-6.642-7.131-13.122-14.363-19.93-21.343-5.99 5.474-11.976 13.001-15.005 20.556-1.431 3.571-2.262 7.359-1.748 11.21 1.61 12.079 15.298 25.524 25.065 32.176a73.26 73.26 0 006.02 3.685c.92.503 2.042.886 2.88 1.507.525.388.93.749 1.186 1.354l-.156.152c-4.626-.024-17.846-10.78-21.364-14.142-7.069-6.756-14.978-16.68-15.157-26.841-.208-11.884 9.415-22.615 17.225-30.619-.864-.786-1.91-1.567-2.427-2.627.11-.701.666-1.279 1.123-1.797 1.475-1.672 3.214-3.605 4.957-4.982.43-.34.696-.124 1.102-.325.333-.164.86-.773 1.13-1.051 1.963-2.012 3.755-4.185 5.764-6.156 8.995-8.825 19.544-16.607 31.49-20.897 3.641-1.308 7.273-2.192 11.035-3.05 5.142-1.171 10.013-2.288 15.293-2.618.046-.898.008-1.795-.016-2.694-11.124-5.704-16.454-12.11-20.595-23.9-.833-.058-1.68-.107-2.497-.29-2.229-.502-4.02-2.027-5.246-3.907-1.717-2.632-2.454-6.039-1.736-9.118.627-2.687 2.16-4.376 4.429-5.806a48.103 48.103 0 01-.39-8.634c.386-8.593 4.26-17.37 10.671-23.176 2.424-2.195 5.769-4.503 9.172-4.334.894.065 1.675-.237 2.555-.232.114.152.29.434.446.56.217.174.352.236.623.194.562-.086 1.186-.305 1.525-.78l-.059-.325-.489-.275z" fill="#1E1E1E"/><path d="M97.228 96.51c.484-.028.99-.094 1.464.03.271.07.278.197.418.416-.093.754-.708 1.5-1.113 2.133l-.31.25-.279-.115c-.452-.828-.598-1.545-.534-2.485l.354-.23z" fill="#EBFDFF"/><path d="M35.285 129.753c6.675 3.738 21.19 20.647 24.927 27.366-1.592 1.399-4.25 3.023-5.281 4.824-2.046-2.703-4.71-5.177-6.993-7.699-5.854-6.467-11.633-13.151-18.268-18.837 2.077-1.611 3.82-3.733 5.615-5.654z" fill="#60A4FF"/><path d="M124.011 92.528c.275-.024.593-.077.867-.053.673.06.552.641.647 1.212.485 2.881 1.023 5.008 3.089 7.204-3.148 5.954-8.463 8.27-14.597 10.278-3.355-1.227-6.48-1.927-9.638-3.719-2.653-1.688-4.655-3.502-6.268-6.228 1.925-2.915 3.3-5.005 3.349-8.63 6.324 2.057 12.252 2.785 18.822 1.367 1.163-.251 3.083-.427 3.729-1.431z" fill="#EBFDFF"/><path d="M95.29 96.707c.722 1.89.763 3.763 1.803 5.624 3.52 6.304 10.509 8.484 17.016 10.295 4.027-1.113 8.074-2.71 11.306-5.418 3.375-2.826 4.961-5.899 5.339-10.261 1.54.24 3.072.52 4.598.838.066.228.129.458.187.688 1.356 5.241-.591 9.552-3.244 14.019a34.426 34.426 0 01-5.512 6.778c-5.025-1.185-8.819-4.254-13.462-6.217-1.189 1.048-2.327 2.184-3.566 3.169-1.913 1.518-4.491 2.823-6.994 2.47-3.826-.54-7.81-4.646-10.013-7.582-2.811-3.748-4.84-8.461-4.138-13.207 2.184-.537 4.451-.913 6.68-1.196zm3.33-84.652c.945-.336 1.538-1.697 2.312-2.396.619-.56 1.436-.916 2.191-1.26 9.031-4.1 20.615-3.142 29.422 1.026a32.333 32.333 0 011.544.764 36.454 36.454 0 011.505.84 33.094 33.094 0 011.46.913 33.905 33.905 0 012.776 2.038 33.34 33.34 0 011.943 1.703 33.919 33.919 0 011.222 1.214 38.228 38.228 0 011.16 1.274 37.142 37.142 0 011.096 1.33 32.667 32.667 0 011.028 1.38 34.048 34.048 0 011.411 2.166 35.327 35.327 0 012.638 5.413c.103.268.203.537.299.808 2.324 6.609 2.526 13.377 1.077 20.2-1.925-.814-3.923-1.125-5.925-.319a5.013 5.013 0 00-1.81 1.215c-.329.258-.562.458-.97.578-.704-1.45-1.163-3.065-1.69-4.589-.856-2.456-2.039-5.19-2.292-7.783-4.869.546-9.414.007-14.212-.77-6.804-1.1-14.082-3.638-19.227-8.395-1.948-1.802-3.536-3.892-5.081-6.035a175.043 175.043 0 00-9.845 15.851c-2.436 4.349-4.714 8.98-7.563 13.067-.986.147-1.8-.566-2.566-1.097-.03-.495-.12-.773-.446-1.15-1.007-1.157-2.775-1.108-4.183-1.173-.398-3.875-.436-7.92.152-11.776 1.144-7.499 5.626-16.18 12.085-20.45 1.525-1.009 4.655-2.01 5.67-2.84.216-.177.185-.618.219-.89.893.066 1.675-.236 2.555-.23.114.152.29.433.446.56.217.174.351.236.623.194.561-.087 1.185-.306 1.525-.78l-.059-.326-.49-.275z" fill="#60A4FF"/><path d="M142.311 45.605c.538 1.574 1.005 3.231 1.658 4.758-.329.258-.561.459-.97.579-.704-1.45-1.163-3.066-1.69-4.59.443-.174.669-.418 1.002-.747zM84.615 33.791c.387.193.638.335.921.665-.019 1.763-2.913 5.547-3.173 7.929-.268 2.45.154 4.33.11 6.63-.009.49-.13.514-.469.848-.264-.131-.578-.265-.785-.48-.556-.578-.82-1.99-.872-2.766-.284-4.23 1.56-9.6 4.268-12.825z" fill="#1E1E1E"/><path d="M100.497 23.37c-.121-.579-.201-.953-.016-1.538l.341-.21c1.288.347 3.624 4.395 4.7 5.516a25.301 25.301 0 003.654 3.104c4.588 3.22 9.889 4.782 15.317 5.893-3.419-2.426-6.225-5.216-8.279-8.905-.381-.684-.92-1.615-.991-2.396-.028-.302.017-.453.144-.717.387-.18.42-.17.843-.095 1.18 1.028 1.715 3.037 2.573 4.351 1.211 1.854 2.805 3.531 4.48 4.97 4.828 4.146 8.091 4.194 14.179 3.779l.157-.012c-4.026-1.14-7.545-3.084-9.616-6.868-.399-.728-.943-1.982-.677-2.835.043-.139.106-.221.182-.337.464.022.607.186.895.533.852 1.032 1.421 2.29 2.199 3.376 1.994 2.785 5.527 4.56 8.869 5.02.909.125 2.383.115 2.987.891-.02.367.058.325-.252.594-.674.586-1.546.714-2.396.87.88 2.404 1.72 4.82 2.521 7.252-.333.328-.559.572-1.002.747-.856-2.455-2.039-5.19-2.292-7.783-4.869.546-9.414.007-14.212-.77-6.804-1.1-14.082-3.638-19.227-8.395-1.948-1.802-3.536-3.892-5.081-6.035z" fill="#1E1E1E"/><path d="M100.497 23.37c1.545 2.144 3.134 4.233 5.082 6.035 5.144 4.758 12.422 7.294 19.226 8.396 4.799.776 9.344 1.315 14.212.77.253 2.592 1.436 5.327 2.292 7.782.527 1.524.986 3.14 1.69 4.59-.32.582-.33.618-.251 1.277l.26.362c2.306-.084 4.95-5.559 9.731-1.036 1.439 1.36 1.973 3.372 1.984 5.3.014 2.703-1.086 5.522-3.02 7.428-1.251 1.234-2.985 2.124-4.773 2.111-.512-.004-.953-.1-1.437-.253-2.634 9.816-6.899 17.672-16.014 22.909a33.085 33.085 0 01-2.113 1.1 31.404 31.404 0 01-2.188.943 33.276 33.276 0 01-2.252.78 32.272 32.272 0 01-5.43 1.165 34.686 34.686 0 01-1.58.161 31.183 31.183 0 01-1.587.084 31.776 31.776 0 01-3.175-.066 33.525 33.525 0 01-2.369-.252 32 32 0 01-2.345-.426 35.423 35.423 0 01-1.543-.378c-9.014-2.497-16.174-8.779-20.7-16.86-1.538-2.746-2.652-5.619-3.576-8.62-2.372.079-4.234-.008-6.102-1.685-1.997-1.791-3.134-4.738-3.244-7.395-.088-2.146.575-4.344 2.052-5.938.915-.989 2.102-1.615 3.462-1.65 1.3-.032 2.65.5 3.734 1.188.767.53 1.58 1.243 2.567 1.096 2.848-4.087 5.126-8.718 7.562-13.066a175.05 175.05 0 019.845-15.851z" fill="#EBFDFF"/><path d="M78.38 60.563c.066.01.133.017.2.031.591.128.858.409 1.186.896.092.623.072.723-.166 1.309-.222.005-.357.017-.587-.022-.495-.083-.71-.32-.989-.703-.09-.637.084-.96.356-1.511zm-.993-.875c.354.468.49.512.45 1.116l-.327.254c-.237-.012-.291 0-.54-.086-.58-.197-1.203-.973-1.477-1.493-.616-1.165-.67-2.809-.194-4.034.257-.663.857-1.176 1.523-1.4.573-.194 1.492-.23 2.01.141.445.319.47.476.602.977-.123.48-.222.703-.564 1.063l-.323-.007c-.331-.391-.585-.738-1.074-.941-.429.144-.566.181-.83.58-.399.605-.213 1.444-.113 2.105.171.787.352 1.105.857 1.725zm28.074 9.834c.987.546 1.638 1.926 2.484 2.734 2.321 2.218 6.634 2.613 9.435.972.889-.52 2.092-1.916 3.103-1.931l.212.23c-.02.504-.148.808-.344 1.262-1.379 1.485-3.172 2.35-5.164 2.657-2.999.464-5.939-.307-8.374-2.112-.84-.623-1.707-1.47-1.79-2.581-.049-.653.059-.717.438-1.231zm42.363-15.553c.447.01.959-.006 1.383.15.636.233 1.126.806 1.355 1.43.624 1.702-.129 3.587-.832 5.134-.888.449-1.609 1.11-2.367 1.745-.508.23-.869.41-1.445.367-.401-.337-.382-.385-.499-.903.275-.477.411-.497.887-.763.132-.073.649-.34.702-.457.204-.452-.859-4.6-.219-5.957.235-.497.568-.546 1.035-.746z" fill="#1E1E1E"/><path d="M148.296 55.122c.086.031.174.057.258.093.465.198.657.424.834.895.46 1.228-.422 2.83-.966 3.911l-.413.046c-.322-.733.042-4.107.287-4.945z" fill="#EBFDFF"/><path d="M97.323 50.836c.423-.023.87-.05 1.29.015.692.11 1.35.608 1.759 1.158.665.895.812 2.063.608 3.136-.23 1.214-.844 1.918-1.823 2.621-.3.014-.613.03-.912-.006-.708-.086-1.384-.565-1.823-1.108-.692-.855-.92-1.992-.795-3.07.15-1.31.694-1.948 1.696-2.746zm29.705.014c.349-.017.7-.035 1.05-.013.753.048 1.441.474 1.907 1.057.675.842.875 1.97.701 3.02-.218 1.319-.84 2.167-1.92 2.91-.32.044-.659.097-.983.082-.692-.033-1.383-.542-1.793-1.07-.713-.922-.871-2.19-.699-3.315.19-1.233.75-1.95 1.737-2.671zm-28.571-9.434c.904-.036 1.878-.12 2.758.124.752.208 1.734.815 2.041 1.565.174.423.091.6-.079.976-.983.8-4.376.347-6.262.981l-.241.084c-.808.443-1.963 1.276-2.924 1.223-.466-.026-.644-.123-.95-.46-.096-.57.05-1.001.35-1.485 1.157-1.858 3.285-2.573 5.306-3.008zm27.055 0c2.304-.14 4.213-.023 6.187 1.348.821.57 2.16 1.821 2.212 2.91.025.519-.071.644-.354 1.046-.518.156-.61.106-1.139-.044-1.264-.85-2.624-1.735-4.133-2.054-1.695-.357-3.44.312-4.961-.782-.196-.384-.321-.487-.134-.915.403-.926 1.444-1.264 2.322-1.51z" fill="#1E1E1E"/><path d="M94.45 59.476c1.167-.01 2.433.12 3.448.734.834.505 1.46 1.277 1.683 2.235.234 1.005.001 2.051-.551 2.912-.912 1.419-2.241 1.944-3.82 2.266-1.231-.033-2.43-.203-3.48-.89-.92-.604-1.605-1.528-1.766-2.631a3.616 3.616 0 01.196-1.821 3.554 3.554 0 01.33-.662c.066-.104.138-.205.214-.302.954-1.23 2.265-1.629 3.746-1.84zm34.345.355c1.22-.099 2.411-.21 3.599.178 1.192.392 2.272 1.171 2.838 2.315.411.83.49 1.758.133 2.623-.563 1.36-1.789 2.15-3.098 2.677-1.53.257-2.971.253-4.387-.459-1.109-.558-2.009-1.515-2.369-2.715-.26-.864-.222-1.817.24-2.608.659-1.128 1.844-1.668 3.044-2.01z" fill="#FEC636"/><path d="M136.718 97.58c.702-.026 4.773.177 5.035-.045.18.278.363.617.665.783 1.417.782 4.507 1.35 6.245 1.957a83.34 83.34 0 0111.751 5.219c11.624 6.216 20.489 14.255 30.202 22.946-4.657 5.333-9.504 10.501-14.178 15.824-3.409 3.883-6.711 8.196-10.434 11.768l-3.248-2.785c.083-2.462.935-9.979-.482-11.671-.087-.104-.119-.121-.209-.184-.141.156-.327.279-.423.466-.215.419.036 4.579.008 5.432-.191 5.921-.788 11.723-.502 17.662.096 2.218.242 4.433.438 6.644-2.922 2.88-6.21 5.68-9.652 7.917-8.144 5.293-26.079 12.621-26.203 23.811-.014 1.293.254 2.182 1.176 3.125.502.513 1.773 1.298 1.952 1.893-15.603 1.419-33.93.719-49.252-2.695-1.249-2.424-3.342-3.476-5.667-4.663 1.843-.212 4.392-.3 5.861-1.538.6-.506.965-1.299.974-2.084.01-.832-.43-1.506-1.03-2.044-4.246-3.798-11.785-3.613-17.13-3.472.346-1.942.38-3.971.471-5.94.013-.011.027-.02.039-.031.87-.824.843-2.044.955-3.161a5 5 0 00-.872-1.059c.038-.032.081-.06.114-.097.007-.008.235-.329.243-.349.118-.298 2.084-16.85 2.154-17.977.196-3.158.116-6.34.089-9.503-.034-2.288-.296-9.715-1.601-11.194-.502-.056-.495-.027-.919.257-.07.159-.113.226-.121.42-.048 1.161.469 2.683.66 3.84.366 2.196.544 4.521.525 6.75-1.009.85-2.378 1.725-2.699 3.073l-.041.15c-.927-2.009-2.408-3.935-3.725-5.716-6.022-8.14-13.168-15.435-20.77-22.092 2.46-3.208 5.496-6.103 8.449-8.85 11.426-10.632 25.628-19.806 41.407-21.899-.16 3.462.558 6.544 2.123 9.643 2.317 4.584 7.001 10.118 12.08 11.684 3.459 1.066 6.238-.425 9.182-2.048.031 5.275-.064 10.556-.069 15.831-.001 2.356-.26 5.037.174 7.344.128.68.452 1.087.899 1.599.53.3.887.41 1.477.288.303-.427.317-.556.38-1.082-.266-.778-.889-1.083-1.537-1.518-.402-1.906-.097-4.52-.1-6.492l.021-17.032c.664-.698 1.377-1.353 2.07-2.022 4.262 2.689 8.514 5.059 13.477 6.15 3.699-3.038 7.003-7.797 8.854-12.195 1.451-3.447 2.154-7.468.714-11.039z" fill="#EBFDFF"/><path d="M117.072 132.361c.097.03.194.057.289.089.608.207 1.076.497 1.321 1.134.182.47.133.961-.087 1.405-.341.689-.852.935-1.532 1.195-.182-.047-.215-.051-.415-.123-.623-.222-1.11-.509-1.348-1.175-.165-.465-.108-.913.119-1.341.383-.723.919-.939 1.653-1.184zm-.808-10.774l.331-.032c.683-.06 1.287.018 1.789.535.333.344.484.811.431 1.286-.089.786-.553 1.21-1.14 1.675-.742.052-1.389.05-1.973-.481a1.524 1.524 0 01-.502-1.22c.03-.807.492-1.263 1.064-1.763zm39.548 14.591c.178.065.324.211.473.327.757 1.905.317 17.51.193 20.443-2.152 2.573-9.968 7.853-13.089 10.059-3.008-1.784-5.87-4.015-8.775-5.979-1.826-1.259-3.787-2.376-5.513-3.769-.061-2.908.076-17.019.795-19.012.305-.236.525-.34.918-.344 1.713-.019 3.564.295 5.28.444 3.696.321 7.367.485 11.071.139 3.145-.293 5.762-1.062 8.647-2.308z" fill="#1E1E1E"/><path d="M154.751 138.199l.19.015c.398.504.153 16.051.147 18.085-2.729 2.651-8.625 6.709-11.921 8.882a111.333 111.333 0 00-7.77-5.489c-1.578-1.088-3.183-2.142-4.775-3.21.097-5.715.252-11.428.464-17.14 7.702 1.179 16.272 1.585 23.665-1.143zm-88.943 15.53a38.325 38.325 0 013.03-1.528c10.854-4.942 22.95-7.815 34.752-9.273 2.046-.253 5.015-.917 6.966-.185 1.57 2.608.336 8.308-.358 11.084a42.367 42.367 0 01-.881 2.991 40.634 40.634 0 01-.708 1.956 44.957 44.957 0 01-1.238 2.862 40.295 40.295 0 01-.94 1.855c-.164.305-.332.608-.504.909a42.009 42.009 0 01-1.642 2.651 41.875 41.875 0 01-1.83 2.525c-.214.273-.431.543-.651.811a46.125 46.125 0 01-1.36 1.572 41.42 41.42 0 01-1.435 1.505 42.126 42.126 0 01-3.892 3.441 42.508 42.508 0 01-4.282 2.943c-6.292 3.722-15.326 6.646-22.64 4.689-1.435-.385-2.893-.972-4.115-1.824a4.97 4.97 0 00-.871-1.058c.037-.032.08-.06.113-.097.007-.008.235-.329.243-.349.118-.298 2.084-16.85 2.154-17.977.196-3.158.116-6.34.089-9.503z" fill="#EBFDFF"/><path d="M111.509 41.209c2.266 6.122 4.515 12.198 6.342 18.47.285.98-.535 1.675-1.066 2.444-1.004 1.451-1.981 2.92-2.977 4.376" stroke="#1E1E1E" stroke-width="1.5" stroke-linecap="round"/></svg>