<svg width="176" height="246" fill="none" xmlns="http://www.w3.org/2000/svg"><path d="M29.37 118.459a22.92 22.92 0 01-1.598-.944 23.941 23.941 0 01-3.629-2.878 24.435 24.435 0 01-1.283-1.34 23.233 23.233 0 01-1.719-2.187 24.815 24.815 0 01-.998-1.564 23.566 23.566 0 01-.874-1.636c-4.296-9.06-2.023-18.2 4.579-25.41 3.767-4.115 8.077-7.064 9.899-12.686 1.452-4.483 1.699-9.097 2.19-13.732.611-5.776 1.56-11.4 3.544-16.877C44.053 26.587 54 16.27 66.111 10.647c12.317-5.718 27.146-6.257 39.733-1.07 1.835.756 3.686 1.648 5.326 2.775 1.076.74 2.097 1.702 3.278 2.272 1.607.775 3.6.974 5.293 1.602 8.205 3.042 13.689 10.75 17.155 18.412 1.226-1.743 2.045-2.614 4.091-3.255.505.099 1.034.21 1.519.383 1.033.368 1.883 1.305 2.305 2.297.985 2.314.279 4.762-.617 6.96.604.027 1.166.093 1.746.272 1.273.392 2.582 1.234 3.169 2.468.304.64.38 1.373.124 2.043-.318.834-1.069 1.455-1.861 1.822-2.411 1.116-5.042.084-7.331-.81 1.763 6.415.935 13.443 3.665 19.575 1.485 3.336 3.884 5.711 6.414 8.248 6.187 6.205 10.701 12.25 10.749 21.405.037 7.096-2.393 11.812-7.286 16.733-.911 3.478-2.04 6.482-4.502 9.173-3.739 4.085-8.162 5.466-13.536 5.731 6.327 5.167 11.364 12.027 14.994 19.302 5.967 11.956 10.619 31.175 6.223 44.116-3.129 9.21-9.988 15.049-18.491 19.23.728 2.386 2.29 6.725 2.157 9.148-.029.529-.282.689-.635 1.032-1.97 2.092-4.89 3.469-7.448 4.728-12.9 6.349-27.681 9.407-41.997 9.848-18.352.564-37.232-3.008-52.141-14.214a4.161 4.161 0 01-.757-.566c-.217-1.665 1.554-7.58 2.016-9.681-7.37-1.982-13.61-5.181-18.164-11.537-5.93-8.277-6.471-19.754-4.84-29.508a63.315 63.315 0 01.959-4.625 62.589 62.589 0 01.827-3.039 64.861 64.861 0 011.518-4.473 64.457 64.457 0 013.249-7.167 64.214 64.214 0 015.02-7.995 63.415 63.415 0 013.978-4.882 64.226 64.226 0 0110.566-9.404c-1.285-.242-2.541-.503-3.777-.938-4.315-1.52-7.488-4.486-9.433-8.599z" fill="#1E1E1E"/><path d="M77.91 174.922c.039-.937.03-1.956-.293-2.847-.152-.42-.349-.77-.185-1.202.423-.039.685.173 1.028.384.102 1.137-.253 2.322-.287 3.475l-.005.186-.258.004zm65.938-132.72c1.214-.005 2.461.205 3.378 1.068.444.417.76.985.759 1.606-.001.521-.214.98-.597 1.334-.876.809-2.136.758-3.247.725-1.68-.235-3.063-.835-4.578-1.572 1.488-.948 2.724-2.363 4.285-3.161zm-6.253 4.183c.421-.036.726-.162 1.081.09 1.494 4.106 1.363 8.804 1.961 13.091.185 1.324.536 2.572.856 3.865-1.123-1.417-2.217-2.738-3.617-3.896.437-2.69.542-5.355.269-8.072-.165-1.63-.464-3.25-.542-4.888l-.008-.19zM78.168 174.919c.087.259.163.507.227.773.266 1.105.893 2.826 1.9 3.451 1.146.713 2.994 1.015 4.326 1.227-2.034.856-6.297 3.129-8.527 2.26-.374-.146-.615-.349-.807-.704.123-2.399 2.155-4.591 2.623-7.002l.258-.005zM140.47 32.725c.287-.024.572-.047.861-.032.808.04 1.587.403 2.098 1.041.732.916.77 2.31.668 3.42-.224 2.44-1.403 4.176-3.21 5.726-.433.368-.928.683-1.391 1.012-.743-2.434-1.722-6.273-1.05-8.747.328-1.207.957-1.827 2.024-2.42z" fill="#EBFDFF"/><path d="M48.468 183.141c.273-.847.785-1.717 1.23-2.486 1.732-2.982 7.242-9.961 10.625-10.849-3.09 3.147-5.68 7.06-5.603 11.658.028 1.65.557 2.983 1.205 4.466-2.54-.776-4.936-1.949-7.457-2.789z" fill="#60A4FF"/><path d="M119.13 17.203c6.516 2.143 12.09 8.417 15.094 14.386 2.025 4.025 3.419 8.73 4.226 13.162l-1.572.618c-.772-1.291-2.328-6.61-3.066-8.497a45.876 45.876 0 00-10.34-15.868c-1.334-1.311-2.908-2.362-4.228-3.685l-.114-.116z" fill="#EBFDFF"/><path d="M92.053 213.845c1.27.353 2.505.886 3.778 1.254 4.068 1.177 7.981.909 12.072.079-.439 1.505-.954 2.687-1.878 3.955-1.02 1.12-2.198 1.965-3.684 2.346-1.966.504-4.133.096-5.857-.946-2.47-1.493-3.755-3.983-4.43-6.688z" fill="#60A4FF"/><path d="M104.147 158.369c.469.126.962.242 1.392.472.582.312.968.782 1.142 1.42.357 1.302.159 2.889-.551 4.04-1.814 2.939-8.98 4.381-12.26 5.168-.381.109-.677.182-1.078.185-1.017-.625-1.203-2.6-1.501-3.691.42-.084.84-.174 1.259-.269 5.138-1.178 8.745-2.77 11.597-7.325z" fill="#FEC636"/><path d="M105.041 33.683c.058.089.117.177.173.266 1.158 1.83 1.702 4.174 2.742 6.113 3.577 6.668 9.955 12.767 16.77 16.066 1.386.67 2.804 1.19 4.285 1.61 1.031.292 2.337.497 3.278.988-.618.334-1.04.638-1.471 1.2-3.79.067-7.568-1.294-10.838-3.136-7.575-4.264-12.687-12.558-14.957-20.806-.236-.858-.446-1.493.018-2.3z" fill="#EBFDFF"/><path d="M68.933 160.363c1.283.173 2.661 2.187 3.801 2.901 2.09 1.307 4.634 2.085 7.015 2.634a134.48 134.48 0 01-.795 3.968c-2.012-.209-3.207-.496-4.966-1.501-.564-.085-1.24-.228-1.79-.009-.794.315-1.069 1.042-1.349 1.784-1.868.654-3.604 1.362-5.31 2.373.055-2.421.551-4.846 1.05-7.21.387-1.832.667-3.85 2.344-4.94z" fill="#FEC636"/><path d="M158.22 104.513c-.492-.902-.372-5.208-.564-6.614-.392-2.877-1.273-5.965-2.276-8.678-2.712-7.332-7.018-10.982-10.446-17.305-.314-.579-1.487-2.39-1.48-2.971.002-.202.115-.387.172-.58 2.311 3.613 5.562 6.368 8.415 9.523 5.746 6.354 9.114 14.849 7.18 23.452a21.6 21.6 0 01-1.001 3.173zm-94.5-.586c1.04.483 2.055 1.328 3.033 1.941 1.441.9 2.952 1.632 4.485 2.36l.144 7.748a345.57 345.57 0 00-6.7 1.865l-5.748 1.931c4.046-4.461 4.833-10.076 4.785-15.845zm-38.597 10.042c-3.475-2.966-5.925-7.482-6.683-11.973-1.207-7.156 1.463-13.657 6.293-18.877 1.832-1.981 3.938-3.691 5.72-5.719 1.456-1.654 2.502-3.506 3.761-5.29.294.29.282.956.339 1.375-1.64 1.772-3 4.086-4.389 6.076-4.542 6.504-9.54 13.241-9.192 21.591.112 2.671.701 5.141 1.746 7.594.562 1.318 2.35 3.943 2.405 5.223z" fill="#EBFDFF"/><path d="M100.059 129.297c.757-.09 1.52-.126 2.279-.027 2.259.296 4.277 1.423 5.646 3.258 1.114 1.494 1.629 3.33 1.35 5.181-.452 2.997-2.663 4.906-4.928 6.635-1.495-3.824-3.405-6.166-6.717-8.556l-.428-.263-.009-.206c.416-.475.859-.911 1.397-1.248 1.656-1.039 3.878-1.015 5.427.229.487.391.912 1.191 1.514 1.338l.295-.208c.044-.166.097-.326.092-.502-.013-.435-.289-.896-.601-1.184-1.161-1.073-2.88-1.647-4.448-1.586-2.096.083-3.538 1.153-4.9 2.626l-2.43-1.172c1.69-2.378 3.6-3.664 6.461-4.315zm-31.662.16c.872-.059 1.746-.091 2.61.07 2.726.506 4.477 2.317 5.95 4.511-.903.439-1.782.945-2.666 1.424-.94-1.463-2.14-2.543-3.867-2.961-1.719-.416-3.69-.123-5.176.848-1.156.756-2.12 2.002-2.386 3.374-.115.593-.134 1.115.215 1.629l.286-.007c.734-.833.735-2.045 1.467-2.946 1.04-1.283 2.541-1.753 4.122-1.877.24.019.474.038.71.079 1.161.202 2.654 1.001 3.353 1.949.145.855-.757 1.392-1.325 1.944-2.279 2.214-3.53 4.375-4.626 7.34-.534-.169-1.087-.349-1.591-.593-1.818-.882-3.274-2.603-3.852-4.535-.617-2.061-.264-4.354.825-6.196 1.352-2.288 3.457-3.444 5.951-4.053z" fill="#60A4FF"/><path d="M115.237 101.639c.208 1.217.094 2.614.146 3.857.25 6.07 2.637 11.009 7.049 15.078l-7.703-2.179c-3.044-.929-6.185-1.674-9.272-2.448l.016-7.802c3.668-1.691 6.688-3.934 9.764-6.506z" fill="#EBFDFF"/><path d="M80.974 165.983c.73.313 2.517.449 2.914 1.069l-1.036.068-.038.117c.17.128.195.158.417.263 1.032.486 2.876.828 3.966.428.558-.205.731-.522.956-1.032l.064-.151c.467-.42 1.217-.425 1.818-.512.743 3.046 1.688 4.822 3.19 7.531.755 1.365 1.216 2.282.773 3.853-.227.348-.476.717-.796.987-1.795 1.517-6.438.764-8.647.524-1.45-.158-3.418-.69-4.306-1.946-1.57-2.222.302-8.623.725-11.199z" fill="#FEC636"/><path d="M64.327 168.647c.52.555-.818 3.59.234 4.893 1.229 1.52 4.993-2.391 6.922-2.137.532.07.918.32 1.21.763.38.576.398 1.271.252 1.927-.776 3.494-4.687 6.861-7.565 8.672-1.609.927-5.667 2.959-7.538 2.586-.457-.091-.689-.335-.948-.708-1.143-1.647-1.01-4.027-.58-5.896 1.05-4.558 4.157-7.686 8.013-10.1zm43.747-6.428c3.258 1.617 6.83 3.558 9.335 6.219 1.185 1.259 2.4 3.003 2.283 4.806-.08 1.244-.8 2.346-1.747 3.121-1.88 1.537-4.551 1.642-6.857 1.408-5.299-1.057-8.156-4.662-11.617-8.438 2.062-.635 4.298-1.257 6.085-2.504 1.748-1.219 2.161-2.633 2.518-4.612z" fill="#60A4FF"/><path d="M44.423 59.443c.657-.035 1.325.016 1.981.038-.154 3.796-.015 7.516.321 11.298-1.741-.7-4.993-2.42-6.793-2.266-.295.026-.194-.022-.37.172.667 1.441 4.598 2.583 6.12 3.211-1.111.856-2.082 1.416-2.963 2.56l.223.363-.364.009c1.401.178 3.247-1.41 4.35-2.193.29 2.103.72 4.188 1.146 6.266.253 1.094 1.003 2.586.674 3.675-.3.348-.55.506-1.003.579-2.422.392-5.21-.65-7.148-2.056-3.043-2.206-4.778-5.934-5.318-9.582-.427-2.885.045-5.838 1.846-8.196 1.838-2.408 4.36-3.502 7.298-3.878zm89.58.149c.675.036 1.353.06 1.994.296 1.984.733 3.639 2.784 4.546 4.652 1.519 3.13 1.519 6.626.394 9.88-1.171 3.384-3.517 6.64-6.82 8.198-2.109.994-4.438 1.2-6.644.395l1.075-4.064c.59-2.453.905-4.96 1.238-7.457.541-.053 1.077-.136 1.614-.214.948.474 2.339 2.044 3.36 1.99l.068-.267c-.451-1.221-1.099-1.649-2.091-2.416.933-.66 2.463-1.975 2.857-3.064.149-.412.096-.611-.069-1-.103-.065-.188-.192-.31-.196-.132-.005-.434.432-.488.513-1.276 1.888-2.422 2.91-4.702 3.415.314-3.134.375-6.293.445-9.44 1.151-.464 2.308-.991 3.533-1.22z" fill="#EBFDFF"/><path d="M69.793 202.092c3.974.576 7.968.887 11.983.932.523.742 1.01 1.37 1.69 1.979.384 1.439 1.067 2.71 1.786 4.003-.642 3.399-1.719 6.264-4.085 8.834-.68.626-1.405 1.184-2.221 1.623-1.823.983-3.954 1.234-5.939.612-1.693-.53-2.963-1.698-3.762-3.268-2.254-4.429-.824-10.246.548-14.715z" fill="#60A4FF"/><path d="M36.845 56.15c.774-11.725 5.229-23.522 13.113-32.296a49.932 49.932 0 012.621-2.713 49.34 49.34 0 012.816-2.51 50.768 50.768 0 016.152-4.355 51.064 51.064 0 014.433-2.373 51.42 51.42 0 013.467-1.485 49.99 49.99 0 014.777-1.57 49.952 49.952 0 013.672-.86 51.158 51.158 0 014.977-.719 50.137 50.137 0 012.509-.172c9.247-.446 21.415 2.098 28.413 8.412-.085 0-.171.004-.256.002-1.422-.036-5.953-2.111-7.642-2.711a53.106 53.106 0 00-4.322-1.332c-9.939-2.609-22.063-1.687-31.553 2.179-5.372 2.188-10.198 5.316-14.565 9.115-8.729 7.594-14.943 18.406-17.545 29.66-.14.604-.704 3.623-1.032 3.76l-.035-.031zm35.525 52.594c1.96.618 3.833 1.345 5.84 1.836 8.914 2.185 17.617 1.257 26.173-1.833-.041 2.606-.182 5.253-.072 7.855.241.293.428.516.569.873-.393 1.036-1.345 1.758-2.16 2.465-3.72 2.805-8.693 4.222-13.31 4.389-5.72.207-12.278-1.033-16.59-5.077-.463-.436-1.21-1.101-1.229-1.77l.641-.263c.406-.752.141-7.112.139-8.475z" fill="#EBFDFF"/><path d="M106.28 117.478c3.92.843 7.785 2.017 11.644 3.099-2.599 3.768-6.506 7.12-10.113 9.912a11.344 11.344 0 00-.262-.222c-2.069-1.693-4.527-2.576-7.229-2.265-3.55.409-5.8 2.571-7.878 5.275-4.984-1.66-9.563-1.222-14.539.221-.524-.959-1.146-1.877-1.899-2.672-1.774-1.875-4.005-2.657-6.528-2.703-1.486.109-2.765.43-4.127 1.031-2.552-2.528-5.13-4.924-7.565-7.578 3.843-1.823 8.208-2.958 12.328-3.961 1.27 2.281 3.228 3.825 5.485 5.07 6.028 3.325 14.172 3.596 20.687 1.684 4.049-1.187 7.902-3.073 9.996-6.891zm-33.523 52.051c.435.081.797.171 1.194.371 6.386 3.221-1.183 9.211.132 12.743.225.602.733.978 1.303 1.229 2.944 1.293 7.502-1.503 10.248-2.6.736-.294 1.614-.589 2.382-.264.462.545.566 1.239.74 1.916-.975.436-3.441 1.14-3.874 2.076l.203.215c1.973.215 4.472-1.351 6.384-1.943.934-.289 1.845-.537 2.743-.015.41.239.6.499.716.964.738 2.976-6.31 3.401-7.29 5.183l.144.302c2.132.52 5.232-2.744 7.72-1.884.44.152.57.339.794.728.019.314.004.558-.11.851-.693 1.77-2.884 2.467-4.483 3.119-1.068.455-4.202 1.131-4.828 1.799l.13.257c.724.321 1.735.221 2.53.301.702.07 1.175.147 1.639.715.122.386.145.644.028 1.028-.156.515-.591.862-1.049 1.107-1.773.951-4.672 1.256-6.58.726-.158.825-.267 2.077-.885 2.693-.76.759-3.412.462-4.43.401-3.13-.188-8.22-.332-11.023-1.449a7.035 7.035 0 01-1.529-.854 7.25 7.25 0 01-1.277-1.199c-2.878-3.384-2.777-8.024-2.4-12.178 1.91-.774 3.739-1.668 5.418-2.871 2.706-1.938 6.33-5.43 6.814-8.894.235-1.681-.371-2.244-1.271-3.522-.31-.439-.315-.508-.233-1.051z" fill="#EBFDFF"/><path d="M97.825 169.754l.149-.035c.803.304 3.295 3.434 4.039 4.28 4.061 4.614 6.324 11.918 5.928 18.021-1.444-1.004-3.287-2.023-5.057-2.263-.428-.058-.64-.047-.974.22.035.331-.074.37.257.505 1.118.453 2.328.867 3.394 1.423 2.307 1.204 4.779 3.493 6.031 5.801 2.369 4.368 1.774 9.601.42 14.182-4.986 2.142-9.572 3.155-14.976 1.941-4.598-1.032-8.959-3.255-11.533-7.323 1.68 1.072 4.428 3.07 6.46 3.062.416-.001.553-.091.824-.388.006-.556-.556-.624-1.026-.799-3.734-1.393-5.883-2.754-8.68-5.686l.086-.158c.727-.725 1.13-1.548 1.596-2.45 2.578 1.673 6.755 4.636 10.045 4.123l.111-.591.19.193c-.987-.977-3.127-1.031-4.404-1.606-1.52-.684-2.937-1.51-4.31-2.452 2.26-.252 3.947-.953 5.712-2.389 2.203 1.218 4.545 1.744 7.054 1.403 1.235-.168 3.195-.385 3.984-1.425.065-.387.08-.438-.074-.795-.527-.133-2.75.823-3.564.969-2.048.367-5.713.265-7.047-1.541-.355-.481-.43-1.205-.948-1.537a1.91 1.91 0 01-.508-.425c1.34-.738 2.827-1.266 4.24-1.849.179.345.368.684.567 1.018.933 1.535 2.373 1.917 4.005 2.302-1.313-1.174-2.683-2.224-3.841-3.561.682-.744 1.307-1.717 1.259-2.772-.057-1.249-1.126-1.784-1.915-2.56.591-.928.77-1.771.49-2.854-.181-.704-.614-1.218-1.261-1.54-1.537-.766-3.214-.167-4.701.383-.023-.076-.05-.152-.07-.23-.154-.608-.198-.931-.636-1.417-.034-.038-.07-.074-.105-.111.88-.534 3.06-.063 4.96-1.327.764-.508 1.345-1.177 1.518-2.098.435-2.321-1.035-4.611-2.296-6.417a59.149 59.149 0 004.607-1.227z" fill="#EBFDFF"/><path d="M84.553 133.508c.065-.008.129-.019.194-.024 4.848-.443 9.946 1.408 13.697 4.421 3.503 2.814 5.2 6.639 5.665 11.058.364 3.452.08 7.685-2.215 10.479-3.221 3.921-9.445 5.176-14.211 5.643-5.55.158-11.084-.418-15.577-3.999-2.71-2.161-4.132-4.923-4.502-8.358-.467-4.33.51-9.342 3.334-12.76 3.46-4.188 8.344-5.955 13.615-6.46z" fill="#60A4FF"/><path d="M99.143 150.821c.95-.102 1.603-.108 2.405.494.336.253.394.449.44.849-.244.39-.444.469-.846.658-.782.162-1.468.233-2.205-.168-.38-.206-.45-.393-.562-.792.132-.54.356-.711.768-1.041zm-28.08-.01c1.018.037 1.617.116 2.432.746.189.374.21.363.105.765-.391.42-.762.544-1.298.731-1.055.037-1.585.073-2.451-.602-.196-.427-.189-.401-.04-.848.408-.381.737-.578 1.252-.792zm24.476 3.242c1.445-.125 3.322-.148 4.486.866.291.254.474.586.515.972.061.575-.192 1.159-.584 1.569-.583.608-1.453.881-2.28.883-.884.003-1.524-.296-2.117-.944-.57-.624-.803-1.143-.933-1.975.23-.486.6-.933.913-1.371zm-16.956 2.159c-.104.577-.392 1.005-.821 1.398-.824.754-2.09 1.136-3.198 1.081-.814-.041-1.609-.358-2.143-.99-.4-.474-.63-1.108-.54-1.73.09-.613.472-1.106.975-1.447 1.12-.76 2.91-.736 4.18-.449.559.694 1.098 1.363 1.547 2.137z" fill="#60A4FF"/><path d="M91.211 150.157c-.296-.145-.473-.295-.584-.621-.165-.491-.054-1.081.163-1.537.39-.824 1.284-1.491 2.143-1.747.675-.2 1.404-.186 2.016.184.547.332 1.071.969 1.21 1.601.107.487.08.895-.195 1.297-.04.066-.083.132-.122.2-.14.244-.172.452-.22.725-.129.752-.705 1.709-1.384 2.093-.329.186-.644.156-.98.013-.85-.363-1.616-1.424-2.047-2.208zm-15.34.259c-.397-.766-.506-1.43-.251-2.271a2.8 2.8 0 011.66-1.773 2.86 2.86 0 012.067-.015c.632.241 1.389.827 1.63 1.478.333.901.264 2.201.164 3.144l-.163.254-.168-.528c.084-.469.06-.856.013-1.323l-.177.249a6.615 6.615 0 00-.475.84c-.29.577-.719 1.281-1.373 1.495-.742.244-1.632-.079-2.324-.348-.355-.328-.453-.758-.603-1.202z" fill="#1E1E1E"/><path d="M80.823 149.381c.048.468.071.854-.012 1.323-.084.338-.108.417-.017.749 1.044.239 2.853-.843 4.022-.981 1.96-.23 3.832.467 5.638 1.116.414-.224.432-.761.637-1.187l.12-.246c.43.785 1.197 1.846 2.048 2.209.336.143.65.173.98-.014.678-.384 1.254-1.341 1.384-2.092.047-.273.08-.481.22-.725.038-.068.08-.134.12-.2.575 1.02.798 1.883.444 3.033-.185.601-.545 1.152-.868 1.687-.313.438-.684.885-.912 1.371-.756.529-1.499 1.039-2.383 1.322l-.665.848c-.023.843-.233 1.683-.914 2.247-.633.525-1.537.536-2.305.376-.65-.136-1.365-.517-2.003-.578-.888-.086-3.278 1.671-4.32.284-.21-.279-.255-.832-.318-1.173.194-.347.07-.213.345-.422l-.127-.382c-.93-.619-2.27-1.464-3.353-1.735-.45-.773-.989-1.443-1.549-2.137-.329-.979-.764-1.377-.56-2.456.691.268 1.581.591 2.324.347.654-.214 1.083-.917 1.372-1.495.148-.294.287-.568.475-.84l.177-.249z" fill="#60A4FF"/><path d="M89.394 154.845c.586.729 1.246 1.777 2.257 1.876.24.023.36.022.593.026l-.665.848c-.508.463-.995.953-1.592 1.303.008-.434.041-.911-.054-1.336-.178-.789-.734-1.186-1.364-1.623.337-.34.572-.692.825-1.094z" fill="#60A4FF"/><path d="M82.064 158.328c.41.332.823.688 1.327.867.435.155 1.026.138 1.425-.129.618-.415 1.029-1.139 1.183-1.853-.36-.563-2.431-1.056-3.173-1.744-.37-.342-.681-.783-.647-1.312.034-.536.427-1.041.794-1.405.902-.893 2.129-1.413 3.406-1.368.868.031 1.719.333 2.31.989.675.749.753 1.504.705 2.471-.253.402-.488.754-.826 1.094.63.436 1.187.834 1.365 1.623.095.425.062.902.054 1.335.597-.349 1.083-.839 1.592-1.302-.023.843-.234 1.683-.914 2.247-.633.525-1.537.536-2.305.375-.65-.135-1.365-.516-2.003-.577-.888-.086-3.278 1.671-4.32.284-.21-.28-.255-.832-.318-1.174.194-.346.07-.212.345-.421z" fill="#1E1E1E"/><path d="M88.569 155.939c.63.436 1.186.834 1.364 1.623.095.425.062.902.054 1.335-.532.193-1.081.388-1.655.309-.528-.073-1.029-.28-1.34-.731-.216-.315-.204-.707-.098-1.06.262-.874.928-1.091 1.675-1.476zM34.553 73.486c1.127 3.9 3.139 7.456 6.808 9.446 2.503 1.358 5.311 1.708 8.065.974 2.697 7.281 6.867 14.226 13.128 19.002.14 5.659-.322 11.79-4.425 16.133-2.117 2.242-5.592 3.199-8.297 4.607-2.054 1.069-4.056 2.254-6.049 3.434-4.572-.629-8.682-2.268-11.557-6.05-2.293-3.016-3.29-7.013-3.109-10.769.042-.859.53-3.276.197-3.954-.061-.125-.174-.216-.26-.324l-.294-.032c-.604.512-.554 1.793-.615 2.532-.238 2.905-.067 5.482.665 8.301-1.306-.852-2.585-1.704-3.688-2.816-.054-1.28-1.842-3.905-2.404-5.223-1.045-2.453-1.634-4.923-1.746-7.594-.349-8.35 4.65-15.087 9.192-21.59 1.39-1.991 2.75-4.306 4.389-6.077z" fill="#60A4FF"/><path d="M133.999 167.223c1.806-.341 3.659-.437 5.474-.787 5.382-1.037 10.244-3.069 15.044-5.66 3.159 10.741 4.593 24.373-.901 34.498-4.482 8.261-13.106 13.76-21.959 16.318-5.005 1.445-13.842 2.787-19.039 2.656 1.554-6.308 3.48-11.783-.266-17.888a22.29 22.29 0 00-1.386-1.984c4.792-3.028 9.955-5.451 15.032-7.954 2.111-1.041 4.369-2.405 6.6-3.12 1.055-.338 2.198-.473 3.284-.233 1.611.358 4.28 2.064 5.613 1.93l.178-.229c-.157-.625-.605-.941-1.135-1.261-2.057-1.241-5.071-2.134-7.428-1.506-.573.157-1.144.324-1.712.499 1.171-5.024 1.89-10.174 2.601-15.279z" fill="#EBFDFF"/><path d="M119.013 191.081c.692.206 1.005.725 1.366 1.317 2.344 3.85 3.949 11.583 2.937 16.027-.188.023-.305-.013-.487-.057-.524-1.027-.222-4.585-.306-5.932-.054-.855-.206-1.717-.372-2.558a25.834 25.834 0 00-1.683-5.414c-.462-1.078-1.243-2.238-1.455-3.383z" fill="#1E1E1E"/><path d="M19.53 161.939c2.043.47 4.046 1.201 6.04 1.846a597.862 597.862 0 0112.51 4.257c1.459.507 2.945 1.127 4.425 1.553-.028 4.122.744 8.278 1.639 12.284a29.984 29.984 0 00-1.636-.189c-2.137-.167-7.05.335-8.599 1.861-.32.316-.331.534-.358.967.412.338 1.64-.287 2.117-.473 1.399-.544 2.845-1.098 4.349-1.268 4.384-.494 10.386 2.483 14.45 4.137-.4.689-.78 1.415-1.051 2.166-.486 1.351-1.517 4.587-.907 5.875.383.177.435.15.858.078.73-1.206.693-5.385 2.112-7.5.86-1.28 2.38-.795 3.649-.915.53-.05 1.088-.213 1.606-.336-.528 3.609-.43 7.269 1.304 10.561 1.423 2.701 3.492 4.097 6.352 5a68.742 68.742 0 01-.898 3.329 19.397 19.397 0 01-4.1 2.535 19.1 19.1 0 01-1.49.608c-6.595-2.557-6.7-8.195-7.99-8.848-.354.143-.374.199-.591.519-.027.277-.036.514.036.787.902 3.387 3.8 6.412 6.742 8.143-7.534 2.14-15.068 2.234-22.609.006-7.097-2.096-13.305-6.514-16.828-13.119-5.467-10.251-4.391-23.085-1.132-33.864z" fill="#EBFDFF"/><path d="M142.283 65.587c.46.92.934 1.834 1.343 2.777-.058.194-.17.379-.172.58-.007.581 1.166 2.392 1.48 2.971 3.428 6.323 7.734 9.974 10.446 17.306 1.003 2.712 1.884 5.801 2.276 8.677.191 1.407.072 5.713.563 6.615-.853 2.554-2.666 4.783-4.419 6.77a27.296 27.296 0 00-.268-6.43c-.288-1.738-1.545-6.769-3.059-7.692-.307-.187-.512-.248-.867-.168-.275.843 1.626 3.956 1.988 5.016a21.533 21.533 0 01.835 3.4 21.616 21.616 0 01.276 3.49c-.006 4.793-1.647 9.555-5.099 12.958-3.805 3.751-8.164 4.721-13.319 4.717-1.496-1.081-3.06-2.106-4.692-2.97-2.921-1.548-5.653-2.532-7.921-5.055-4.448-4.946-5.522-11.429-5.213-17.859 4.679-4.955 8.216-10.128 10.523-16.566 1.694.497 3.368.664 5.113.343 3.392-.624 6.148-2.94 8.037-5.741 2.77-4.108 3.08-8.407 2.149-13.139zM40.685 210.908c8.813 1.896 18.585 1.243 26.322-3.753-.59 3.559-.58 7.69 1.383 10.857 1.174 1.893 2.997 3.237 5.184 3.709 2.336.504 4.739-.106 6.727-1.375 3.592-2.293 5.213-6.191 6.108-10.185 1.304 1.355 2.83 2.322 4.525 3.109.05 1.762.458 3.34 1.34 4.87 1.307 2.269 3.423 3.995 5.98 4.644 2.213.561 4.637.296 6.598-.907 2.639-1.619 3.591-4.06 4.284-6.907.479-.23 1.449-.834 1.939-.678l.138.191c.062.084.126.166.187.251.212.294.328.475.657.652 1.078.579 3.38.108 4.579-.009 7.248-.711 13.777-1.804 20.576-4.512.515 1.789 1.038 3.598 1.443 5.415.257 1.156.366 2.651.79 3.729.08.202.206.341.348.501-1.971 2.092-4.89 3.469-7.448 4.728-12.9 6.35-27.682 9.407-41.998 9.848-18.351.565-37.231-3.008-52.14-14.214.916-1.775 1.825-7.613 2.478-9.964zM19.53 161.939c5.523-16.63 15.731-29.656 31.55-37.566a76.264 76.264 0 015.36-2.435 207.439 207.439 0 007.853 7.838c-2.26 1.917-3.907 3.964-4.163 7.037-.197 2.372.496 4.652 2.063 6.46 1.223 1.409 2.776 2.226 4.554 2.714-.943 4.687-.572 8.903 1.877 13.059-1.898 1.159-2.59 2.647-3.107 4.749a50.136 50.136 0 00-.697 3.439c-1.643.611-3.046 1.606-4.497 2.573-3.383.887-8.894 7.866-10.624 10.849-.447.769-.959 1.639-1.232 2.486-1.044-.386-2.093-.677-3.172-.953-1.025-4.372-1.586-9.076-1.568-13.566.006-1.662.571-5.059.286-6.408-.079-.369-.175-.574-.5-.776l-.154.067c-1.238 1.586-.85 6.072-.854 8.09-1.48-.427-2.966-1.046-4.425-1.553a586.27 586.27 0 00-12.51-4.257c-1.994-.646-3.997-1.377-6.04-1.847zm99.686-41.027c3.429.876 6.847 2.141 9.934 3.887 13.097 7.409 21.402 21.875 25.367 35.978-4.8 2.592-9.662 4.623-15.044 5.661-1.815.35-3.668.446-5.474.786.265-1.566.946-3.89.655-5.445-.069-.372-.105-.405-.403-.601l-.392.106c-.162.176-.274.324-.323.565-.473 2.33-.706 4.769-1.037 7.127-.662 4.722-1.35 9.441-2.386 14.099-6.853 3.106-13.335 6.75-20.042 10.12-.227.113-.377.134-.627.113-.066-.111-.166-.208-.198-.333-.199-.778-.035-2.076-.065-2.913a27.107 27.107 0 00-.502-4.5c-.583-2.938-1.727-5.698-2.842-8.464 3.126 1.759 6.438 2.536 9.979 1.589 1.845-.493 3.649-1.582 4.586-3.296.676-1.236.72-2.625.307-3.955-1.588-5.116-8.174-8.415-12.56-10.737-.11-.435-.214-.89-.414-1.293-.658-1.332-1.802-1.804-3.111-2.292 1.1-3.778 1.024-7.776.119-11.582 2.693-1.84 5.197-3.985 5.809-7.38.471-2.613-.413-4.647-1.832-6.758 3.862-3.193 7.416-6.518 10.496-10.482zM36.845 56.151l.035.03c.328-.136.892-3.155 1.032-3.76 2.602-11.253 8.816-22.065 17.545-29.659 4.367-3.799 9.193-6.927 14.565-9.115 9.49-3.865 21.614-4.787 31.553-2.179 1.459.383 2.9.827 4.322 1.332 1.689.6 6.22 2.675 7.642 2.711.085.002.171 0 .256-.001 1.285 1.192 3.829.687 5.335 1.693l.114.116c1.32 1.323 2.894 2.374 4.228 3.686a46.243 46.243 0 015.997 7.395 46.198 46.198 0 013.424 6.273c.325.724.632 1.458.919 2.2.738 1.886 2.294 7.205 3.066 8.496-.091.031-.181.065-.273.094-3.395 1.086-8.865-.184-11.918-1.871-2.771-1.532-5.124-3.886-6.968-6.442-.832-1.154-2.403-5.127-3.502-5.67l-.286.113c1.025 4.171 5.998 10.026 9.671 12.228 3.233 1.938 6.807 2.69 10.543 2.555 1.084-.04 2.401-.246 3.45.009l.008.19c.078 1.637.377 3.258.542 4.887.273 2.717.168 5.382-.27 8.072-1.995-1.017-3.377-1.241-5.586-.808-.941-.491-2.247-.696-3.278-.989a26.136 26.136 0 01-4.285-1.61c-6.815-3.298-13.193-9.398-16.77-16.065-1.04-1.939-1.584-4.283-2.742-6.113-.056-.09-.115-.177-.173-.266 2.664-1.483 6.876-9.423 7.703-12.331.177-.627.302-1.28.184-1.926-.368.092-.539.406-.728.722-.712 1.19-1.069 2.56-1.627 3.822-.762 1.724-1.824 3.416-2.912 4.953-8.877 12.55-24.272 19.592-38.627 23.745a187.962 187.962 0 01-14.34 3.492c-2.8.578-5.678.995-8.444 1.713 8.457-7.46 20.21-10.731 30.439-15.02 5.801-2.434 11.503-5.373 16.57-9.124 2.5-1.851 5.002-3.907 7.002-6.293 1.061-1.264 2.72-3.003 2.95-4.666l-.005.139-.413-.277c-1.428.928-2.307 3.038-3.49 4.302a54.075 54.075 0 01-11.775 9.38 94.504 94.504 0 01-11.575 5.687c-9.46 3.933-24.889 8.65-31.723 16.325-3.435.462-5.649 1.667-7.985 4.216.114-1.673.083-4.966.6-6.391z" fill="#60A4FF"/><path d="M104.137 34.94c.424.429 1.588 5.018 2.016 6.079 1.228 3.04 2.667 5.967 4.618 8.616 4.588 6.226 10.919 9.992 18.554 11.171.091 6.908-.722 14.224-2.712 20.86-3.08 10.267-10.158 19.365-19.666 24.432-9.966 5.311-21.195 5.64-31.844 2.371a39.332 39.332 0 01-6.312-2.782 39.867 39.867 0 01-3.895-2.452 39.812 39.812 0 01-3.58-2.891 38.968 38.968 0 01-1.658-1.597c-10.479-10.915-12.6-25.632-12.305-40.087 20.357-3.701 41.467-8.9 56.784-23.72z" fill="#EBFDFF"/><path d="M75.007 89.347c1.458.095 2.932 2.086 4.225 2.831a20.135 20.135 0 003.285 1.488 20.326 20.326 0 005.89 1.124 18.743 18.743 0 003.846-.218 18.829 18.829 0 003.722-.996c.882-.342 1.792-.746 2.592-1.255.755-.48 1.652-1.505 2.491-1.756.128-.039.268.01.402.015.214.363.163.481.136.909-3.565 3.084-7.785 4.527-12.496 4.535-4.583.007-10.112-1.628-13.37-5.023-.53-.55-.72-.889-.723-1.654zm-6.196-34.879a8.124 8.124 0 011.483-.111c.841.03 1.579.253 2.149.883.152.364.177.588.086.965-.369 1.534-5.026 1.83-6.428 2.268-1.332.417-2.465.993-3.656 1.715-.367.267-.778.622-1.184.82-.373.18-.584.126-.956-.003l-.172-.37c.04-.849.454-1.522.968-2.18 1.99-2.553 4.59-3.572 7.71-3.986zm33.546-1.47c2.044-.137 4-.227 5.875.751 1.766.921 5.259 3.916 5.774 5.869.088.333.05.382-.113.66-.436.02-.68-.197-1.025-.43l-.157-.107c-3.366-2.68-4.455-2.853-8.699-2.685-.934.037-1.859.026-2.748-.306-.524-.195-1.138-.541-1.334-1.101-.178-.509.067-1.032.352-1.448.542-.787 1.175-1.006 2.075-1.203zm2.803 11.082c2.155-.173 4.18.709 5.824 2.056.789.647 2.684 2.433 2.718 3.481.009.267-.074.276-.237.458-1.162-.145-2.123-1.78-2.961-2.557-.433-.402-.945-.742-1.427-1.083.407 1.578.515 2.998.169 4.601a9.998 9.998 0 01-.267.574c-.619 1.212-1.775 2.39-3.099 2.794-1.103.337-2.285.166-3.288-.385a5.05 5.05 0 01-.834-.585 5.088 5.088 0 01-1.445-2.07 5.17 5.17 0 01-.156-.487c-.356-1.33-.19-2.802.519-3.99.966-1.62 2.72-2.407 4.484-2.807zm-34.167.163a6.23 6.23 0 011.539.14c1.254.262 2.49.856 3.196 1.967.73 1.151.914 2.652.61 3.968-.35 1.52-1.348 2.787-2.696 3.556-1.104.63-2.467.934-3.712.584-1.508-.424-2.518-1.621-3.244-2.938-.494-1.47-.438-2.63-.086-4.108-1.742 1.373-2.503 3.108-3.613 4.02-.189.155-.454.18-.684.224-.159-.104-.264-.094-.27-.267-.022-.642.564-1.461.925-1.976 1.914-2.728 4.744-4.597 8.035-5.17z" fill="#1E1E1E"/><path d="M67.557 75.493a6.343 6.343 0 011.965.196 6.424 6.424 0 013.848 2.834 6.6 6.6 0 01.57 1.16 6.342 6.342 0 01.324 1.245 6.383 6.383 0 01.002 1.897 6.628 6.628 0 01-.209.927 6.602 6.602 0 01-.344.887 6.412 6.412 0 01-.47.826c-1.234 1.808-2.917 2.473-4.984 2.824-1.434.055-2.88-.247-4.076-1.067-1.407-.965-2.3-2.51-2.573-4.182a6.644 6.644 0 01-.084-.966 6.229 6.229 0 01.023-.646 6.559 6.559 0 01.72-2.468 6.343 6.343 0 01.513-.823c1.2-1.636 2.842-2.32 4.775-2.644zm40.919-.149c1.344-.029 2.712.194 3.903.844a6.058 6.058 0 01.8.522 6.775 6.775 0 01.485.413 6.735 6.735 0 01.44.46 5.628 5.628 0 01.391.504 5.805 5.805 0 01.337.54 6.022 6.022 0 01.5 1.17 7.848 7.848 0 01.164.637 6.261 6.261 0 01.104.669 7.643 7.643 0 01.035.676 6.36 6.36 0 01-.035.676 6.33 6.33 0 01-.273 1.324 7.184 7.184 0 01-.237.635 6.83 6.83 0 01-.473.898c-1.049 1.657-2.561 2.43-4.417 2.836-1.831.108-3.59-.154-5.072-1.318a5.962 5.962 0 01-.835-.809 5.68 5.68 0 01-.661-.956 5.925 5.925 0 01-.702-2.204c-.221-1.852.303-3.925 1.468-5.394 1.076-1.355 2.41-1.92 4.078-2.123z" fill="#FEC636"/><path d="M85.142 48.465c-.409 9.4-1.861 18.652-1.912 28.097-.012 2.284-.752 4.612 1.82 5.522 2.318.82 4.794 1.142 7.192 1.608" stroke="#1E1E1E" stroke-width="1.5" stroke-linecap="round"/></svg>