<svg width="189" height="269" fill="none" xmlns="http://www.w3.org/2000/svg"><g clip-path="url(#clip0_15_874)"><path d="M143.433 62.326c.102.054.278.142.358.221a.639.639 0 01.207.543c-.117 1.064-1.507 2.21-2.276 2.886-.101-.064-.283-.172-.362-.256-.156-.166-.218-.332-.182-.552.171-1.053 1.399-2.269 2.255-2.842zm17.263-17.242c.461.114.58.242.83.62-.052 1.082-1.365 2.07-2.088 2.787-.263-.058-.367-.1-.58-.28-.245-.206-.182-.277-.213-.576.438-1.036 1.267-1.77 2.051-2.55z" fill="#FEC636"/><path d="M12.687 177.797c-.193-.184-.419-.372-.49-.643-.211-.813.206-2.291.802-2.896.353-.357.482-.283.955-.258.306.776.159 1.622-.159 2.379-.26.624-.54 1.048-1.108 1.418z" fill="#1E1E1E"/><path d="M149.829 40.794c.289.065.479.137.744.26.465.613.514 1.536.495 2.285-.018.747.066 1.555-.361 2.199-.107-.013-.264-.027-.362-.064a.784.784 0 01-.459-.39c-.552-.99-.414-3.251-.057-4.29zm11.319 22.121c1.169.565 2.392 1.62 3.164 2.657.067.49-.073.553-.347.95-.107-.019-.272-.04-.382-.078-.837-.288-2.452-1.516-2.763-2.366-.176-.482.104-.76.328-1.163zm1.384-8.343c1.516-.013 3.228-.034 4.621.616.339.425.295.51.31 1.034-1.451.117-3.139.016-4.501-.517-.355-.415-.341-.605-.43-1.133zm-25.579-.32c1.197.1 2.892-.094 3.996.324.307.117.337.148.454.456-.284.305-.427.336-.805.491-1.074.22-2.439.514-3.529.298-.414-.081-.524-.202-.733-.551.092-.519.258-.662.617-1.018zm1.793-8.707c.967.25 3.321 1.53 3.795 2.474.231.46.016.689-.171 1.113-.95-.186-3.294-1.536-3.736-2.44-.225-.46-.043-.71.112-1.147zm13.079 20.245c.468.01.953-.062 1.314.244.47 1.53.899 4.546.524 6.107-.235-.003-.63.064-.806-.1-1.009-.943-.934-4.864-1.032-6.251z" fill="#FEC636"/><path d="M102.15 64.55c.645-.077 1.324-.128 1.974-.088 1.222.075 2.595.444 3.427 1.403.34.393.415.679.362 1.184l-.337.25c-.454.025-.689-.187-1.044-.433l-.152-.108c-2.16-1.42-4.846.1-6.18-.806l-.025-.248c.444-.786 1.177-.907 1.975-1.153zm-34.16-.66c.385-.027.762-.026 1.147-.014.876.028 2.487.212 3.016.993.255.375.214.488.138.905-.864.63-2.515-.462-3.604-.55-.063-.005-.126-.007-.188-.011-1.254.148-2.991 1.178-3.998 1.131-.317-.014-.183.021-.438-.26.023-.162.03-.29.108-.442.61-1.189 2.633-1.508 3.82-1.752zm59.284 11.525c1.19-.065 2.184.028 3.273.554.713.346 1.801 1.01 2.022 1.835.067.25-.049.322-.17.529-.531.276-1.145.067-1.707-.043-1.212.459-2.186 1.107-3.218 1.872l.158.127c1.155.968 2.054 2.156 2.173 3.714.044.575-.005 1.406-.428 1.843-.173.18-.295.11-.522.104-.336-.438-.269-.763-.301-1.306-.138-.938-.479-2.03-1.148-2.73-.261-.274-.363-.245-.717-.258-.624.394-.85 1.023-1.297 1.577-.284.35-.401.445-.847.479l-.257-.256c-.082-.746.152-1.414.522-2.057 1.018-1.767 2.792-3.585 4.795-4.11.048-.013.097-.024.146-.036l.041-.172c-.799-.39-1.747-.132-2.46-.561-.192-.458-.127-.623-.058-1.105zM31.893 226.93c.448.203.7.246.971.665-.049 2.043-.739 4.321-1.13 6.335l-2.429 12.735c-.271 1.424-.837 3.185-.814 4.614-.058.067-.111.14-.175.203-.284.282-.54.3-.92.322-.189-.142-.316-.167-.367-.417-.22-1.069 3.708-20.526 4.152-22.423.17-.724.315-1.397.712-2.034zM69.27 74.777c.623-.038 1.357-.108 1.969.03a3.311 3.311 0 012.12 1.588c.52.941.557 2.118.203 3.12-.46 1.302-1.349 2.043-2.552 2.637-.64.093-1.355.11-1.97-.115a3.69 3.69 0 01-1.494-1.011 3.644 3.644 0 01-.6-.91c-.454-.985-.518-2.098-.112-3.11.477-1.19 1.3-1.737 2.435-2.229zm31.868-.67c.618-.048 1.257-.092 1.849.13.892.334 1.576 1.179 1.905 2.05.465 1.227.442 2.716-.157 3.894-.526 1.035-1.263 1.54-2.349 1.87-.49.012-1.025.053-1.506-.055-.813-.182-1.55-.815-1.963-1.523-.575-.99-.64-2.225-.335-3.313.41-1.466 1.251-2.341 2.556-3.053zm8.382-26.512c.057-.393.075-.705.343-1.021.232-.033.324-.117.513.06.549.517 2.268 5.312 2.865 6.41.836 1.534 2.105 3.072 3.377 4.268 1.067 1.003 2.412 1.989 3.751 2.59.939.423 2.64-.041 3.211.944 1.072 1.85.761 7.919.822 10.28-.027.278-.02.677-.131.929-.168.38-.451.547-.802.73l-.266-.139c-.488-1.516-.111-4.235-.174-5.924-.061-1.635-.244-3.268-.411-4.895a10.647 10.647 0 01-4.285-1.461c-4.492-2.668-7.525-7.825-8.813-12.77zM16.285 168.944c-.2-.368-.411-.73-.346-1.166.28-1.888 1.585-4.087 2.401-5.808 3.212-6.776 6.613-13.383 11.088-19.421.86-1.16 1.73-2.49 2.878-3.382.452-.077.513-.072.938.1.14.881-.962 2.021-1.492 2.698a93.542 93.542 0 00-6.8 10.109 93.2 93.2 0 00-5.422 10.909l-.078.144c-.91 1.724-1.524 4.702-3.168 5.817zm77.799-146.5c10.139-.491 19.316 3.254 26.85 9.998 7.365 6.593 11.092 14.141 11.532 24.058.031.674.087 1.393-.392 1.926-.414.053-.47.023-.853-.152-.278-8.476-2.395-15.27-8.117-21.653-5.94-6.626-14.547-11.868-23.5-12.825-2.42-.259-4.688.165-7.06.035-.285-.206-.261-.127-.37-.506.06-.09.111-.187.181-.27.344-.406 1.242-.523 1.729-.611z" fill="#1E1E1E"/><path d="M63.419 83.871c1.564-.104 2.907.013 4.269.868 1.193.75 2.09 1.946 2.376 3.334.226 1.1.026 2.263-.613 3.193-1.028 1.494-2.736 1.922-4.422 2.188-1.647.166-3.28.088-4.776-.7-1.075-.566-1.965-1.49-2.288-2.683-.288-1.065-.076-2.203.484-3.142 1.082-1.817 3.021-2.577 4.97-3.058zm42.701-.614c1.701-.14 3.41.127 4.863 1.07 1.101.713 1.991 1.8 2.259 3.105a4.182 4.182 0 01.089.895 4.18 4.18 0 01-.216 1.328 4.294 4.294 0 01-.614 1.197c-1.141 1.569-2.89 2.003-4.694 2.307-1.967.069-4.008-.106-5.644-1.32-.979-.726-1.665-1.777-1.788-3.004-.119-1.19.317-2.352 1.06-3.27 1.23-1.519 2.821-2.076 4.685-2.308z" fill="#FEC636"/><path d="M99.38 14.262c.473.074.57.067.924.378-.092.735-.749.862-1.356 1.133-3.053 1.36-5.875 2.792-7.438 5.939-.4.805-.53 1.88-1.006 2.598-.673 1.018-2.505-.63-3.354-.897-.72-.227-1.592-.268-2.347-.372-5.378-.739-11.225-.682-16.517.57-9.843 2.33-19.068 9.613-23.707 18.591a30.08 30.08 0 00-1.594 3.684c-.395 1.133-.62 2.804-1.292 3.78-.275.399-.52.536-.985.626l-.234-.231c-.34-1.645 1.755-6.089 2.499-7.716 2.855-6.26 8.277-11.787 14.084-15.374 9.698-5.99 20.846-7.085 31.812-4.478-.647-2.419-1.848-4.17-4.112-5.33-.667-.341-1.441-.662-2.007-1.164-.299-.267-.507-.437-.516-.853l.272-.194c1.066-.146 1.812.204 2.732.736 2.395 1.386 4.024 3.24 4.742 5.945.062-.123.126-.245.19-.367 2.019-3.79 5.195-5.776 9.21-7.004zM77.054 92.646c2.304-.003 16.948-.326 17.939.28.296.182.413.614.447.932.224 2.114-1.812 5.151-3.188 6.616-1.285 1.247-3.028 2.062-4.775 2.395a7.964 7.964 0 01-.46.079 9.066 9.066 0 01-2.79-.017 8.887 8.887 0 01-1.362-.323 8.716 8.716 0 01-.874-.328 9.058 9.058 0 01-1.627-.911c-1.848-1.296-3.445-3.629-3.777-5.91-.152-1.043-.166-1.945.467-2.813z" fill="#1E1E1E"/><path d="M77.866 93.999c5.367-.047 10.775-.17 16.138.025-.434 2.118-1.047 3.656-2.515 5.283-1.286 1.206-2.804 2.022-4.56 2.284a7.862 7.862 0 01-2.84-.07 7.753 7.753 0 01-1.175-.342 7.563 7.563 0 01-.747-.326 8.06 8.06 0 01-1.376-.875c-1.974-1.566-2.634-3.583-2.925-5.98z" fill="#EBFDFF"/><path d="M144.732 58.523c-.461-2.12-.533-4.342.657-6.254 1.112-1.785 2.974-2.895 5.008-3.308 2.266-.46 4.616-.131 6.575 1.142 1.614 1.049 2.768 2.661 3.162 4.553.449 2.156-.021 4.57-1.249 6.393-1.179 1.748-2.98 2.79-5.037 3.154-1.121.197-2.263.15-3.394.104l-.878-.202c-1.863-.608-2.873-1.452-4.06-2.964l-.055-.132c-.357-.834-.553-1.6-.729-2.486z" fill="#FEC636"/><path d="M144.732 58.523c.504-.206.819-.313 1.365-.263.685.377.879 1.036 1.174 1.723-.557.641-.873 1.046-1.755 1.159l-.055-.133c-.357-.834-.553-1.6-.729-2.486z" fill="#FEC636"/><path d="M147.84 59.799c.189-.16.37-.421.632-.404.915.06 1.355.913 2.303.22.843-.616.679-2.214 1.513-2.772.417.069.429.125.725.438.207.692.039 1.128-.289 1.737-.459.85-.936 1.459-1.843 1.84-.534.057-1.373.231-1.89.08-.663-.195-.871-.562-1.151-1.14z" fill="#1E1E1E"/><path d="M147.271 59.982l.429.027.14-.21c.28.577.488.943 1.151 1.138.517.152 1.356-.022 1.89-.08l.738.33c.201.727.424 1.604.012 2.303-.263.445-.702.668-1.177.818l-.878-.203c-1.863-.608-2.873-1.452-4.06-2.963.882-.113 1.198-.518 1.755-1.16zm7.317-3.147c-.248-.354-.593-.766-.588-1.21.005-.465.13-.769.468-1.091.559-.533 1.438-.61 2.163-.617.201.726.424 1.604.012 2.302-.263.445-.703.669-1.177.818l-.878-.202z" fill="#FEC636"/><path d="M80.595 59.506c11.423-.172 20.469-5.657 24.92-16.314.559-1.338 1.146-4.539 2.37-5.304l.298.107c.096.217.156.408.163.649.039 1.32-.594 2.629-1.07 3.83-1.792 4.52-4.115 7.903-7.422 11.426-4.849 4.304-10.598 6.391-17.04 6.796-2.084.132-4.17.052-6.253.143-3.648.158-7.227.435-10.885.225-1.275-.073-2.557-.209-3.833-.231-3.9-.07-5.293.235-9.28-.742-.22 2.826-1.476 14.004-2.679 15.548-.242-.017-.31.034-.487-.16-.418-.457-.65-1.105-.969-1.635-1.04-1.73-2.722-3.128-4.788-3.301-2.157-.18-4.4.85-5.99 2.266-1.7 1.513-2.695 3.537-2.81 5.814-.15 3.01 1.138 6.897 3.192 9.115 1.774 1.915 3.987 2.906 6.599 2.973 1.414.037 2.778-.232 4.137-.607-.628-2.955-1.26-6.43-3.004-8.944l-.192.14c-.628.46-1.223.937-1.706 1.557-.298.383-1.738 2.686-2.004 2.818-.13.065-.289-.003-.434-.004-.253-.33-.303-.509-.265-.93.156-1.75 2.41-3.563 3.557-4.724l-.171-.114c-2.591-1.697-5.631.045-6.518-.756.06-.402.181-.635.514-.89 1-.762 3.312-.736 4.455-.476 1.84.418 3.3 1.6 4.265 3.193 1.876 3.1 2.21 6.843 3.264 10.248 3.097 9.987 10.9 17.707 21.053 20.323 11.042 2.845 26.936 2.172 36.779-3.64 6.937-4.096 10.918-10.383 12.87-18.079.163-.641.254-1.574.693-2.08.417-.095.4-.11.77.1.419.986-.155 2.422-.403 3.419 3.743.436 6.834.2 9.895-2.204 2.752-2.162 4.682-5.474 5.076-8.964.258-2.276-.206-4.579-1.664-6.394-1.214-1.51-2.764-2.531-4.726-2.697-.988-.083-2.874.202-3.553-.545.177-.415.491-.728.943-.863.67-.2 1.639-.099 2.347-.096.239-1.277.503-2.57.622-3.866.084-.909-.04-1.89.149-2.78a1.36 1.36 0 01.374-.71c.408-.057.444.019.804.234.683 1.367-.312 5.72-.518 7.393 2.485.85 4.534 2.295 5.72 4.722 1.315 2.694 1.242 5.926.253 8.71-1.289 3.623-3.906 6.891-7.421 8.552-2.848 1.344-5.67 1.346-8.713.831-2.445 7.614-6.979 13.604-14.168 17.311-3.414 1.76-6.951 2.754-10.698 3.519-.005.07-.012.139-.016.208-.09 1.4.617 3.467.03 4.684l-.249.105c-.473-.232-.686-.494-.849-.985-.366-1.103-.255-2.575-.273-3.733-7.27.884-14.13.897-21.375-.226-.03 1.057.164 3.5-.516 4.306-.364.12-.348.113-.7-.041-.21-.313-.387-.591-.533-.94-1.64.162-3.38.721-4.95 1.227 1.754 3.617 5.953 5.779 9.586 7.058 5.026 1.767 11.224 2.353 16.152-.029 2.576-1.246 5.147-3.534 6.113-6.292.365-1.042.272-3.948 1.154-4.431 2.068.041 8.983 2.999 11.022 4.077 1.328.703 2.455 1.674 3.727 2.456 3.902 2.403 7.791 4.561 11.527 7.254 1.206.869 2.499 1.728 3.529 2.808.261.272.739.747.723 1.155-.011.285-.119.476-.239.727-2.085-.884-4.369-3.195-6.29-4.554a87.169 87.169 0 00-10.561-6.412c-1.52 4.615-4.795 7.953-8.792 10.611-2.597 1.728-10.133 5.307-13.137 4.704-.355-.294-.333-.276-.39-.735.31-.679 1.706-.771 2.399-.898 3.142-.574 6.17-1.854 8.928-3.459 4.503-2.62 8.5-6.264 9.849-11.437-3.674-1.94-7.677-3.327-11.542-4.841l-.016.239c-.236 3.163-1.64 6.089-4.057 8.165-4.096 3.518-9.078 4.091-14.255 3.672-1.292 3.324-4.955 6.868-7.835 8.958a32.651 32.651 0 01-5.614-1.647c-5.384-2.132-9.655-6.017-11.952-11.372l-.736-1.967c-4.627 1.713-9.089 4.683-12.918 7.777a51.892 51.892 0 00-3.645 3.227c-.838.83-1.92 2.324-2.874 2.915-.17.105-.236.103-.41.131-.362-.138-.409-.163-.643-.469a1.39 1.39 0 01.242-.756c1.04-1.663 3.08-3.189 4.56-4.485 9.693-8.486 19.43-11.926 31.672-14.922.09-.635.138-1.279.202-1.917-2.702-.723-5.392-1.483-7.918-2.71-8.189-3.978-12.922-10.651-15.859-19.038-2.542.606-5.335.785-7.85-.043-2.885-.95-4.998-3.107-6.313-5.8-1.445-2.964-2.252-6.887-1.066-10.07 1.042-2.794 3.211-4.48 5.802-5.717-.165-3.014-.777-11.561.07-14.146.137-.42.248-.554.638-.74l.319.116c.64 2.232.033 5.654.02 8.056-.013 2.084.099 4.146.272 6.222 1.997-.298 3.42-.296 5.32.455 1.169.783 2.018 1.644 2.922 2.706a93.972 93.972 0 001.735-11.873c.051-.645.012-1.494.299-2.072 1.09-.444 4.695.872 6.285.928 8.82.309 15.75-5.492 18.674-13.539.48-1.322 1.023-5.362 1.929-6.075.204-.16.274-.076.502-.024l.213.372c.12 1.34-.384 3.176-.75 4.474-1.42 5.03-4.606 9.912-8.979 12.852-1.253.843-2.606 1.384-3.91 2.12 4.883.096 10.393.434 14.909-1.717 5.902-2.813 8.881-7.999 11.015-13.872.191-.528.38-1.073.922-1.325l.248.121c.294.649.325 1.348.142 2.04-.251.946-.748 1.92-1.148 2.815-2.306 5.142-5.986 8.964-10.91 11.656z" fill="#1E1E1E"/><path d="M58.221 121.245c2.613-1.137 5.32-2.023 8.05-2.832l.989 1.846c-2.414 1.302-5.72 2.083-8.335 3.056-.298-.678-.499-1.361-.704-2.07z" fill="#EBFDFF"/><path d="M67.26 120.259c3.547 4.368 9.072 6.438 14.468 7.424-1.529 2.796-4.22 5.929-6.913 7.65-6.16-1.575-11.378-4.15-14.736-9.802-.428-.72-.817-1.45-1.154-2.216 2.616-.973 5.92-1.754 8.335-3.056zM47.288 55.998c-.492-5.398 2.324-13.687 5.795-17.894 5.404-6.55 13.617-9.807 21.926-10.58 3.355-.313 12.684-.658 15.378 1.52 8.986-1.473 18.562.155 26.05 5.489 4.965 3.537 10.058 11.04 11.048 17.12.559 3.434-.228 7.014-.643 10.424-.23 1.89-.326 3.844-.833 5.687-.314 1.14-.998 2.23-1.567 3.258-.018.033-.027.07-.04.105-.061-2.362.25-8.43-.822-10.28-.571-.986-2.272-.522-3.211-.944-1.339-.602-2.684-1.588-3.751-2.59-1.272-1.197-2.541-2.735-3.377-4.269-.597-1.098-2.316-5.892-2.865-6.409-.189-.178-.281-.094-.513-.061-.268.316-.286.628-.343 1.021-2.663 1.207-7.099 5.753-9.666 6.305 3.307-3.522 5.63-6.906 7.422-11.426.476-1.201 1.109-2.509 1.07-3.83a1.643 1.643 0 00-.163-.65l-.298-.105c-1.224.764-1.811 3.965-2.37 5.303-4.451 10.657-13.497 16.143-24.92 16.315 4.923-2.693 8.603-6.514 10.909-11.657.4-.894.897-1.869 1.148-2.814.183-.692.152-1.392-.142-2.04l-.248-.121c-.542.25-.73.796-.922 1.324-2.134 5.874-5.113 11.06-11.016 13.872-4.515 2.151-10.025 1.814-14.908 1.718 1.304-.737 2.657-1.278 3.91-2.12 4.373-2.94 7.558-7.823 8.979-12.853.366-1.298.87-3.134.75-4.474l-.213-.372c-.228-.051-.298-.136-.502.024-.906.713-1.449 4.753-1.93 6.076-2.923 8.047-9.853 13.847-18.673 13.538-1.59-.055-5.195-1.371-6.285-.927-.287.577-.248 1.427-.299 2.071a94.123 94.123 0 01-1.735 11.873c-.904-1.061-1.753-1.923-2.922-2.706.137-2.948-.332-11.529.753-13.675l.039-.246z" fill="#60A4FF"/><path d="M47.288 55.998c1.18-.316 2.835.274 4.062.375 4.031.334 8.725-1.128 10.804-4.833.85-1.515 1.237-3.49 1.088-5.228-.044-.515-.232-1.154-.171-1.662.055-.46.128-.513.474-.763.262.02.401-.04.586.176.81.945.51 3.803.33 4.994-.392 2.595-1.983 4.926-4.12 6.41-2.93 2.034-7.34 2.845-10.831 2.168-.643-.125-1.77-.344-2.123-.97-.082-.145-.102-.267-.138-.421l.039-.246z" fill="#1E1E1E"/><path d="M101.34 115.786c3.865 1.513 7.868 2.9 11.542 4.841-1.349 5.172-5.346 8.816-9.849 11.436-2.758 1.605-5.786 2.885-8.928 3.459-.693.127-2.088.219-2.399.898.057.459.035.441.39.735 3.004.603 10.54-2.976 13.137-4.703 3.997-2.659 7.272-5.997 8.792-10.612a87.296 87.296 0 0110.561 6.412c1.921 1.359 4.205 3.67 6.29 4.554 3.152 2.446 4.978 5.97 7.885 8.557 3.202 1.635 14.085 21.338 15.231 25.158.081.269.117.522.144.801-.035 1.098 2.516 7.195 3.215 8.401.899 1.176 1.727 3.82 1.607 5.305l.029.154c.403 2.051 1.19 4.085 1.748 6.105.963 3.484 2.281 9.727 1.086 13.257l-.236.189c.497.957.411 1.371.087 2.405-.852 2.715-3.164 6.331-5.613 7.845l-.26.188c-1.49 1.067-4.961 2.714-6.03 3.729v.679c-.17-.521-.18-.689-.61-1.052-1.001-.119-2.749.907-3.831 1.18-5.132 1.292-10.458.633-15.495-.735.572-4.164 1.185-8.329 1.67-12.503.338-2.9.496-5.875.991-8.751 2.306.236 4.213.144 6.091-1.409 2.548-2.107 3.715-5.745 3.961-8.942.137-1.79.012-3.612-.291-5.38 5.116.721 9.266 1.959 12.549 6.253.692.905 1.95 3.638 3.038 3.824.277-.315.27-.521.228-.925-.279-2.677-3.457-5.689-5.502-7.194-3.147-2.314-6.757-3.295-10.632-3.111-1.161-2.862-2.69-5.759-5.678-7.057-.638-.278-1.228-.409-1.916-.477.437-4.912 1.031-9.817 1.428-14.729-2.826-.619-5.77-.845-8.645-1.163l-13.835-1.484a1314.169 1314.169 0 00-61.344-5.136c-1.597-.104-10.23-1.012-11.244-.516-.893 1.896-1.96 12.526-2.268 15.297-4.075 1.611-7.098 5.032-8.804 9.018a22.419 22.419 0 00-1.596 5.921c-6.017.531-10.477 2.055-14.515 6.84-.466.552-1.306 1.532-1.175 2.303.043.25.271.34.459.486.481-.017.67-.236.993-.585.855-.923 1.561-2.015 2.476-2.881 2.675-2.531 6.485-4.27 10.156-4.555.46-.035.92-.064 1.38-.088-.126 4.203-.448 9.347 2.677 12.654 1.879 1.987 4.352 2.672 6.984 2.825-.75 7.948-1.176 16.514-3.572 24.144-1.188-.197-9.653-2.026-9.752-2.014-.182.287-.29.529-.388.854-.548-.692-2.035-1.136-2.835-1.544a40.753 40.753 0 01-5.479-3.327c-.29-.144-.565-.3-.83-.486-3.863-2.711-6.65-8.398-7.33-12.963-.328-2.205-.365-5.613 1.038-7.486.264-.434 4.317-12.284 4.366-12.888.568-.371.848-.794 1.108-1.418.318-.757.465-1.604.16-2.379.717-.655 1.868-3.986 2.33-5.057 1.643-1.114 2.257-4.092 3.167-5.816l.078-.144c.01.006.019.016.03.019.077.014.157.057.23.031.023-.008 3.899-5.75 4.294-6.318 6.842-9.847 14.976-20.615 24.78-27.687 2.768-1.996 5.773-3.572 8.747-5.228 2.297 5.355 6.568 9.24 11.952 11.372a32.65 32.65 0 005.614 1.647c2.88-2.089 6.543-5.633 7.835-8.958 5.177.42 10.16-.153 14.255-3.671 2.417-2.077 3.821-5.002 4.057-8.166l.016-.238z" fill="#60A4FF"/><path d="M157.351 175.723c.899 1.176 1.727 3.82 1.607 5.305l-.624.018c-.408-.185-.552-.406-.76-.784-.527-.96-1.446-2.925-1.037-3.981.099-.257.577-.427.814-.558zm-1.292 35.26l-.525-.387c-.103-.234-.225-.356-.148-.617.329-1.113 1.804-2.06 2.541-2.944 1.266-1.519 2.133-5.522 3.658-6.302.497.957.411 1.371.086 2.405-.851 2.715-3.163 6.331-5.612 7.845zm-70.527-68.256c.461-.031.961-.089 1.414.022.716.175 1.365.716 1.713 1.358.36.662.395 1.468.138 2.172-.34.931-.986 1.352-1.834 1.783-.468.013-.94.031-1.397-.085-.728-.185-1.399-.655-1.768-1.315-.364-.651-.402-1.378-.162-2.08.334-.971 1.029-1.399 1.896-1.855z" fill="#1E1E1E"/><path d="M85.826 144.139c.467.005.983-.012 1.352.332.277.257.392.571.342.946-.072.534-.457.878-.826 1.227-.523-.03-1.099-.009-1.504-.402-.291-.282-.371-.59-.3-.984.089-.492.573-.824.936-1.119z" fill="#EBFDFF"/><path d="M8.321 190.685c.444.164.635.153.88.569-.091 1.456-.576 2.871-.625 4.319-.142 4.167 1.826 8.839 4.538 11.95.89 1.021 2.26 2.064 2.89 3.236-.09.417-.271.567-.56.861-.29-.144-.566-.3-.832-.486-3.862-2.711-6.65-8.399-7.329-12.963-.328-2.205-.365-5.613 1.038-7.486zm77.286-60.313a4.99 4.99 0 011.354.343c.86.374 1.512 1.218 1.786 2.098a4.098 4.098 0 01.162 1.674 3.975 3.975 0 01-.18.826 4.093 4.093 0 01-.349.77c-.607 1.025-1.33 1.357-2.445 1.653-.578-.065-1.117-.158-1.64-.426a3.63 3.63 0 01-.866-.625 3.423 3.423 0 01-.641-.854 3.619 3.619 0 01-.273-.659 3.72 3.72 0 01-.06-1.854 3.79 3.79 0 01.409-1.043c.644-1.117 1.548-1.551 2.743-1.903z" fill="#1E1E1E"/><path d="M85.55 131.804c.256.024.486.059.726.163.516.226.834.674 1.034 1.184.271.691.214 1.489-.11 2.154-.31.639-.78.824-1.41 1.04-.739-.184-1.316-.392-1.743-1.062-.329-.514-.377-1.096-.21-1.674.268-.932.894-1.371 1.713-1.805z" fill="#EBFDFF"/><path d="M138.76 141.364c3.203 1.634 14.086 21.338 15.232 25.158.081.269.117.521.144.801-.319.159-.555.214-.909.254-1.017-.569-2.861-5.24-3.446-6.421-2.329-4.705-5.037-9.39-8-13.725-.673-.985-3.39-4.12-3.524-4.986-.083-.544.182-.695.503-1.081zM38.434 161.569c.307-2.771 1.375-13.401 2.267-15.296 1.015-.496 9.648.412 11.245.516a1314.173 1314.173 0 0161.344 5.136l13.835 1.484c2.875.317 5.819.543 8.645 1.163-.397 4.912-.992 9.817-1.428 14.729.688.068 1.278.199 1.916.476 2.988 1.299 4.517 4.195 5.678 7.057 3.875-.183 7.485.797 10.632 3.112 2.045 1.505 5.223 4.517 5.502 7.193.042.404.049.611-.228.925-1.088-.186-2.346-2.919-3.038-3.824-3.284-4.294-7.433-5.532-12.549-6.252.302 1.768.428 3.589.291 5.38-.246 3.196-1.413 6.835-3.961 8.942-1.878 1.553-3.785 1.644-6.091 1.409-.495 2.876-.653 5.85-.991 8.751-.485 4.174-1.098 8.339-1.67 12.502 5.036 1.369 10.363 2.028 15.495.735 1.082-.272 2.83-1.298 3.831-1.179.43.362.44.53.61 1.052-2.993 2.141-8.749 2.332-12.306 2.258a1595.463 1595.463 0 004.098 27.683c.123.779 1.119 4.913 1.054 5.195-.032.138-.14.245-.21.367-.347.149-.627.233-1.003.1-.099-.034-.188-.091-.282-.137-.054.012-.108.022-.161.035-1.71.394-3.371 1.23-5.024 1.825a94.817 94.817 0 01-9.134 2.706 180.493 180.493 0 01-18.688 3.515c-1.571.211-3.145.401-4.721.57a178.626 178.626 0 01-9.48.769 183.736 183.736 0 01-9.507.268 179.5 179.5 0 01-9.508-.23 179.256 179.256 0 01-9.483-.73 181.95 181.95 0 01-14.12-2.026c-5.338-1.023-10.922-2.159-16.057-3.934-1.194-.413-5.958-2.607-6.746-2.536-.023-1.428.543-3.189.814-4.613l2.43-12.735c.39-2.014 1.08-4.292 1.13-6.335-.273-.419-.524-.462-.972-.665.682-1.121.854-3.375.963-4.68-.152-1.085.136-2.154.363-3.208-2.36-.432-7.73-1.078-9.462-2.55.099-.326.206-.568.388-.855.099-.012 8.564 1.818 9.752 2.015 2.396-7.63 2.821-16.196 3.572-24.145-2.632-.152-5.105-.838-6.984-2.825-3.125-3.307-2.803-8.45-2.678-12.653-.46.023-.92.053-1.38.087-3.67.286-7.48 2.025-10.156 4.556-.914.865-1.62 1.957-2.475 2.881-.324.349-.512.567-.993.585-.188-.147-.416-.236-.459-.486-.131-.772.709-1.751 1.175-2.303 4.038-4.785 8.498-6.31 14.515-6.841a22.4 22.4 0 011.596-5.921c1.706-3.986 4.73-7.406 8.804-9.018z" fill="#1E1E1E"/><path d="M133.298 170.902c1.042-.153 1.873-.043 2.836.409 2.111.991 3.429 3.393 4.198 5.501 1.317 3.612 1.098 8.075-.556 11.549-.783 1.645-1.981 3.173-3.771 3.76-2.211.726-4.683-.217-6.637-1.271-2.268-1.223-4.154-2.756-4.925-5.291 1.837.636 6.834 2.795 8.67 2.308.242-.064.286-.245.416-.441l-.088-.339c-.538-.508-5.086-1.595-6.333-2.03-1.079-.396-3.224-1.074-3.775-2.14a1.104 1.104 0 01-.035-.999c.046-.104.356-.508.42-.549.306-.2 8.061 1.322 9.958.596.201-.334.263-.318.222-.727-.217-.249-.458-.347-.783-.405-.873-.154-1.855-.074-2.744-.108-1.814-.069-3.788-.202-5.557-.63-.658-.159-1.486-.438-1.799-1.103-.265-.561-.079-1.103.133-1.639 1.071-1.019 8.449-.517 10.576-1.223.294-.29.454-.365.552-.784-.926-1.225-8.91.911-10.733-.136.037-.391.125-.498.38-.806 2.01-2.418 6.407-3.221 9.375-3.502zm-95.333-7.721l.146.156c-.01 1.837-.62 3.708-1.084 5.476-.237.047-.488.086-.71.188-.394.182-.844.47-.99.893l.15.199c1.416.579 3.426-.058 4.942-.089 3.172-.063 6.424.894 8.757 3.102-.862.833-1.623 1.186-2.747 1.532-2.32-.85-5.095-1.079-7.549-.803-.573.065-.991.058-1.362.512-.019.432.003.489.214.868.86.473 3.248.036 4.344.061 1.933.044 5.533.237 6.937 1.717.055.24.155.345-.007.562-1.142 1.528-7.052 1.19-8.832 1.325-.75.058-1.759.155-2.281.756l.03.368c1.232.899 6.576-.367 8.791.505.558.22 1.084.634 1.573.978.205.251.273.409.341.726-.949 1.57-7.844 1.225-9.772 2.079-.45.199-.472.306-.67.729l.12.256c1.357.641 3.608-.268 5.145-.198.65.03 1.085.138 1.52.634.01.155.03.282-.012.44-.523 1.979-5.294 3.454-6.953 4.188l-.223 1.76c-.773-.036-1.552-.07-2.311-.233a6.909 6.909 0 01-.744-.195 6.716 6.716 0 01-.72-.269 8.512 8.512 0 01-.688-.343 7.103 7.103 0 01-.958-.641 7.39 7.39 0 01-1.567-1.682 7.759 7.759 0 01-.208-.323c-2.386-3.986-1.639-10.55-.526-14.816a16.961 16.961 0 01.509-1.597 17.045 17.045 0 011.47-3.008 17.517 17.517 0 011.469-2.038 17.514 17.514 0 011.75-1.803 17.509 17.509 0 011.994-1.529c.234-.153.471-.301.712-.443z" fill="#EBFDFF"/><path d="M36.266 215.117c10.218 1.329 20.513 2.217 30.765 3.249l34.948 3.519 17.723 1.779c2.939.279 5.958.684 8.914.665.54-2.611.801-5.291 1.132-7.936 2.052.548 4.042 1.004 6.165 1.193.668 5.487 1.644 10.949 2.439 16.421.822 5.656 1.441 11.48 2.768 17.038-.054.012-.108.022-.161.035-1.71.394-3.37 1.23-5.023 1.825a94.92 94.92 0 01-9.135 2.706 180.493 180.493 0 01-18.688 3.515c-1.571.211-3.145.401-4.721.57a178.659 178.659 0 01-9.48.769 183.736 183.736 0 01-9.507.268 179.502 179.502 0 01-9.508-.23 179.23 179.23 0 01-9.483-.73 178.363 178.363 0 01-4.724-.552 177.638 177.638 0 01-9.396-1.474c-5.338-1.023-10.922-2.159-16.057-3.934-1.194-.413-5.958-2.607-6.746-2.536-.023-1.428.543-3.189.814-4.613l2.43-12.735c.39-2.014 1.08-4.292 1.13-6.335-.273-.419-.524-.462-.972-.665.682-1.121.854-3.375.963-4.68.497-.076.708-.025 1.027-.477.779-1.105 1.906-5.201 2.383-6.655z" fill="#60A4FF"/><path d="M41.661 147.552c3.07.015 6.197.368 9.264.58l17.246 1.195a1030.674 1030.674 0 0147.086 4.212c6.299.688 12.63 1.283 18.907 2.154-.561 4.577-.737 9.196-1.319 13.771-2.876.394-5.915 1.137-8.399 2.695-.935.586-2.463 1.793-2.457 3.028.002.415.132.896.034 1.302-.163.681-.642 1.276-.772 1.979-.126.682.228 1.217.595 1.752.027.039.292.41.321.473.167.361-.074.767-.192 1.126-.711 2.166.389 1.757 1.132 3.227.303.598.067 1.484.328 2.14 1.211 3.037 4.877 4.778 7.653 6.037a1737.82 1737.82 0 01-2.256 18.463c-.454 3.739-.822 7.515-1.443 11.229l-2.962-.227a1837.653 1837.653 0 00-22.469-2.18 4782.155 4782.155 0 01-64.876-6.661c.456-1.573.195-4.335.358-6.106l1.236-12.218c.15-1.439.429-2.864.518-4.306.207-.068.412-.14.616-.215 2.001-.73 5.555-2.123 6.426-4.244.27-.657.126-1.155-.161-1.772L46 184.83c1.144-.762 3.219-.554 4.208-1.539.328-.327.287-.445.28-.878-.54-1.169-1.673-1.961-2.718-2.652.9-.309 2.297-.638 2.89-1.417.246-.322.341-.661.221-1.062-.264-.886-1.365-1.467-2.108-1.894.291-.236.58-.477.863-.723.466-.407.762-.79.775-1.447.014-.639-.299-1.17-.75-1.601-2.442-2.332-6.605-2.89-9.807-2.919.023-.778.018-1.473-.125-2.242-.61-3.285 1.393-15.057 1.932-18.904z" fill="#EBFDFF"/><path d="M108.492 195.773c.061.013.123.019.182.039.403.135.447.198.637.554-.009.69-.407 1.275-.721 1.873l-.384-.002c-.206-.123-.366-.142-.429-.392-.173-.684.395-1.487.715-2.072zm1.695.155c.295.081.395.137.635.309.405 1.168-.421 2.93-.923 3.992-.195.03-.318-.01-.508-.055-.025-.048-.057-.093-.075-.144-.299-.852.552-3.204.871-4.102zm-3.196-.646c.338.087.364.062.632.32.131 1.44-.933 3.609-1.545 4.908-.304-.103-.427-.188-.638-.429-.157-1.467.846-3.542 1.551-4.799z" fill="#60A4FF"/><path d="M95.712 164.207c.476-.031.958-.068 1.435-.049 1.473.058 2.906.8 3.861 1.914 1.375 1.604 1.603 3.458 1.483 5.474 1.656.504 3.036.542 4.261 1.939 1.16 1.325 1.554 3.113 1.402 4.837-.195 2.2-1.207 4.348-2.949 5.739-2.181 1.743-5.083 1.382-7.671 1.073-2.077 4.46-3.266 9.901-3.163 14.842.143-.562.19-1.264.616-1.682l.342.058c.067.096.185.173.201.289.065.45-1.728 9.49-1.935 11.144 2.78.153 14.777.842 16.46 2.628l-.037.221c-.552.45-1.402.206-2.037.08-7.888-1.567-15.867-1.744-23.872-2.217-4.629-.273-9.24-.778-13.854-1.226-3.266-.32-6.54-.526-9.82-.617-1.981-.06-4.096.113-6.051-.197-.24-.318-.291-.377-.336-.769 1.707-1.128 14.974.175 17.885.421.27-5.022.183-10.744-1.009-15.641-1.276-.009-2.563-.006-3.836-.112-1.866-.154-3.636-.752-4.842-2.256-1.22-1.523-1.56-3.554-1.321-5.453.202-1.607.87-3.286 2.236-4.247 1.474-1.036 2.94-.812 4.588-.493.135-.519.261-1.051.437-1.557.527-1.513 1.625-2.817 3.095-3.48 1.703-.768 3.825-.658 5.523.068 2.538 1.086 3.13 2.572 4.073 4.97l.448.162a6.05 6.05 0 011.556-.198l.19-.001c-.987-2.653-1.099-5.52.094-8.135.644-1.414 1.698-2.721 3.21-3.239 1.397-.477 2.752-.165 4.038.457.192-.382.385-.766.6-1.136 1.118-1.932 2.564-3.043 4.7-3.611z" fill="#60A4FF"/><path d="M74.491 208.299l-.44-.184c-.162-.359.004-7.283.175-7.854.082-.274.085-.149.054-.461-.006-.066-.021-.13-.031-.195.577.137.705 1.485 1.204 2.077l.11.128c-.587 2.201-1.052 4.192-1.072 6.489zm17.869-20.192c.146-1.362.104-3.811.817-4.964.357-.045.501.044.828.173.403.891-.65 7.266-.917 8.516-.013-.004-.028-.006-.039-.014-.43-.322.006-1.5-.013-2.051-.02-.626-.808-.95-1.049-1.497-.385-.873-.376-2.225-.68-3.21-.291-.385-.495-.652-1.013-.73-.45-.067-.811.074-1.144.371-.345.307-.471.756-.563 1.188l.167-.001.15-.168c.348-.385.61-.7 1.09-.909.23.047.317.009.465.217.415.586.572 1.444.906 2.107-.088.487-.362.488-.499.842-.023.061.473 1.389.526 1.55.54 1.667.712 3.995.452 5.734l-.087.048c-.07-.74.095-1.621-.148-2.309-.054-1.02-.1-2.04-.32-3.041-.162-.735-.26-1.374-.929-1.805-.36.009-.729.024-1.087-.02-.663-.082-1.189-.417-1.611-.924-.128-.627.254-1.214.482-1.789l-.392-.093-.164-.427.225-.308c.922-.427 1.959-.48 2.96-.526.361.29.57.45.765.883.407 1.022.61 2.083.821 3.157z" fill="#60A4FF"/><path d="M72.382 176.063c1.274-.066 2.485-.043 3.726.302 4.53 1.259 2.417 4.7 3.458 6.473 1.284.473 1.922-1.73 3.335-1.755.646-.011 1.273.449 1.713.879.84.821 1.217 1.998 1.228 3.154.018 1.783-.86 3.59-2.15 4.798-1.969 1.845-4.68 1.336-7.142 1.227-3.198-.302-6.5.117-9.67-.313-1.398-.19-2.7-.691-3.56-1.863-.92-1.254-1.123-2.85-.864-4.352.206-1.193.747-2.502 1.795-3.192 1.864-1.227 3.004.581 4.66.958.855-.564.566-3.312 1.097-4.413.528-1.094 1.276-1.496 2.374-1.903z" fill="#EBFDFF"/><path d="M87.752 185.328l.392.092c-.229.576-.61 1.162-.482 1.79.422.507.948.842 1.61.923.359.044.728.03 1.088.02.67.431.767 1.071.93 1.806.22 1.001.265 2.021.32 3.041-.171 3.003-.175 6.032-.232 9.04-.048 2.542-.186 5.156.03 7.689-.953-.042-1.908-.061-2.85-.225-.542.007-.899.076-1.35-.237-.594.41-2.474.123-3.25.082l-1.266-.127c-.972-.07-1.957-.104-2.914-.298-.507-.023-.973.035-1.34-.33-.017.01-.032.024-.05.031-.769.296-2.538-.096-3.347-.329l-.55.002c.02-2.297.485-4.288 1.071-6.489l.09-.375c-.292-2.928-.015-5.96-.228-8.914 2.323.275 5.208.615 7.435-.296 2.02-.826 3.45-2.727 4.196-4.729.236-.631.333-1.308.593-1.928l.104-.239z" fill="#EBFDFF"/><path d="M89.013 203.241c.266-.019.416-.11.625.088.388.365.574.934.576 1.459.003.445-.095.841-.412 1.155-.355-.131-.533-.311-.798-.576l-.167.078a322.734 322.734 0 01-.279 4.059c-.542.007-.9.077-1.35-.237.174-1.519.301-3.011.317-4.542.138.482.187.969.246 1.464l.102.068c.468-.533.944-1.008 1.484-1.47.078-.43-.227-.683-.462-1.038l.118-.508z" fill="#1E1E1E"/><path d="M87.736 201.254c.134-1.801-.15-4.174.602-5.819l.241-.18c.494.369.627.868.722 1.466.324 2.057-.169 4.435-.288 6.521l-.118.508c-.524-.553-.859-1.773-1.159-2.496z" fill="#60A4FF"/><path d="M75.651 201.433c.482-.703 1.077-1.446 1.951-1.622 1.035.142 1.693 1.609 2.353 2.359.61-.086 1.256-.158 1.866-.032.856.176 1.291.724 1.765 1.409.187-.582.37-1.174.675-1.708.31-.546.789-1.083 1.43-1.215.83-.172 1.383.191 2.045.628.3.723.635 1.944 1.159 2.496.235.355.54.608.463 1.038a14.39 14.39 0 00-1.485 1.471l-.102-.069c-.06-.495-.108-.982-.246-1.463-.016 1.53-.143 3.022-.316 4.542-.595.41-2.475.123-3.25.082l-1.267-.127c-.972-.07-1.957-.104-2.914-.298-.507-.023-.973.034-1.34-.33-.017.01-.032.024-.05.03-.769.297-2.538-.095-3.347-.328l-.55.002c.02-2.297.485-4.288 1.071-6.489l.09-.376z" fill="#1E1E1E"/><path d="M79.778 208.925c.071-1.334-.114-4.57.925-5.498a.864.864 0 01.653-.215c.498.038.981.376 1.236.795.78 1.284.125 3.75.1 5.216-.972-.07-1.957-.104-2.914-.298zm4.181.424c.31-1.886.422-6.271 1.793-7.567.402-.051.5.001.881.154.752.81.765 1.742.892 2.789-.016 1.531-.143 3.023-.316 4.542-.595.41-2.475.124-3.25.082zm-8.918-1.053c.254-1.661.702-5.922 2.252-6.908.144-.092.264-.112.421-.151.405.17.548.311.734.718.806 1.759.209 4.745-.011 6.639-.016.01-.031.024-.05.031-.767.296-2.537-.096-3.346-.329zm12.421-25.6c-2.034-1.641-3.315-3.344-3.658-6-.253-1.957.343-4.12 1.56-5.656.464-.587 1.175-1.309 1.962-1.406 1.58-.194 2.858 2.076 3.98 1.446 1.41-2.154 1.07-4.551 4.505-5.335 1.139-.26 2.328-.063 3.299.595.999.677 1.708 1.694 1.889 2.897.3 1.999-1.04 3.294-.939 4.78.401.19.629.095 1.03-.054 1.154-.428 1.94-1.038 3.239-.537.985.38 1.727 1.357 2.081 2.321.575 1.562.29 3.604-.42 5.079-.63 1.309-1.757 2.201-3.137 2.626-2.296.707-7.132-.652-8.333.002-.398 1.067-.321 2.197-.463 3.315-.166 1.311-.543 2.664-.63 3.966-.153 2.25-.061 13.39-.646 14.596-.254-1.26-.044-2.738.039-4.024.16-2.48.622-7.11.268-9.475.267-1.251 1.32-7.625.918-8.516-.328-.129-.472-.218-.83-.173-.712 1.152-.67 3.601-.817 4.964-.211-1.075-.414-2.136-.821-3.157-.195-.433-.404-.593-.765-.883.043-.499.052-.529-.204-.956-.867-.599-2.094-.421-3.107-.415z" fill="#EBFDFF"/><path d="M82.402 66.661c-.659 6.12-1.32 12.237-1.32 18.398 0 1.113-.42 2.893 1.026 3.17 1.493.286 3.068.202 4.582.202" stroke="#1E1E1E" stroke-width="1.5" stroke-linecap="round"/></g><defs><clipPath id="clip0_15_874"><path fill="#fff" transform="translate(0 .917)" d="M0 0h189v268H0z"/></clipPath></defs></svg>