<svg width="1920" height="1021" fill="none" xmlns="http://www.w3.org/2000/svg"><mask id="a" style="mask-type:alpha" maskUnits="userSpaceOnUse" x="0" y="0" width="1920" height="1021"><path d="M.5 50.917c0-27.338 22.162-49.5 49.5-49.5h1820c27.34 0 49.5 22.162 49.5 49.5v920c0 27.339-22.16 49.503-49.5 49.503h-754.67c-18.45 0-35.37-10.27-43.9-26.637l-3.7-7.101c-45.19-86.77-169.486-86.361-214.107.704l-3.13 6.108a49.507 49.507 0 01-44.052 26.926H50c-27.338 0-49.5-22.164-49.5-49.503v-920z" fill="#F7FDFF" stroke="#1E1E1E"/></mask><g opacity=".6" mask="url(#a)"><mask id="b" style="mask-type:luminance" maskUnits="userSpaceOnUse" x="0" y="1" width="2120" height="1020"><path d="M.5 1020.42V2.417h2118.52V1020.42H.5z" fill="#fff" stroke="#fff"/></mask><g opacity=".36" stroke="#60A4FF" stroke-miterlimit="10" mask="url(#b)"><path d="M2213.33 44.39c-120.38 2.425-239.69 19.626-360.22 22.397-94.62 2.181-189.08 8.845-283.79 6.073-87.08-2.547-173.82-10.393-261.03-9.456-83.51.897-166.85 6.787-250.38 7.113-90.654.346-181.325.204-271.975-.245-95.969-.469-184.908-29.734-279.389-41.33-100.8-12.371-203.189 9.802-303.866 14.306C91.385 48.221-20.828 44.37-132.225 44.37M2213.33 170.481c-113.5-.652-237.45-12.432-349.6 6.481-102.61 17.302-196.4 56.778-302.17 50.338-84.87-5.176-168.46-20.706-253.77-18.709-77.71 1.814-154.85 15.041-232.68 14.002-101.761-1.366-201.032-29.429-302.442-35.401-89.469-5.278-179.344-12.391-268.894-16.365-211.157-9.374-424.658-.326-636.019-.326M2213.33 296.592c-218.82 1.141-437.8 37.234-656.62 32.71-82.79-1.712-165.71-6.501-248.54-5.136-80.93 1.325-161.65 10.964-242.62 10.129-99.211-1.04-195.996-27.024-294.9-32.017-93.32-4.708-186.559 7.235-279.756 9.64-97.05 2.506-192.163-11.332-288.866-14.715-111.194-3.872-223.019-.611-334.273-.611m2345.575 126.09c-121.69 6.44-243.72 61.629-365.74 38.05-101.17-19.545-194.65-63.81-299.63-55.556-80.33 6.317-158.51 21.399-239.38 22.01-87.88.673-175.86 2.731-263.76 1.814-93.053-.978-184.62-20.482-277.533-22.398-103.958-2.14-200.58 40.984-301.807 57.981-95.521 16.039-173.495-26.208-265.735-38.681-107.708-14.551-223.405-3.22-331.99-3.22M2213.33 548.794c-120.73 6.399-244.91 63.667-365.72 37.968-101.72-21.644-190.94-71.228-297.61-62.546-80.66 6.562-158.72 22.234-239.95 23.09-89.1.917-178.1 7.847-267.25 6.624-91.909-1.264-182.702-17.914-274.514-19.911-106.567-2.324-202.292 46.425-305.456 65.195-98.7 17.955-169.52-33.077-263.064-47.261-106.75-16.202-224.14-3.159-332.011-3.159M2213.33 674.906c-117.84.611-235.37 21.277-353.31 13.186-97.88-6.726-193-22.296-291.47-22.174-83.72.123-169.18-3.077-252.71 2.263-88.27 5.645-173.07 35.726-261.83 37.091-93.072 1.427-185.393-15.754-278.346-17.771-103.001-2.242-197.951 35.93-298.812 49.992-104.121 14.51-177.754-41.535-275.864-58.572-106.18-18.444-225.586-4.015-333.213-4.015m2345.555 126.09c-211.71-2.14-423.56 4.769-635.24-1.651-85.56-2.588-174.34-14.449-259.75-7.255-88.51 7.459-169.7 49.564-259.15 51.908-93.666 2.466-186.456-16.793-279.98-18.383-101.004-1.732-195.669 31.12-295.021 43.104-106.791 12.88-182.381-45.081-282.956-63.362-49.911-9.069-103.918-4.341-154.48-4.341h-178.978M2213.33 927.108c-109.56 4.117-212.14 51.317-322.84 34.198-105.22-16.263-202.43-56.31-310.61-47.75-90.08 7.133-178.79 20.848-269.06 26.494-87.77 5.502-172.64 36.439-260.94 35.522-93.976-.978-179.144-48.178-272.056-55.413-99.21-7.724-190.818 40.536-286.787 56.615-102.899 17.221-189.942-33.076-289.295-46.466-108.32-14.592-224.75-3.2-333.967-3.2M2213.33 1053.2c-109.24 9.29-184.93 98.5-299.77 66.01-110.76-31.34-211.85-112.78-331.89-91.26-95.38 17.1-180.2 55.47-278.16 59.53-87.25 3.61-175.31 23.46-262.72 19.5-96.645-4.36-170.278-78.66-264.311-91.58-97.07-13.33-186.864 50.09-278.738 69.86-99.291 21.36-197.359-21.07-295.489-29.96-110.073-9.99-223.976-2.1-334.477-2.1"/><path d="M1860.21 1658.53v-192.31c0-48.91-4.1-99.9 4.72-148.26 6.61-36.18 21.97-69.64 31.55-104.96 11.84-43.68 12.45-86.41 7.3-131.19-12.6-109.662-38.93-215.679-43.9-326.261-3.45-76.363-20.38-151.24-20.44-227.848-.08-101.064 15.77-201.375 18.52-302.337 2.22-81.194-13.41-160.696-18.91-241.422-7.44-109.277 14.69-217.413 20.56-326.243 6.18-114.494.47-230.09.62-344.727M1734.11 1658.53c0-115.54-5.34-232.58 1.51-347.93 5.69-95.71 22.32-189.66 17.08-285.91-4.93-90.51-14.96-180.365-19.24-270.954-4.34-91.69-28.08-181.402-28.63-273.377-.45-74.836 14.59-148.448 16.99-223.1 3.14-97.335 2.67-194.996 3.84-292.372 1.1-91.526 10.53-181.85 13.81-273.173 4.55-126.03-4.54-252.651-5.38-378.722M1608 1658.53c0-221.05 8.58-442.7 4.85-663.638-1.34-80.338-1.4-161.389-5.5-241.605-5.1-99.699-31.98-197.38-32.61-297.405-.39-61.14 13.64-120.425 15.9-181.321 3.99-107.036 11.55-213.806 15.98-320.801 8.84-214.031 5.07-426.615 1.36-640.788M1481.91 1658.53c0-211.73-2.42-423.64.31-635.37 1.18-91.385 6.86-183.156 3.87-274.54-3.06-93.075-20.67-185.03-21.28-278.248-1.14-172.252 12.19-345.298 16.35-517.51 2.26-93.299-22.77-176.49-31.1-268.139-11.29-124.155 28.18-247.861 31.83-371.751M1355.8 1658.53c0-201.52-11.92-405.2-4.32-606.47 3.87-102.737 14.67-205.31 13.45-308.188-1.02-86.309-9.21-172.313-9.7-258.643-1.02-177.795-.51-355.467.47-533.262.28-49.626-1.55-94.095-17.96-141.519-17.46-50.502-43.26-98.334-53.41-151.179-22.83-118.958 61.75-229.377 71.47-346.277M1229.71 1658.53c.35-117.27 12.41-234.62 7.34-351.91-3.59-82.74-13.66-163.89-10.21-246.98 4.15-100.27 16.46-200.193 14.83-300.687-1.49-91.18-11.61-181.973-11.96-273.194-.29-75.691 7.78-150.975 8.68-226.605 1.2-102.369-6.13-204.554-8.23-306.862-1-48.891-1.98-94.604-13.64-142.456-12.59-51.643-31.08-101.92-38.45-154.745-16.23-116.227 44.36-227.054 51.66-342.119M1103.6 1658.53c3.56-121.16 35.89-244.83 22.82-366.01-8.07-74.92-25.94-142.64-22.07-219.16 4.79-94.629 19.24-188.805 16.67-283.735-2.75-101.248-18.52-202.272-17.26-303.601.92-74.306 25.82-144.616 29.9-218.453 5.77-104.672-19.24-210.363-27.35-314.403-7.81-100.147-10.58-203.596-12.03-304.069-1.61-112.273 10.46-223.956 9.32-336.127M977.486 1658.53c4.218-122.57 28.654-247.4 18.383-369.96-6.339-75.53-20.136-147.82-16.406-224.14 4.402-90.142 17.465-179.814 15.162-270.24-2.629-103.612-18.892-206.979-17.628-310.693.917-74.469 26.653-144.698 30.713-218.657 5.58-102.104-16.835-205.777-24.212-307.371-15.448-212.767-6.44-431.159-6.012-644.497M851.395 1658.53c-3.465-125.75-25.496-252.45-16.365-378.22 6.501-89.61 17.975-177.49 19.992-267.46 1.712-76.408 7.908-152.527 6.44-229.013-1.997-104.325-13.715-208.304-13.858-312.69-.102-76.446 11.474-152.015 13.247-228.338 2.079-89.529 6.399-178.916 9.232-268.404 6.97-220.431-15.876-441.146-18.688-661.433M725.283 1658.53c-4.932-127.01-49.34-253.18-33.423-380.62 12.249-98.05 37.173-190.27 37.968-289.784 1.386-174.228-9.66-347.56-10.597-521.605-.408-78.423 4.544-156.723 5.258-235.124.754-84.516 18.973-165.323 26.004-249.166 10.027-119.896-6.48-242.481-9.558-362.479-2.608-102.45-13.96-204.391-15.652-306.76M599.192 1658.53c-2.038-120.96-23.926-241.08-17.18-362.2 5.054-90.71 17.445-179.87 15.407-270.97-1.671-74.264-4.545-148.57-6.583-222.814-2.751-99.964-18.627-199.398-18.179-299.484.408-93.32 21.827-184.867 25.577-277.963 3.709-92.24 11.148-184.174 15.183-276.393 9.273-211.219-12.778-424.353-14.225-635.714M473.081 1658.53c.917-198.67 1.671-398.33-7.907-596.81-3.811-79.035-11.372-157.6-14.592-236.716-3.873-95.622-25.149-190.43-24.049-286.277 1.223-108.096 38.07-212.319 45.448-319.864 6.868-100.148 3.729-202.598 4.585-302.97 1.732-200.905-3.852-401.974-3.485-602.942M346.99 1658.53c0-202.56 1.039-405.32-5.646-607.8-2.71-82.352-7.846-164.565-10.332-246.941-2.833-93.564-17.568-186.782-16.753-280.449.897-102.45 26.637-202.862 31.895-305.027 4.993-97.193 2.385-195.546 2.996-292.881.55-88.694 3.811-177.266 4.789-265.939 1.264-115.595-6.582-230.946-6.909-346.501M220.878 1658.53c0-388.98-4.708-777.929-5.217-1166.881-.245-182.157 5.421-364.354 5.563-546.592.082-87.491 13.838-171.864 18.974-258.846 7.337-124.298-16.426-249.023-19.34-373.239M94.767 1658.53V-50.907c0-89.102 13.797-175.268 18.872-263.901 7.113-123.971-16.019-248.33-18.872-372.241"/></g></g></svg>