<svg width="385" height="110" fill="none" xmlns="http://www.w3.org/2000/svg"><mask id="a" fill="#fff"><path fill-rule="evenodd" clip-rule="evenodd" d="M10 .917c-5.523 0-10 4.478-10 10v55c0 5.523 4.477 10 10 10h271.835c11.873 20.493 7.665 33.5 7.665 33.5l26.499-33.5H375c5.523 0 10-4.477 10-10v-55c0-5.522-4.477-10-10-10H10z"/></mask><path fill-rule="evenodd" clip-rule="evenodd" d="M10 .917c-5.523 0-10 4.478-10 10v55c0 5.523 4.477 10 10 10h271.835c11.873 20.493 7.665 33.5 7.665 33.5l26.499-33.5H375c5.523 0 10-4.477 10-10v-55c0-5.522-4.477-10-10-10H10z" fill="#EBFDFF"/><path d="M281.835 75.918l1.731-1.003-.578-.998h-1.153v2zm7.665 33.499l-1.903-.615 3.472 1.856-1.569-1.241zm26.499-33.5v-2h-.968l-.601.76 1.569 1.24zM2 10.918a8 8 0 018-8v-4c-6.627 0-12 5.373-12 12h4zm0 55v-55h-4v55h4zm8 8a8 8 0 01-8-8h-4c0 6.628 5.373 12 12 12v-4zm271.835 0H10v4h271.835v-4zm7.665 35.5c1.903.616 1.903.615 1.904.614l.001-.003.002-.007.005-.017.015-.048.044-.153c.036-.128.082-.305.135-.532a21.33 21.33 0 00.348-1.937c.226-1.669.387-4.075.16-7.13-.454-6.12-2.463-14.786-8.548-25.29l-3.461 2.006c5.787 9.99 7.611 18.073 8.02 23.581.205 2.758.057 4.884-.135 6.295a17.184 17.184 0 01-.281 1.57 9.306 9.306 0 01-.112.437l-.003.009.001-.003.001-.003v-.002c.001-.001.001-.002 1.904.613zm24.93-34.74l-26.499 33.5 3.138 2.481 26.498-33.5-3.137-2.481zm60.57-.76h-59.001v4H375v-4zm8-8a8 8 0 01-8 8v4c6.627 0 12-5.372 12-12h-4zm0-55v55h4v-55h-4zm-8-8a8 8 0 018 8h4c0-6.627-5.373-12-12-12v4zm-365 0h365v-4H10v4z" fill="#000" mask="url(#a)"/></svg>