<svg width="35" height="35" fill="none" xmlns="http://www.w3.org/2000/svg"><g clip-path="url(#clip0_34_1761)"><path d="M25.882 18.087c2.081-.404 2.761-.997 2.22-1.596-.925-1.05-1.508-2.527-1.508-4.65 0-6.244-3.693-10.573-9.477-10.573-5.543 0-8.31 3.763-8.31 9.408 0 2.091 0 4.182-.926 5.232-.416.468-.084.932 1.064 1.305-.19.332.004.657.602.945-2.608 1.996-3.928 5.221-3.928 9.247-.207 5.761 9.32 5.35 12.664 5.35 7.666 0 11.499-1.042 11.499-4.184 0-3.872-.64-7.588-3.053-9.597a9.152 9.152 0 00-.847-.887z" fill="#1E1E1E" stroke="#1E1E1E" stroke-width="1.7" stroke-miterlimit="10"/><path d="M23.811 17.564c2.332-.405 3.11-1.027 2.542-1.656-.925-1.05-.925-3.11-.925-5.233 0-5.644-2.767-9.407-8.31-9.407-5.543 0-8.312 3.763-8.312 9.408 0 2.091 0 4.182-.925 5.232-.56.63.234 1.251 2.543 1.655-3.188 1.913-4.805 5.388-4.805 9.843 0 3.11 3.833 4.182 11.499 4.182 7.665 0 11.497-1.041 11.497-4.183 0-4.454-1.616-7.93-4.804-9.841z" fill="#FEC636" stroke="#1E1E1E" stroke-width="1.7" stroke-miterlimit="10"/><path d="M14.186 10.466a1.252 1.252 0 100-2.504 1.252 1.252 0 000 2.504zm5.862 0a1.252 1.252 0 100-2.504 1.252 1.252 0 000 2.504z" fill="#1E1E1E"/><path d="M9.801 17.984a10.513 10.513 0 013.11-1.05l-3.11 1.05z" fill="#FEC636"/><path d="M9.801 17.984a10.513 10.513 0 013.11-1.05" stroke="#1E1E1E" stroke-width="1.7" stroke-miterlimit="10" stroke-linecap="round"/><path d="M24.433 17.984c-1.041-1.05-3.11-1.05-3.11-1.05l3.11 1.05z" fill="#FEC636"/><path d="M24.433 17.984c-1.041-1.05-3.11-1.05-3.11-1.05" stroke="#1E1E1E" stroke-width="1.7" stroke-miterlimit="10" stroke-linecap="round"/><path d="M19.276 12.132c.009.93-.956 1.692-2.151 1.702-1.197.01-2.174-.735-2.18-1.665" stroke="#1E1E1E" stroke-width="1.7" stroke-linecap="round"/></g><defs><clipPath id="clip0_34_1761"><path fill="#fff" transform="translate(.699 .015)" d="M0 0h34v34H0z"/></clipPath></defs></svg>