<svg width="1600" height="750" fill="none" xmlns="http://www.w3.org/2000/svg"><mask id="a" style="mask-type:alpha" maskUnits="userSpaceOnUse" x="0" y="0" width="1600" height="750"><path d="M0 50C0 22.386 22.386 0 50 0h1500c27.61 0 50 22.386 50 50v650c0 27.614-22.39 50-50 50H955.334a50 50 0 01-44.346-26.903l-3.699-7.101c-45.005-86.41-168.785-86.003-213.221.701l-3.13 6.108A50 50 0 01646.441 750H50c-27.614 0-50-22.386-50-50V50z" fill="#147F93"/></mask><g opacity=".6" mask="url(#a)"><mask id="b" style="mask-type:luminance" maskUnits="userSpaceOnUse" x="0" y="-10" width="1598" height="770"><path d="M1598-9.135H0v768.27h1598V-9.135z" fill="#fff"/></mask><g opacity=".36" stroke="#DFF2F8" stroke-miterlimit="10" mask="url(#b)"><path d="M1668.73 22.886c-90.77 1.829-180.71 14.797-271.59 16.887-71.34 1.644-142.56 6.668-213.96 4.579-65.65-1.92-131.05-7.836-196.799-7.13-62.967.676-125.796 5.117-188.779 5.363-68.345.261-136.705.154-205.051-.185-72.355-.353-139.41-22.418-210.644-31.16-75.997-9.327-153.193 7.39-229.098 10.786-83.91 3.75-168.512.845-252.5.845m1768.421 95.081c-85.57-.491-179.02-9.372-263.58 4.887-77.37 13.045-148.08 42.808-227.82 37.952-63.98-3.903-127.01-15.611-191.333-14.105-58.588 1.367-116.746 11.339-175.426 10.556-76.72-1.03-151.564-22.188-228.023-26.69-67.454-3.98-135.215-9.342-202.73-12.338-159.201-7.068-320.169-.246-479.523-.246m1768.435 95.065c-164.98.861-330.08 28.073-495.06 24.662-62.41-1.291-124.94-4.902-187.381-3.872-61.016.998-121.878 8.266-182.925 7.636-74.798-.783-147.769-20.374-222.337-24.139-70.358-3.549-140.654 5.455-210.92 7.268-73.17 1.89-144.881-8.543-217.789-11.094-83.834-2.919-168.144-.461-252.023-.461m1768.435 95.065c-91.75 4.856-183.76 46.465-275.75 28.687-76.27-14.735-146.75-48.109-225.9-41.886-60.57 4.764-119.51 16.134-180.483 16.595-66.256.507-132.588 2.059-198.859 1.367-70.159-.737-139.195-15.442-209.246-16.886-78.379-1.613-151.226 30.9-227.546 43.714-72.018 12.093-130.806-19.759-200.349-29.163-81.206-10.971-168.436-2.428-250.302-2.428m1768.435 95.081c-91.03 4.825-184.65 48.002-275.73 28.626-76.69-16.318-143.96-53.702-224.39-47.156-60.81 4.947-119.66 16.763-180.907 17.409-67.178.691-134.278 5.915-201.486 4.994-69.298-.953-137.751-13.507-206.972-15.012-80.346-1.752-152.517 35.002-230.297 49.153-74.414 13.537-127.809-24.938-198.336-35.632-80.484-12.215-168.988-2.382-250.317-2.382m1768.435 95.082c-88.85.461-177.46 16.042-266.38 9.942-73.8-5.071-145.51-16.81-219.75-16.718-63.12.092-127.55-2.32-190.533 1.706-66.548 4.256-130.483 26.935-197.399 27.965-70.174 1.075-139.779-11.878-209.861-13.399-77.657-1.69-149.244 27.089-225.287 37.691-78.502 10.94-134.017-31.314-207.986-44.16-80.054-13.905-170.08-3.027-251.224-3.027m1768.42 95.065c-159.62-1.613-319.34 3.596-478.94-1.245-64.51-1.951-131.44-10.894-195.833-5.47-66.732 5.624-127.948 37.369-195.387 39.136-70.619 1.859-140.578-12.661-211.089-13.86-76.151-1.306-147.523 23.463-222.43 32.498-80.514 9.711-137.504-33.988-213.333-47.771-37.629-6.837-78.348-3.273-116.47-3.273H-99.69m1768.42 95.067c-82.61 3.103-159.94 38.69-243.41 25.783-79.33-12.262-152.62-42.455-234.18-36.001-67.91 5.377-134.8 15.718-202.853 19.975-66.179 4.148-130.16 27.473-196.739 26.781-70.849-.737-135.061-36.323-205.112-41.778-74.799-5.824-143.866 30.562-216.222 42.685-77.58 12.984-143.205-24.938-218.112-35.033-81.666-11.002-169.449-2.412-251.792-2.412m1768.42 95.066c-82.36 7.007-139.43 74.261-226.01 49.768-83.51-23.632-159.73-85.032-250.23-68.806-71.91 12.892-135.86 41.825-209.719 44.882-65.78 2.72-132.173 17.686-198.076 14.705-72.862-3.288-128.377-59.31-199.273-69.052-73.186-10.049-140.886 37.768-210.153 52.673-74.86 16.103-148.798-15.888-222.782-22.588-82.989-7.529-168.866-1.582-252.177-1.582"/><path d="M1497.57 1239.86c0-83.01-11.11-174.95 3.49-256.883 4.78-26.812 15.9-51.674 22.83-77.871 8.68-32.852 9.02-65.057 5.3-98.692-15.38-138.919-43.88-276.869-44.14-417.37-.14-78.41 10.09-156.527 12.2-234.876 1.61-59.986-10.93-117.96-15.23-177.485-6.05-83.695 10.17-167.483 14.41-250.917 4.29-84.479 1.16-169.757 1.16-254.343m-95.1 1768.437v-144.99c0-36.88-3.09-75.32 3.57-111.785 4.97-27.274 16.56-52.504 23.78-79.132 8.93-32.928 9.39-65.149 5.5-98.907-9.49-82.681-29.35-162.612-33.09-245.984-2.6-57.574-15.37-114.027-15.42-171.785-.06-76.197 11.9-151.826 13.97-227.946 1.68-61.215-10.11-121.156-14.26-182.018-5.61-82.389 11.08-163.918 15.51-245.969 4.65-86.323.35-173.475.46-259.906m-95.08 1768.422c0-87.11-4.03-175.35 1.13-262.322 4.29-72.156 16.83-142.99 12.88-215.561-3.72-68.238-11.28-135.984-14.51-204.283-3.27-69.129-21.17-136.767-21.58-206.111-.34-56.422 11-111.921 12.81-168.205 2.37-73.385 2.01-147.016 2.89-220.432.83-69.006 7.94-137.105 10.42-205.957 3.42-95.02-3.43-190.485-4.06-285.535m-95.07 1768.406c0-166.66 6.47-333.771 3.66-500.347-1.01-60.57-1.06-121.679-4.15-182.157-3.84-75.167-24.11-148.814-24.58-224.227-.29-46.096 10.28-90.794 11.98-136.706 3.01-80.699 8.71-161.198 12.05-241.866 6.67-161.368 3.82-321.644 1.03-483.119m-95.05 1768.422c0-159.64-1.83-319.404.23-479.035.89-68.899 5.18-138.089 2.92-206.987-2.31-70.174-15.58-139.503-16.04-209.784-.86-129.868 9.19-260.336 12.32-390.173 1.71-70.343-17.16-133.065-23.45-202.163-8.51-93.606 21.25-186.873 24-280.28M1022.2 1239.86c0-151.94-8.99-305.499-3.26-457.247 2.92-77.457 11.06-154.791 10.14-232.356-.77-65.072-6.94-129.914-7.31-195.002-.77-134.047-.39-268.003.35-402.05.22-37.415-1.17-70.942-13.54-106.697-13.164-38.076-32.617-74.138-40.269-113.981-17.209-89.688 46.559-172.937 53.889-261.073M927.132 1239.86c.261-88.42 9.358-176.89 5.532-265.318-2.705-62.384-10.295-123.569-7.699-186.213 3.135-75.598 12.416-150.934 11.187-226.701-1.122-68.745-8.759-137.198-9.02-205.973-.215-57.067 5.87-113.827 6.546-170.848.906-77.18-4.625-154.222-6.208-231.357-.753-36.861-1.49-71.326-10.279-107.404-9.496-38.935-23.433-76.842-28.995-116.669-12.231-87.629 33.451-171.186 38.951-257.939M832.051 1239.86c2.689-91.35 27.058-184.59 17.209-275.951-6.085-56.483-19.56-107.542-16.641-165.239 3.611-71.342 14.505-142.345 12.569-213.917-2.074-76.336-13.967-152.502-13.014-228.899.691-56.022 19.468-109.032 22.541-164.701 4.348-78.917-14.505-158.602-20.621-237.042-5.885-75.505-7.974-153.5-9.065-229.251-1.214-84.648 7.882-168.851 7.022-253.422M736.97 1239.86c3.18-92.41 21.604-186.52 13.859-278.932-4.778-56.944-15.181-111.445-12.369-168.989 3.319-67.961 13.168-135.568 11.432-203.744-1.982-78.118-14.244-156.051-13.291-234.246.692-56.145 20.098-109.094 23.156-164.855 4.21-76.981-12.692-155.144-18.254-231.74-11.647-160.415-4.856-325.071-4.533-485.916M641.904 1239.86c-2.612-94.81-19.222-190.34-12.338-285.155 4.901-67.562 13.552-133.817 15.073-201.655 1.291-57.605 5.962-114.995 4.856-172.661-1.506-78.656-10.341-157.05-10.449-235.751-.077-57.636 8.651-114.611 9.988-172.154 1.567-67.5 4.824-134.893 6.96-202.362 5.255-166.192-11.969-332.599-14.09-498.684M546.823 1239.86c-3.718-95.76-37.199-190.89-25.199-286.968 9.235-73.923 28.026-143.451 28.626-218.48 1.045-131.359-7.283-262.042-7.99-393.262-.308-59.126 3.426-118.16 3.964-177.27.569-63.721 14.305-124.644 19.606-187.858 7.56-90.394-4.886-182.817-7.206-273.288-1.967-77.242-10.525-154.1-11.801-231.28M451.757 1239.86c-1.536-91.2-18.039-181.76-12.953-273.078 3.811-68.391 13.153-135.615 11.617-204.298-1.26-55.991-3.427-112.013-4.963-167.99-2.075-75.367-14.044-150.334-13.706-225.794.307-70.358 16.456-139.379 19.283-209.568 2.797-69.544 8.405-138.857 11.447-208.386 6.992-159.247-9.634-319.938-10.725-479.292m-95.08 1768.406c.691-149.79 1.26-300.321-5.962-449.964-2.873-59.587-8.574-118.821-11.002-178.469-2.919-72.094-18.96-143.574-18.131-215.838.922-81.498 28.703-160.076 34.265-241.159 5.178-75.506 2.812-152.748 3.457-228.422 1.306-151.472-2.904-303.067-2.627-454.585M261.611 1239.86c0-152.72.784-305.591-4.256-458.246-2.044-62.091-5.916-124.075-7.791-186.182-2.135-70.543-13.245-140.824-12.63-211.443.676-77.242 20.083-152.947 24.047-229.974 3.764-73.277 1.798-147.43 2.259-220.816.415-66.87 2.873-133.648 3.611-200.503.952-87.152-4.964-174.12-5.209-261.242M166.53 1239.86c0-293.268-3.55-586.516-3.934-879.765-.184-137.335 4.087-274.702 4.195-412.1.061-65.963 10.433-129.576 14.305-195.155 5.532-93.713-12.384-187.75-14.582-281.402M71.45 1239.86V-48.961c0-67.178 10.402-132.143 14.227-198.967C91.04-341.396 73.6-435.155 71.45-528.577"/></g></g></svg>