<svg width="1061" height="507" fill="none" xmlns="http://www.w3.org/2000/svg"><g opacity=".36" stroke="#60A4FF" stroke-miterlimit="10"><path d="M1400.73-3.913c-85.57-.491-179.02-9.373-263.58 4.886-77.37 13.046-148.077 42.808-227.823 37.953-63.981-3.903-127.01-15.611-191.33-14.106-58.588 1.368-116.746 11.34-175.426 10.557-76.72-1.03-151.564-22.188-228.023-26.69-67.454-3.98-135.215-9.342-202.73-12.339-159.201-7.068-320.169-.245-479.523-.245M1400.73 91.168c-164.98.86-330.08 28.073-495.06 24.662-62.414-1.291-124.936-4.902-187.381-3.873-61.016.999-121.878 8.267-182.925 7.637-74.798-.784-147.768-20.374-222.337-24.139-70.358-3.55-140.654 5.455-210.92 7.268-73.17 1.89-144.88-8.543-217.789-11.094-83.834-2.92-168.144-.46-252.023-.46m1768.435 95.064c-91.75 4.855-183.76 46.465-275.75 28.687-76.27-14.735-146.755-48.109-225.902-41.886-60.57 4.763-119.512 16.134-180.481 16.595-66.256.507-132.588 2.059-198.859 1.367-70.159-.737-139.195-15.442-209.246-16.886-78.379-1.614-151.226 30.899-227.546 43.714-72.018 12.093-130.805-19.76-200.349-29.163-81.206-10.971-168.436-2.428-250.302-2.428m1768.435 95.081c-91.03 4.825-184.65 48.002-275.73 28.626-76.69-16.318-143.963-53.702-224.385-47.156-60.816 4.947-119.666 16.763-180.912 17.409-67.178.691-134.278 5.915-201.486 4.993-69.298-.952-137.751-13.506-206.972-15.012-80.346-1.751-152.517 35.003-230.297 49.154C6.534 332.865-46.86 294.39-117.388 283.696c-80.484-12.216-168.988-2.382-250.317-2.382m1768.435 95.082c-88.85.461-177.46 16.041-266.38 9.941-73.8-5.07-145.507-16.809-219.753-16.717-63.121.092-127.548-2.32-190.53 1.705-66.548 4.257-130.483 26.936-197.399 27.965-70.174 1.076-139.779-11.877-209.861-13.398-77.657-1.69-149.244 27.089-225.287 37.691-78.502 10.94-134.017-31.315-207.986-44.16-80.054-13.906-170.079-3.027-251.224-3.027m1768.42 95.065c-159.62-1.614-319.34 3.595-478.942-1.245-64.503-1.951-131.435-10.894-195.831-5.47-66.732 5.624-127.948 37.369-195.387 39.136-70.619 1.859-140.578-12.661-211.089-13.86-76.151-1.306-147.523 23.463-222.43 32.498-80.514 9.711-137.505-33.988-213.333-47.771-37.629-6.838-78.348-3.273-116.469-3.273H-367.69"/><path d="M1039.43 1117.99c0-87.11-4.03-175.349 1.13-262.317 4.29-72.156 16.83-142.99 12.88-215.561-3.72-68.238-11.28-135.984-14.51-204.283-3.27-69.129-21.17-136.767-21.58-206.111-.34-56.422 11-111.922 12.81-168.205 2.37-73.385 2.01-147.016 2.89-220.432.83-69.006 7.94-137.105 10.42-205.957 3.42-95.02-3.43-190.485-4.06-285.535M944.343 1117.99c0-166.652 6.469-333.766 3.657-500.342-1.014-60.571-1.06-121.679-4.148-182.157-3.842-75.168-24.109-148.814-24.585-224.227-.292-46.096 10.28-90.794 11.985-136.706 3.012-80.699 8.712-161.198 12.047-241.866 6.668-161.368 3.826-321.644 1.029-483.119m-95.05 1768.417c0-159.63-1.829-319.4.23-479.031.892-68.898 5.179-138.088 2.92-206.987-2.305-70.173-15.581-139.502-16.042-209.783-.86-129.869 9.189-260.336 12.323-390.174 1.706-70.342-17.163-133.064-23.447-202.162-8.513-93.606 21.25-186.874 24.001-280.28M754.198 1117.99c0-151.932-8.989-305.494-3.258-457.242 2.92-77.457 11.063-154.791 10.141-232.356-.768-65.072-6.945-129.914-7.313-195.002-.769-134.047-.385-268.003.353-402.05.215-37.415-1.168-70.942-13.537-106.698-13.168-38.075-32.621-74.138-40.273-113.98-17.209-89.688 46.557-172.937 53.887-261.073M659.132 1117.99c.261-88.41 9.357-176.886 5.531-265.313-2.704-62.384-10.294-123.569-7.698-186.214 3.135-75.597 12.416-150.934 11.186-226.7-1.121-68.745-8.758-137.198-9.019-205.974-.215-57.067 5.87-113.826 6.546-170.847.906-77.18-4.625-154.223-6.208-231.357-.753-36.861-1.491-71.326-10.28-107.404-9.495-38.936-23.432-76.842-28.994-116.669-12.231-87.629 33.451-171.186 38.951-257.939M564.051 1117.99c2.689-91.35 27.058-184.584 17.209-275.946-6.085-56.483-19.56-107.543-16.641-165.24 3.611-71.341 14.505-142.345 12.569-213.917-2.074-76.335-13.967-152.501-13.014-228.898.691-56.022 19.468-109.032 22.541-164.701 4.348-78.917-14.505-158.602-20.621-237.042-5.885-75.506-7.974-153.5-9.065-229.252-1.214-84.648 7.882-168.85 7.022-253.421M468.97 1117.99c3.18-92.41 21.603-186.52 13.859-278.927-4.778-56.944-15.181-111.445-12.369-168.989 3.319-67.961 13.168-135.569 11.432-203.745-1.982-78.117-14.244-156.051-13.291-234.245.691-56.145 20.098-109.094 23.156-164.855 4.21-76.98-12.692-155.144-18.254-231.741-11.647-160.415-4.856-325.07-4.533-485.915M373.904 1117.99c-2.612-94.8-19.222-190.33-12.338-285.15 4.901-67.562 13.552-133.817 15.073-201.656 1.291-57.604 5.962-114.994 4.856-172.66-1.506-78.656-10.341-157.05-10.449-235.751-.077-57.636 8.651-114.611 9.988-172.154 1.567-67.5 4.824-134.893 6.96-202.362 5.255-166.192-11.969-332.599-14.09-498.684M278.823 1117.99c-3.718-95.76-37.199-190.883-25.199-286.963 9.235-73.923 28.026-143.451 28.626-218.481 1.044-131.358-7.284-262.041-7.99-393.261-.308-59.126 3.426-118.16 3.964-177.27.568-63.72 14.305-124.645 19.606-187.858 7.56-90.394-4.886-182.817-7.206-273.289-1.967-77.241-10.525-154.099-11.801-231.279M183.757 1117.99c-1.536-91.19-18.039-181.756-12.953-273.073 3.811-68.391 13.153-135.615 11.617-204.298-1.26-55.992-3.427-112.014-4.963-167.99-2.075-75.367-14.044-150.335-13.706-225.794.307-70.358 16.456-139.379 19.283-209.569 2.797-69.543 8.405-138.857 11.447-208.385 6.992-159.247-9.634-319.938-10.725-479.292M88.677 1117.99c.691-149.781 1.26-300.316-5.962-449.959-2.873-59.587-8.574-118.821-11.002-178.469-2.92-72.095-18.96-143.574-18.13-215.838.921-81.498 28.702-160.076 34.264-241.16 5.178-75.505 2.812-152.747 3.457-228.421 1.306-151.472-2.904-303.067-2.627-454.585"/></g></svg>