<svg width="116" height="40" fill="none" xmlns="http://www.w3.org/2000/svg"><g clip-path="url(#clip0_65_3909)"><mask id="a" style="mask-type:luminance" maskUnits="userSpaceOnUse" x="7" y="0" width="36" height="36"><path d="M42.564.913H7.554v34.721h35.01V.914z" fill="#fff"/></mask><g mask="url(#a)" fill-rule="evenodd" clip-rule="evenodd"><path d="M32.334 24.262l-4.598 2.893-.463-1.44 3.305-1.723 2.79-1.437-.311 1.97-.723-.263zm.394-6.05c-.224.228-3.327 2.386-3.94 2.696-.3.151-.498-.358-.789-.197-.232.128-.483 1.081-.74 1.147l-.008-2.358 3.59-1.877 2.524-1.302.01 1.963c0 .044-.005.278-.015.307-.06.173-.417-.409-.632-.379zm-9.703 5.906l-.006 11.52 13.182-7.11c.98-.775 1.335-1.955 1.58-3.153.244-1.193.356-4.963-.08-5.827-.273-.541-.59-.727-1.229-.876.329-.49.498-.484.922-1.313.214-.418.46-1.161.514-1.72.103-1.057.175-3.427-.122-4.074-.257-.306-.3-.456-.705-.671-1.007-.537-2.314-.077-3.256.392l-10.798 5.642-.002 7.19z" fill="#BCD400"/><path d="M14.472 28.2c-.288-.168-.168-.454-.184-.86.464.107 4.104 2.284 5.113 2.764l-.003.728-4.926-2.631zm-.156-4.658l5.09 2.798-.034.716-5.08-2.735.024-.779zm8.142 12.028l-.09-18.94-2.59-1.3c-.224-.14-.14-.135-.384-.15l-.034 7.863c-.186-.02-4.843-2.51-5.115-2.729V12.54c.016-.011.054-.29.054-.29-.216-.047-2.369-1.249-2.53-1.405l-.034.093c-.104.512.041 18.263.041 18.648 2.184 1.157 4.428 2.543 6.591 3.726l2.691 1.515c.322.18 1.098.689 1.4.743z" fill="#E7EC82"/><path d="M11.77 10.846c.161.157 2.314 1.358 2.53 1.406.33-.317 3.293-1.492 4.008-1.844l3.555-1.56c.079-.032.205-.078.273-.112l.253-.19c-.25-.195-.667-.384-.98-.469.11-.087-.105-.007.19-.115-.373.076-.383.089-.645-.14.447-.231 3.333-.38 4.092-.483l3.867-.355c.243.02.07-.02.182.048-.017.182 0 .074-.079.156-.012.013-.07.05-.081.059-.01.007-.04.04-.048.027-.008-.014-.035.015-.051.027h.278l-.284 4.304c-.222-.02-1.163-.565-1.41-.705-.584-.335-.427-.002-1.423.41-.319.266-1.252.722-1.678.976-.573.342-1.17.673-1.76 1.002-.515.399-2.46 1.353-2.998 1.733-.18.127-.063-.015-.166.161.244.015.16.01.385.15l2.59 1.3c.243-.23 9.909-5.39 10.7-5.838.85-.482 2.254-1 3.316-.762.563.126.611.32.943.51-.07-.307-.257-.476-.487-.654-1.187-.92-2.3-1.588-3.651-2.264-.253-.126-.544-.256-.785-.398-.641-.374-5.103-2.495-5.659-2.554-1.55-.165-3.167.62-4.549 1.285-.296.143-.502.23-.809.374l-4.796 2.235c-.286.144-.542.24-.81.372l-3.217 1.514c-.247.125-.587.227-.796.394z" fill="#EAE958"/><path d="M21.599 7.96c-.296.108-.08.028-.191.115.314.085.73.275.98.47.13.111.07.026.09.261-.243.208-1.604.76-2.008.942-.661.298-1.335.58-2 .896l-4.081 1.8-.144.096v7.774c.273.22 4.93 2.708 5.115 2.729l.035-7.862c.103-.176-.014-.034.166-.162.538-.38 2.483-1.334 2.998-1.733-.146-.166-.013.075-.073-.15-.063-.239.043-2.658.05-2.896.105.116.107.177.298.189-.295.285-.172.033-.153.13.49.103.293.107.788.07.008.012.012.036.015.044.003.007.01.033.015.04.109.215-.199-.018.082.095.198.08.48-.046.48-.046l1.013.432c.404-.06-.333-.093.222-.08l.333.094c.539.153.177-.118.368.1.996-.412.839-.744 1.424-.41.246.14 1.187.685 1.409.706l.283-4.305h-.277l-7.237.661z" fill="#B9D100"/><path d="M22.456 13.361c.588-.33 3.875-2.219 4.447-2.56.426-.254 0 0 1.926.803.123-1.869.119-1.808.145-4.305-1.38.131-7.673.586-7.673.586 1.147.71 0 0 1.1.67.06.225.055 4.806.055 4.806zm-8.211 6.956l5.115 2.729.016-3.78.003-.758.004-.937-5.138 2.746z" fill="#97BC00"/><path d="M14.292 24.325l3.82 2.078c.43.21.81.47 1.26.656l.033-.716-5.09-2.797-.023.78zm5.108 6.506l.002-.728c-1.009-.48-4.649-2.656-5.113-2.764l-.014.734 5.124 2.758z" fill="#A5C500"/><path d="M33.35 18.695c-.028-.01-2.507-1.07-2.507-1.07l-3.59 1.877.008 2.358 6.088-3.165z" fill="#707A00"/><path d="M30.842 17.622s2.513 1.084 2.507 1.07c.01-.03.027-.365.026-.409l-.01-1.963-2.523 1.302z" fill="#364A00"/><path d="M33.35 24.92c-.028-.01-2.507-1.07-2.507-1.07l-3.59 1.876.008 2.358 6.088-3.165z" fill="#707A00"/><path d="M30.842 23.85s2.513 1.085 2.507 1.07c.01-.03.027-.364.026-.408l-.01-1.963-2.523 1.302z" fill="#364A00"/><path d="M14.3 12.252c-.132.35-.154.136.088.193l4.082-1.8c.665-.317 1.339-.598 2-.896.404-.182 1.765-.734 2.007-.942-.02-.235.041-.15-.089-.261l-.253.19c-.067.033-.194.079-.272.112l-3.555 1.559c-.716.352-3.68 1.527-4.008 1.845zm7.296-4.29l7.237-.661c.016-.012.043-.041.051-.027.007.014.039-.02.048-.027.012-.009.07-.046.082-.059.078-.082.06.027.078-.156-.111-.069.06-.028-.182-.048l-3.866.355c-.76.103-3.645.252-4.093.482.262.23.272.217.645.141z" fill="#F0F3B0"/></g><mask id="b" style="mask-type:luminance" maskUnits="userSpaceOnUse" x="43" y="6" width="61" height="24"><path d="M103.979 6.637H43.942v23.219h60.037V6.636z" fill="#fff"/></mask><g filter="url(#filter0_d_65_3909)" fill-rule="evenodd" clip-rule="evenodd" fill="#EBFDFF" mask="url(#b)"><path d="M60.624 10.168v8.285c0 .403-.451.855-.854.855h-.657V9.181c.395 0 1.421-.014 1.488.579l.023.408zm-5.189 19.668c0-.015 3.423-.006 3.678-.006v-8.417h.197c.058.447.091.608.197 1.052l1.643 7.365c.065-.022.379-.004.721 0h3.154c-.054-.647-2.299-8.373-2.299-8.878.203-.047.471-.226.64-.346.581-.41.936-1.3.936-2.087V9.642c0-.8-.404-1.613-.835-1.992-.457-.401-1.393-.578-2.251-.574-1.904.01-3.811 0-5.715 0-.054 7.632-.066 22.76-.066 22.76zm-6.239-9.21c0 .878.06 5.857-.054 6.325-.059.24-.076.248-.255.402-.377.325-.773.31-1.267.31v-8.68c.496 0 1.208-.007 1.446.525.13.263.13.395.13 1.118zm0-9.995v5.26c0 .906-.58 1.053-1.576 1.053v-7.76c.549 0 .997.082 1.298.345.344.378.278.462.278 1.102zM43.941 7.54v22.293h5.978c.31.003.935-.157 1.36-.35 1.43-.674 1.596-1.83 1.596-3.333 0-1.149.124-5.57-.17-6.408-.3-.862-1.574-1.428-2.462-1.479-.395-.021-.504.11-.587-.202 1.709 0 3.087-.724 3.087-2.564V9.973c0-1.806-1.156-2.805-2.89-2.894-1.842-.095-4.037 0-5.912 0v.461zm35.143 22.289l4.939-.002 2.812-22.75h-3.613s-1.51 16.308-1.51 16.176l-1.84-16.177h-3.613c.912 7.63 1.88 15.126 2.825 22.753zm20.078-9.579c.275.23 1.104.779 1.136 1.164l.002.919-.002 4.276c.002.387.149 1.026-.725 1.053-.575.018-.854-.294-.855-.852l.004-5.265h-3.613l.009 5.91c.05.479.123 1.192.517 1.521.394.263.995.525 1.51.658 1.118.288 5.537.253 6.175-.46.722-.658.591-2.673.591-4.078 0-1.546.005-4.561.003-4.672-.017-.836-.653-1.172-1.231-1.66l-1.547-1.345c-.54-.515-1.462-1.142-1.881-1.668-.494-.62-.467-.778-.467-1.834l.015-4.654c.065-.244.379-.41.772-.417.395.008.461.008.789.402l.013 5.015s3.166-.017 3.6-.017v-3.42c0-1.352-.066-2.17-.459-2.96a1.657 1.657 0 00-.881-.827c-1.189-.508-4.991-.54-6.19-.067-.444.175-.651.388-.944.764-.328.526-.328.789-.328 2.959 0 .087-.066 5.458.093 5.89.218.621 3.07 2.905 3.894 3.665zm-32.756 9.58h8.541v-2.17c0-.041-4.861 0-4.861 0v-8.614h4.795V16.94h-4.795V9.18h4.795c0-2.466.004-2.104.004-2.104h-8.412a3363.85 3363.85 0 00-.066 22.753zm22.399-.001c-.02.056 3.679 0 3.679 0V7.076h-3.679V29.83z"/><path d="M95.713 28.986l-.078-.011v.066l.078-.055z"/></g></g><defs><clipPath id="clip0_65_3909"><path fill="#fff" transform="translate(0 .918)" d="M0 0h116v38.667H0z"/></clipPath><filter id="filter0_d_65_3909" x="43.941" y="6.637" width="60.31" height="23.492" filterUnits="userSpaceOnUse" color-interpolation-filters="sRGB"><feFlood flood-opacity="0" result="BackgroundImageFix"/><feColorMatrix in="SourceAlpha" values="0 0 0 0 0 0 0 0 0 0 0 0 0 0 0 0 0 0 127 0" result="hardAlpha"/><feOffset dx=".275" dy=".275"/><feComposite in2="hardAlpha" operator="out"/><feColorMatrix values="0 0 0 0 0.117647 0 0 0 0 0.117647 0 0 0 0 0.117647 0 0 0 1 0"/><feBlend in2="BackgroundImageFix" result="effect1_dropShadow_65_3909"/><feBlend in="SourceGraphic" in2="effect1_dropShadow_65_3909" result="shape"/></filter></defs></svg>