<svg width="520" height="280" fill="none" xmlns="http://www.w3.org/2000/svg"><mask id="a" style="mask-type:alpha" maskUnits="userSpaceOnUse" x="0" y="0" width="520" height="280"><rect width="520" height="280" rx="30" fill="#007FB9"/></mask><g opacity=".4" mask="url(#a)"><mask id="b" style="mask-type:luminance" maskUnits="userSpaceOnUse" x="-2" y="-310" width="1598" height="770"><path d="M1596-309.135H-2v768.27h1598v-768.27z" fill="#fff"/></mask><g opacity=".36" stroke="#EBFDFF" stroke-miterlimit="10" mask="url(#b)"><path d="M1666.73 8.098c-91.75 4.856-183.76 46.465-275.75 28.687-76.27-14.735-146.75-48.109-225.9-41.886-60.57 4.764-119.51 16.134-180.483 16.595-66.256.507-132.588 2.059-198.859 1.367-70.159-.737-139.195-15.442-209.246-16.886-78.379-1.613-151.226 30.9-227.546 43.714-72.018 12.093-130.806-19.76-200.349-29.163C67.391-.445-19.839 8.098-101.705 8.098m1768.435 95.081c-91.03 4.825-184.65 48.002-275.73 28.626-76.69-16.318-143.96-53.702-224.39-47.156-60.81 4.948-119.66 16.763-180.907 17.409-67.178.691-134.278 5.915-201.486 4.994-69.298-.953-137.751-13.507-206.972-15.012-80.346-1.752-152.517 35.002-230.297 49.153-74.414 13.537-127.809-24.938-198.336-35.632-80.484-12.215-168.988-2.382-250.317-2.382m1768.435 95.082c-88.85.461-177.46 16.042-266.38 9.942-73.8-5.071-145.51-16.81-219.75-16.718-63.12.092-127.55-2.32-190.533 1.706-66.548 4.256-130.483 26.935-197.399 27.965-70.174 1.075-139.779-11.878-209.861-13.399-77.657-1.69-149.244 27.089-225.287 37.691-78.502 10.94-134.017-31.314-207.986-44.16-80.054-13.906-170.08-3.027-251.224-3.027"/><path d="M544.823 939.856c-3.718-95.757-37.199-190.884-25.199-286.964 9.235-73.923 28.027-143.451 28.626-218.48 1.045-131.359-7.283-262.042-7.99-393.262-.307-59.126 3.426-118.16 3.964-177.27.569-63.721 14.305-124.644 19.606-187.858 7.56-90.394-4.886-182.817-7.206-273.288-1.967-77.242-10.525-154.1-11.801-231.28M449.758 939.856c-1.537-91.194-18.039-181.757-12.954-273.074 3.811-68.391 13.153-135.615 11.617-204.298-1.26-55.991-3.427-112.013-4.963-167.99-2.075-75.367-14.044-150.334-13.706-225.794.307-70.358 16.456-139.38 19.283-209.568 2.797-69.544 8.405-138.857 11.448-208.386 6.991-159.247-9.635-319.938-10.725-479.292M354.677 939.856c.691-149.782 1.26-300.317-5.962-449.96-2.873-59.587-8.574-118.821-11.002-178.469-2.919-72.094-18.96-143.574-18.131-215.838.922-81.498 28.703-160.076 34.265-241.159 5.178-75.506 2.812-152.748 3.457-228.422 1.306-151.472-2.904-303.067-2.627-454.585M259.611 939.856c0-152.717.784-305.587-4.256-458.242-2.044-62.091-5.916-124.075-7.791-186.182-2.135-70.543-13.245-140.824-12.63-211.443.676-77.242 20.083-152.947 24.047-229.974 3.764-73.278 1.798-147.431 2.259-220.816.415-66.87 2.873-133.648 3.611-200.503.952-87.152-4.964-174.12-5.209-261.242M164.53 939.856c0-293.264-3.55-586.512-3.934-879.76-.184-137.337 4.087-274.703 4.195-412.1.061-65.964 10.433-129.577 14.305-195.156 5.532-93.713-12.384-187.75-14.582-281.402M69.45 939.856V-348.962c0-67.177 10.402-132.142 14.228-198.966C89.04-641.396 71.6-735.155 69.449-828.577"/></g></g></svg>