<svg width="520" height="375" fill="none" xmlns="http://www.w3.org/2000/svg"><mask id="b" style="mask-type:alpha" maskUnits="userSpaceOnUse" x="0" y="0" width="520" height="375"><mask id="a" fill="#fff"><path d="M0 30.918c0-16.569 13.431-30 30-30h460c16.569 0 30 13.431 30 30v314c0 16.569-13.431 30-30 30H30c-16.569 0-30-13.431-30-30v-314z"/></mask><path d="M0 30.918c0-16.569 13.431-30 30-30h460c16.569 0 30 13.431 30 30v314c0 16.569-13.431 30-30 30H30c-16.569 0-30-13.431-30-30v-314z" fill="#60A4FF"/><path d="M0 .918h520H0zm522 344c0 17.673-14.327 32-32 32H32c-17.673 0-32-14.327-32-32 0 15.464 13.431 28 30 28h460c15.464 0 28-12.536 28-28h4zm-522 30v-374 374zm490-374c17.673 0 32 14.327 32 32v312c0 17.673-14.327 32-32 32v-4c15.464 0 28-12.536 28-28v-314c0-16.569-12.536-30-28-30z" fill="#000" mask="url(#a)"/></mask><g opacity=".4" mask="url(#b)"><mask id="c" style="mask-type:luminance" maskUnits="userSpaceOnUse" x="-612" y="-384" width="1599" height="770"><path d="M986-383.082H-612v768.269H986v-768.269z" fill="#fff"/></mask><g opacity=".36" stroke="#60A4FF" stroke-miterlimit="10" mask="url(#c)"><path d="M1056.73 29.232c-91.027 4.825-184.648 48.001-275.734 28.626C704.307 41.54 637.037 4.156 556.615 10.7c-60.816 4.948-119.666 16.764-180.912 17.41-67.178.69-134.278 5.915-201.486 4.993-69.298-.953-137.751-13.506-206.972-15.012-80.346-1.752-152.517 35.002-230.297 49.154-74.414 13.537-127.809-24.938-198.336-35.632-80.484-12.216-168.988-2.382-250.317-2.382m1768.435 95.083c-88.845.461-177.458 16.041-266.377 9.941-73.8-5.07-145.51-16.809-219.756-16.717-63.121.092-127.548-2.32-190.53 1.705-66.548 4.257-130.483 26.936-197.4 27.965-70.173 1.076-139.778-11.877-209.86-13.398-77.657-1.69-149.244 27.089-225.287 37.691-78.502 10.94-134.017-31.315-207.986-44.16-80.054-13.906-170.079-3.027-251.224-3.027m1768.42 95.065c-159.618-1.614-319.341 3.595-478.942-1.245-64.504-1.951-131.435-10.894-195.832-5.47-66.731 5.624-127.947 37.369-195.386 39.136-70.619 1.859-140.578-12.661-211.09-13.86-76.15-1.306-147.522 23.463-222.429 32.498-80.514 9.711-137.504-33.988-213.333-47.771-37.629-6.838-78.348-3.273-116.469-3.273H-711.69m1768.42 95.066c-82.607 3.104-159.941 38.69-243.406 25.784-79.331-12.262-152.624-42.455-234.184-36.002-67.915 5.378-134.8 15.719-202.853 19.975-66.179 4.149-130.16 27.474-196.739 26.782-70.849-.737-135.061-36.323-205.112-41.778-74.799-5.824-143.866 30.562-216.222 42.685-77.58 12.984-143.205-24.938-218.112-35.033-81.667-11.002-169.449-2.413-251.792-2.413"/><path d="M505.278 865.908c0-159.631-1.828-319.4.231-479.031.891-68.898 5.178-138.089 2.919-206.987-2.305-70.174-15.581-139.502-16.041-209.784-.861-129.868 9.188-260.335 12.323-390.173 1.705-70.343-17.164-133.064-23.448-202.162-8.512-93.606 21.25-186.874 24.001-280.28M410.198 865.908c0-151.933-8.989-305.494-3.257-457.243 2.919-77.457 11.063-154.791 10.141-232.355-.769-65.073-6.946-129.914-7.314-195.002-.769-134.048-.384-268.003.353-402.051.215-37.414-1.168-70.942-13.537-106.697-13.168-38.075-32.62-74.138-40.272-113.98-17.21-89.688 46.557-172.938 53.886-261.074M315.132 865.908c.261-88.412 9.357-176.886 5.531-265.314-2.704-62.383-10.294-123.568-7.698-186.213 3.135-75.598 12.416-150.934 11.186-226.701-1.121-68.745-8.758-137.197-9.019-205.973-.215-57.067 5.87-113.827 6.546-170.848.906-77.18-4.625-154.222-6.208-231.356-.753-36.862-1.49-71.326-10.279-107.404-9.496-38.936-23.433-76.842-28.995-116.67-12.231-87.628 33.451-171.185 38.951-257.938M220.051 865.908c2.689-91.347 27.058-184.584 17.209-275.947-6.085-56.483-19.56-107.542-16.641-165.239 3.611-71.342 14.505-142.345 12.569-213.917-2.074-76.335-13.967-152.501-13.014-228.898.691-56.022 19.468-109.033 22.541-164.702 4.348-78.916-14.505-158.601-20.621-237.041-5.885-75.506-7.974-153.501-9.065-229.252-1.214-84.648 7.882-168.85 7.022-253.421M124.97 865.908c3.18-92.407 21.604-186.52 13.859-278.928-4.778-56.944-15.181-111.445-12.369-168.988 3.319-67.961 13.168-135.569 11.432-203.745-1.982-78.118-14.244-156.051-13.291-234.245.692-56.146 20.098-109.095 23.156-164.856 4.21-76.98-12.692-155.144-18.254-231.74-11.647-160.415-4.856-325.07-4.533-485.915M29.904 865.908c-2.612-94.804-19.222-190.331-12.338-285.151 4.902-67.561 13.552-133.817 15.073-201.655 1.291-57.605 5.962-114.994 4.856-172.661-1.506-78.655-10.341-157.05-10.449-235.75-.076-57.636 8.651-114.611 9.988-172.155 1.567-67.5 4.825-134.892 6.96-202.362 5.255-166.192-11.97-332.599-14.09-498.683"/></g></g></svg>