<svg width="24" height="23" fill="none" xmlns="http://www.w3.org/2000/svg"><path d="M21.592 8.315a13.96 13.96 0 00-3.328-1.086 17.985 17.985 0 00-2.623-.32 15.966 15.966 0 00-1.086-2.232 14.027 14.027 0 00-2.037-2.846 1.341 1.341 0 00-1.836 0 14.203 14.203 0 00-2.036 2.867c-.4.724-.752 1.473-1.054 2.243-.833.045-1.661.157-2.476.332-1.151.214-2.271.57-3.335 1.059a1.352 1.352 0 00-.542 1.748 14.12 14.12 0 002.068 2.82 19.59 19.59 0 001.836 1.72 15.93 15.93 0 00-.516 2.635 14.044 14.044 0 000 3.491 1.347 1.347 0 001.487 1.086 14.147 14.147 0 003.32-1.086 19.98 19.98 0 002.171-1.205c.697.448 1.423.851 2.173 1.205a13.99 13.99 0 003.318 1.086 1.347 1.347 0 001.488-1.086 14.07 14.07 0 000-3.492 16.447 16.447 0 00-.467-2.525c.71-.558 1.37-1.178 1.971-1.852a14.45 14.45 0 002.075-2.818 1.342 1.342 0 00-.57-1.744z" fill="#FEC636" stroke="#1E1E1E" stroke-width="1.7" stroke-miterlimit="10"/></svg>