<svg width="679" height="589" fill="none" xmlns="http://www.w3.org/2000/svg"><path d="M319.957 64.447c13.197-2.92 25.999-.093 37.316 7.145 25.169 16.097 39.847 47.913 45.927 76.306 1.676 7.831 3.004 16.151 5.875 23.653 4.891 12.78 22.059 38.646 20.561 50.724l-1.189 1.786c-3.58-2.56-4.325-12.444-6.068-16.779-5.099-12.684-12.947-23.869-17.488-36.948-3.419-9.847-4.992-20.108-7.441-30.203-3.878-15.984-11.72-32.879-21.665-45.967-10.218-13.448-23.464-24.592-40.643-26.958-3.88-.535-8.898.666-12.405-.263-1.701-.45-1.888-1.141-2.78-2.496z" fill="#1E1E1E"/><path d="M307.293 67.46c4.031-1.152 8.493-2.807 12.664-3.013.892 1.355 1.079 2.046 2.78 2.496 3.507.93 8.525-.272 12.405.263 17.179 2.366 30.425 13.51 40.643 26.958 9.945 13.088 17.787 29.983 21.665 45.967 2.449 10.095 4.022 20.356 7.441 30.203 4.541 13.079 12.389 24.264 17.488 36.948 1.743 4.335 2.488 14.219 6.068 16.779-.305 5.37-1.137 10.693-1.003 16.081-2.612-1.136-5.122-2.204-7.882-2.94-.065-4.016-.32-8.354-1.731-12.14l-.92-.831c-.669.149-1.083.032-1.441.697-1.616 3.004.403 9.39.255 12.91-.423 10.068-9.66 17.297-18.27 20.738-8.261 3.302-17.931 4.836-26.798 4.921-2.853-.088-8.272-.067-10.278-2.372-1.249-1.435-1.016-2.338-1.068-4.118-6.32 3.896-11.723 6.517-19.021 7.932-.185 17.606-.052 35.21.401 52.811.314 10.152 1.193 20.311 1.351 30.459-3.065 1.58-9.248 4.39-12.621 3.004-1.103-.454-1.327-1.208-1.591-2.278-1.208-4.898-.793-11.128-.977-16.238a829.65 829.65 0 01-.157-45.2c.244-8.998 1.003-18.081.805-27.073l-1.989.295c-.392.791-.813 1.42-1.361 2.112-.889.236-1.677.423-2.604.401-11.513-.269-25.096-12.956-32.837-20.607l-3.717 2.545c1.674 8.053 5.153 15.318 9.674 22.164-2.541-.634-5.2-1.121-7.552-2.298-.692.758-1.176 1.028-2.132 1.392-5.431-.332-10.545-4.102-14.887-7.108-2.623.339-5.313-.281-7.906-.698-.554.305-1.11.467-1.709.663-1.85-.318-3.481-.797-5.125-1.73-8.146-4.624-12.432-14.601-14.74-23.157-3.731-21.941 15.578-38.276 18.323-59.125 1.819-13.813-5.457-18.106-5.556-29.148-.031-3.498 2.223-6.344 2.78-9.72.808-4.898.856-9.942 1.633-14.862 2.289-14.5 9.203-28.8 19.537-39.284 7.691-7.802 18.684-14.662 29.96-14.799z" fill="#1E1E1E"/><path d="M364.879 234.776c-.209 5.99-.863 14.392-4.886 19.133-.032.037-.075.064-.112.096-3.774.176-9.08 3.905-12.752 5.347-2.109.828-4.288 1.384-6.482 1.931-.699-2.744-1.518-5.165-2.714-7.738 11.57-3.617 19.332-9.501 26.946-18.769zm-76.35 2.501c1.825-3.767 3.822-7.46 5.753-11.174.217.403.428.808.661 1.201 7.475 12.645 18.889 22.676 33.264 26.405-.352 2.241-.561 4.451-.706 6.715l-1.989.295c-2.99-1.97-10.71-3.171-14.8-5.147-9.145-4.419-14.14-11.837-21.742-17.949-.146-.117-.294-.231-.441-.346z" fill="#73AFFF"/><path d="M332.681 255.021c.903.372 1.781.888 2.409 1.651.211.256.398.534.558.824 2.32 4.218.741 16.588.764 21.737.044 18.917.534 37.822 1.471 56.716.094 2.21.957 7.235.377 9.206-.357 1.21-1.362 1.35-2.394 1.845l-4.774 1.044c-.529-12.393-2.415-84.12 1.589-93.023z" fill="#60A4FF"/><path d="M351.896 205.881c1.747 3.484 1.804 8.29 2.402 12.15.902 5.819 2.386 11.267 5.101 16.52a39.12 39.12 0 01-4.788 5.534c-5.505 5.174-14.946 11.117-22.806 10.585-9.828-.664-21.38-9.962-27.756-16.919-8.011-8.743-4.643-11.623-4.183-22.336 5.929 3.296 11.756 6.506 18.603 7.305 13.11 1.529 23.588-5.036 33.427-12.839z" fill="#EBFDFF"/><path d="M262.19 258.622c-2.963-3.677-7.752-6.05-11.072-9.555-2.704-2.855-4.704-6.939-5.879-10.688-6.003-19.152 8.594-34.301 14.647-50.962 2.391-6.58 2.732-13.353 3.046-20.269 3.717 2.428 6.88 3.809 11.401 3.906 3.596 15.991 9.642 26.961 22.14 37.77-.094 2.688.329 7.186-.622 9.664-.717 1.868-2.615 3.635-3.779 5.287-3.402 4.828-7.157 11.636-8.254 17.528-.341 1.829.234 2.414 1.175 3.867 1.674 8.053 5.153 15.318 9.674 22.164-2.541-.634-5.2-1.121-7.552-2.298-.692.758-1.176 1.028-2.132 1.392-5.431-.332-10.545-4.102-14.887-7.108-2.623.339-5.313-.281-7.906-.698z" fill="#FEC636"/><path d="M270.096 259.32c-7.649-7.301-11.039-15.818-11.247-26.359-.131-6.65 1.635-19.947 6.063-25.052.793-.913 1.76-1.553 2.937-1.819l.627.303c.799 3.134-2.977 8.196-3.925 11.338-4.514 14.957-2.395 32.53 11.891 41.44 3.354 2.092 7.75 3.215 10.673 5.865-.692.758-1.176 1.028-2.132 1.392-5.431-.332-10.545-4.102-14.887-7.108z" fill="#1E1E1E"/><path d="M307.293 67.46c4.031-1.152 8.493-2.807 12.664-3.013.892 1.355 1.079 2.046 2.78 2.496 3.507.93 8.525-.272 12.405.263 17.179 2.366 30.425 13.51 40.643 26.958 9.945 13.088 19.337 29.77 23.215 45.754 2.449 10.095 2.472 20.569 5.891 30.416 4.541 13.079 12.389 24.264 17.488 36.948 1.743 4.335 2.488 14.219 6.068 16.779-.305 5.37-1.137 10.693-1.003 16.081-2.612-1.136-5.122-2.204-7.882-2.94-.065-4.016-.32-8.354-1.731-12.14l-.92-.831c-.669.149-1.083.032-1.441.697-1.616 3.004.403 9.39.255 12.91-.423 10.068-9.66 17.297-18.27 20.738-8.261 3.302-17.931 4.836-26.798 4.921-2.853-.088-8.272-.067-10.278-2.372-1.249-1.435-1.016-2.338-1.068-4.118l.57-3.002c.037-.032.08-.059.112-.096 4.023-4.741 4.677-13.143 4.886-19.133.609-4.438.276-32.348-.955-34.658l-1.02-.318c-1.03.647-1.319 1.103-1.64 2.294-1.641 6.076.313 21.696.857 28.637l-2.722 3.82c-2.715-5.253-4.199-10.701-5.101-16.52-.598-3.86-.655-8.666-2.402-12.15 11.518-13.147 15.551-19.477 19.135-36.964a54.015 54.015 0 002.329-.688c5.429-1.761 9.779-5.939 12.262-11.028 2.719-5.574 4.515-15.253 2.348-21.16-3.249-8.86-11.603-4.912-13.931-6.204-.925-.513-5.44-9.314-8.188-11.37-11.017-8.246-24.816-11.186-36.892-17.334-4.74-2.412-9.043-6.944-13.866-8.862-1.139-.453-1.426-.179-2.503.254-1.303-1.079-2.528-1.865-4.027-2.645.42-1.483.915-3.15 1.002-4.687.075-1.32-.183-1.918-1.044-2.867l-1.214-.047c-2.161 2.637-1.964 7.44-6.302 12.42-2.906 3.336-6.45 5.963-9.904 8.697-12.371 9.793-17.932 15.86-20.706 31.623-4.152-1.519-6.051-1.462-10.163-.325l.016-.488c.922-23.945 11.583-49.156 34.338-59.795 2.945-1.377 10.656-2.653 12.384-4.515.64-.69.344-1.553.323-2.436z" fill="#FEC636"/><path d="M389.697 214.574c1.347.316 2.126.212 2.857 1.547 2.527 4.618.271 15.639-1.182 20.557-3.15 10.66-9.35 16.707-18.927 21.846l-1.126.218c-.919-.769-.954-.531-1.166-1.813 1.756-3.184 7.228-5.583 10.078-8.1 10.353-9.144 8.508-21.578 9.425-33.758l.041-.497z" fill="#1E1E1E"/><path d="M308.563 89.88c1.499.78 2.724 1.566 4.027 2.645 2.265 3.913 6.559 7.01 10.352 9.356 12.053 7.454 32.941 11.685 42.373 21.174 5.127 5.159 2.576 11.801 6.945 16.151l.736-.1c.532-1.618 1.098-3.477 2.426-4.644 1.023-.9 2.156-1.42 3.55-1.287 1.453.14 2.766 1.01 3.694 2.099 2.428 2.849 2.547 6.79 2.182 10.333-.604 5.869-3.081 12.643-7.808 16.371-1.261.995-3.2 2.52-4.877 2.284a91.558 91.558 0 01-.712-4.064c-1.068-.751-1.067-.806-2.358-.721-1.683 2.401-2.5 12.335-3.375 15.751a67.568 67.568 0 01-3.879 11.072c-5.184 11.554-16.095 22.196-28.008 26.67-8.429 3.165-16.645 2.936-24.836-.874a55.79 55.79 0 01-2.684-1.333 53.863 53.863 0 01-3.875-2.276 55.064 55.064 0 01-2.472-1.693 52.718 52.718 0 01-4.643-3.787 52.9 52.9 0 01-3.189-3.166 55.688 55.688 0 01-2.914-3.421 52.71 52.71 0 01-2.618-3.653 53.947 53.947 0 01-3.657-6.533c-.213-.451-.42-.906-.62-1.364a49.154 49.154 0 01-.582-1.381 57.549 57.549 0 01-.543-1.396 51.476 51.476 0 01-1.394-4.273 51.389 51.389 0 01-.384-1.448c-1.164-4.744-1.079-9.979-2.763-14.539-.967-.945-.941-.856-2.307-.889-1.318 1.21-.73 3.497-.875 5.307l-1.387 1.028c-1.369.274-2.291.17-3.482-.565-5.692-3.511-9.932-11.884-11.282-18.25-.574-2.704-.691-4.996.993-7.349 1.264-1.766 3.538-3.171 5.707-3.426 3.146-.369 5.048 1.76 7.303 3.533.853.671.993 1.087 2.1.958 2.074-6.163 1.13-13.128 4.032-19.31 6.457-13.751 24.342-18.602 30.807-32.344l.297-.646z" fill="#EBFDFF"/><path d="M355.681 143.246l-.823.703c-.141.706-.084.752.224 1.413.771.625 1.175.735 2.157.885.617-.561.941-.682 1.087-1.52-.547-.828-1.745-1.127-2.645-1.481zm-1.162-1.684c.261-.93.491-1.649.334-2.614l-.399-.229c-.707.248-1.534.608-2.286.65-.837.046-1.351-.142-1.973-.675-1.082-.926-2.13-1.53-3.516-1.908-3.267-.892-6.494-.51-9.403 1.252-2.771 1.68-5.89 5.195-6.6 8.435-.186.845-.233 1.534.231 2.275l.686-.275-.335.238c1.224-.902 1.786-3.862 2.638-5.258 1.105-1.81 2.97-3.345 4.733-4.477 1.718-1.333 3.881-1.882 6.044-1.662 1.221.124 2.579.53 3.43 1.453 1.703.767 2.82 2.056 4.258 3.183.82.641 1.709 1.224 2.804 1.031 1.437-.254 3.425-.813 4.31-2.053-.048-.62-.188-.563-.636-.953-1.292-.127-3.12 1.033-4.32 1.587zm-66.938 1.455c-.867-.925-1.646-1.961-2.921-2.203l-.634.543c-.295 2.078 2.055 2.701 2.375 4.515-.695.956-2.352 1.196-3.361 1.812-.601.368-.63.444-.798 1.09l.37.508c1.76.399 3.073-.41 4.571-1.213l.556-.422c1.468-4.195 2.47-5.397 6.395-7.582 2.216-1.05 4.794-1.038 7.097-.232 1.25.438 2.642 1.187 3.473 2.245 2.172 1.902 3.88 6.336 6.079 7.437l.219-.3c-.245-2.522-2.209-5.184-3.946-7.002-2.58-2.7-5.944-4.215-9.698-4.198-4.316.02-6.888 2.11-9.777 5.002zm51.401-18.22c-.565.262-1.142.523-1.677.841-1.031.612-2.368 1.724-2.657 2.896 1.241 1.498 9.501-.928 11.794-1.01 2.563-.091 4.919.365 7.406.943.608.278 1.246.611 1.887.802.63.188.956.048 1.473-.292l.018-.67c-.802-1.307-1.916-2.101-3.286-2.769-4.862-2.368-9.906-2.523-14.958-.741zm-47.744.867c-.743.294-1.465.676-2.171 1.051-1.344.714-3.393 2.082-3.84 3.572 1.494.537 3.836-.85 5.278-1.36 4.396-1.555 8.821-.757 13.2.369 1.411.472 3.098 1.28 4.592 1.216.375-.631.476-.819.305-1.59-.298-1.357-2.009-2.69-3.17-3.28-4.314-2.191-9.784-1.46-14.194.022z" fill="#1E1E1E"/><path d="M339.075 136.969c-.702.315-1.394.65-2.038 1.072-2.003 1.31-3.953 3.38-4.34 5.813-.327 2.058.302 4.354 1.59 5.984a7.428 7.428 0 001.041 1.082 7.785 7.785 0 001.234.855 7.655 7.655 0 001.378.595 7.604 7.604 0 001.468.312c1.496.158 3.123-.169 4.282-1.177 1.049-.911 2.021-2.752 1.946-4.17-.073-1.37-1.486-2.323-2.475-3.041l-.331-.236-.066-.494c.576-1.414.76-2.827.976-4.324 3.339.365 5.839 1.701 7.634 4.596.356.574.65 1.262 1.239 1.625.363.224.559.049.931-.059.402-.613.67-.941.555-1.727-.262-1.791-2.687-3.945-4.108-4.875-3.382-2.214-7.047-2.693-10.916-1.831zm-52.008 8.14c.039.017.077.038.118.051.388.121 1.305.271 1.513.667.763 1.453-.831 4.809 1.785 7.421 1.131 1.128 3.098 1.957 4.699 1.882 1.697-.078 3.33-.932 4.419-2.225 3.357-3.983-1.142-5.119-1.4-7.706.421-1.037 1.476-2.644 2.62-2.973.734-.211 1.154-.133 1.819.229 2.44 1.331 3.089 5.151 3.918 7.515.254.724.355 1.016 1.055 1.342.534-.278.837-.598 1.03-1.181.578-1.743-.701-4.852-1.622-6.367-1.543-2.537-4.37-4.122-7.233-4.664-2.879-.544-6.478-.169-8.657 1.966-.632.62-1.158 1.634-1.917 2.063-.077.043-.162.068-.243.102-.257.599-.487 1.133-.856 1.674l-1.048.204zm85.939-4.943c1.084.543 1.536.988 2.247 1.967.392 1.601.215 2.561-.188 4.145-1.605-.504-2.162-.473-3.2-1.846-.139-1.601.528-2.834 1.141-4.266zm-29.371 36.364c.74-.167 1.363-.046 2.112.028l.565.799c-.194 2.553-5.269 8.079-6.927 10.394-3.536 4.938-8.158 9.521-14.449 10.383-5.655.775-10.217-1.72-14.566-4.988-2.815-2.697-7.194-6.791-8.458-10.527-.43-1.272-.267-1.79.331-2.938 4.04-.212 8.078.122 12.122.067 9.874-.134 19.62-1.075 29.27-3.218z" fill="#1E1E1E"/><path d="M338.486 181.678l.276.217c-.383 1.391-1.293 2.494-2.128 3.646-2.992 4.128-6.865 8.039-12.171 8.727-4.916.636-8.361-1.495-12.096-4.306-2.076-2.045-3.626-4.114-5.242-6.519 10.521.01 20.917-.463 31.361-1.765z" fill="#EBFDFF"/><path d="M121.477 66.482c1.346-4.096 2.347-8.727 5.822-11.611 1.392-1.154 3.319-1.98 5.148-1.516 5.324 1.348 4.787 8.51 6.512 12.337.644-1.38 1.068-2.526 2.577-3.141 1.586-.648 3.858-.593 5.397.165 14.561 7.169-4.367 60.479-.703 69.377 4.172 1.121 16.913-15.776 27.073-16.437 1.987-.13 3.765.384 5.238 1.761 1.246 1.166 1.948 2.62 1.954 4.333.006 1.672-.559 3.147-1.423 4.556-2.829 4.615-7.395 8.752-10.793 13.012-8.007 10.039-14.816 20.813-23.971 29.951-3.366 3.36-7.698 5.646-11.087 9.003 1.172 6.436-2.236 16.303-2.72 23.136l-.04.64c.777.792 1.568 1.592 2.255 2.464 2.097 2.665 3.222 6.444 3.194 9.814-.026 3.099-2.184 6.517-2.614 9.808a2319.032 2319.032 0 00-7.169 57.145c28.01-11.982 55.43-25.413 83.382-37.578l19.264-8.331c2.3-.99 4.766-2.486 7.133-3.188 1.023-.303 1.393-.172 2.389.104l1.078 1.967 1.243.145c2.308 8.556 6.594 18.533 14.74 23.157 1.644.933 3.275 1.412 5.125 1.73.599-.196 1.155-.358 1.709-.663 2.593.417 5.283 1.037 7.906.698 4.342 3.006 9.456 6.776 14.887 7.108.956-.364 1.44-.634 2.132-1.392 2.352 1.177 5.011 1.664 7.552 2.298-4.521-6.846-8-14.111-9.674-22.164l3.717-2.545c7.741 7.651 21.324 20.338 32.837 20.607.927.022 1.715-.165 2.604-.401.548-.692.969-1.321 1.361-2.112l1.989-.295c.198 8.992-.561 18.075-.805 27.073a829.654 829.654 0 00.157 45.2c.184 5.11-.231 11.34.977 16.238.264 1.07.488 1.824 1.591 2.278 3.373 1.386 9.556-1.424 12.621-3.004-.158-10.148-1.037-20.307-1.351-30.459a1457.335 1457.335 0 01-.401-52.811c7.298-1.415 12.701-4.036 19.021-7.932.052 1.78-.181 2.683 1.068 4.118 2.006 2.305 7.425 2.284 10.278 2.372 8.867-.085 18.537-1.619 26.798-4.921 8.61-3.441 17.847-10.67 18.27-20.738.148-3.52-1.871-9.906-.255-12.91.358-.665.772-.548 1.441-.697l.92.831c1.411 3.786 1.666 8.124 1.731 12.14 2.76.736 5.27 1.804 7.882 2.94a244.335 244.335 0 0128.726 19.983 244.374 244.374 0 0125.581 23.878c9.504 10.107 18.104 21.349 26.307 32.522 16.5 22.472 31.806 46.32 46.42 70.069 6.935 11.271 14.334 22.53 20.145 34.433 2.545 5.212 4.695 10.561 6.108 16.196 3.657 14.586 1.557 29.042-6.269 41.889-2.203 3.616-4.799 6.89-7.653 10.009 17.629 4.667 33.787 12.483 43.222 28.931 7.368 12.845 7.732 28.248 3.899 42.274-3.246 11.876-10.68 25.179-21.739 31.389-8.257 4.637-17.082 4.937-26.017 7.427-9.474 2.64-18.734 6.163-28.157 9.007-58.802 16.96-118.583 29.159-178.169 42.877-8.307 1.913-16.038 5.862-24.264 7.772-1.886.438-3.96.848-5.769-.069-3.271-1.657-5.658-5.81-7.681-8.799-16.323 3.926-32.292 10.376-47.863 16.567.04 4.586.229 9.729-3.256 13.252-1.831 1.851-4.271 2.561-6.759 3.059-6.438 1.29-13.749 1.225-20.317 1.725a4095.371 4095.371 0 00-42.578 3.378c-3.818.331-8.616.279-12.296 1.268-19.381 1.639-61.209 1.926-78.089-7.926-.157-10.713.312-21.78 5.728-31.325 8.941-15.756 19.956-11.691 34.38-15.626 8.458-2.308 17.119-7.633 23.788-13.238 8.439-7.093 17.016-21.982 25.596-26.445 2.036-1.058 4.545-1.581 6.757-2.182 11.174 4.243 14.705 15.101 25.699 18.844 9.853 3.355 18.492 2.456 27.779-2.065-1.695-8.92-1.838-18.337-2.253-27.399-11.236-3.733-23.605-5.217-35.369-3.271-4.331.717-10.828 3.785-14.998 2.872-2.103-1.751-2.113-4.748-2.439-7.279-18.428-15.391-24.846-35.49-27.474-58.884-3.958-35.234 8.907-70.277 17.883-103.856 2.631-9.846 3.849-19.784 7.793-29.271 3.529-8.489 8.393-15.617 14.106-22.739-1.405-6.915-3.446-13.685-5.513-20.425-30.35 11.688-65.759 19.458-97.978 23.672-7.95 1.04-16.158 2.22-24.184 2.045a58.512 58.512 0 01-10.47-1.108 58.428 58.428 0 01-10.1-2.972c-10.666-4.326-18.841-12.364-23.214-23.043a48.485 48.485 0 01-2.42-7.917 48.842 48.842 0 01-.962-13.734c1.685-26.026 24.02-91.511 34.316-115.935 2.009-4.767 4.51-6.013 9.113-7.917 1.725-6.703 3.944-13.338 5.944-19.967-1.928-5.44-3.778-10.851-4.816-16.547a62.224 62.224 0 01-1.093-12.073c.132-11.315 1.81-22.694 2.899-33.951.687-7.103.76-14.45 1.882-21.49.297-1.868.622-3.97 1.785-5.516 1.055-1.403 2.28-2.172 4.057-2.366 2.861-.312 4.679 2.014 6.566 3.789 1.229-.98 1.706-7.66 2.01-9.601.645-4.12 2.287-13.646 6.33-15.74.698-.36 1.448-.478 2.195-.26 3.427 1.01 5.655 5.177 7.178 8.149z" fill="#1E1E1E"/><path d="M515.619 458.51c.644.143.993.329 1.559.648.184.546.34.95.464 1.495.393 1.732.403 3.871-.609 5.373l-1.5-.077c-.739-.754-1.14-1.385-1.285-2.46-.259-1.929.248-3.452 1.371-4.979zm-3.441 2.297l.429.444c.459 1.886 1.076 3.974.789 5.928-.127.861-1.434 1.542-2.114 2.074-.598-1.361-1.87-3.582-1.647-5.082.245-1.649 1.397-2.322 2.543-3.364zm8.598-4.116c.999.059 1.249.114 2.187.589.482 2.416-.332 5.142-.502 7.617-.794-.173-1.581-.381-2.37-.576-.5-.845-.948-1.729-1.048-2.725-.2-1.987.451-3.51 1.733-4.905zm28.758 7.656c1.057.946 1.623 1.099 1.769 2.546-1.4 2.726-4.158 4.606-6.465 6.564-.953-.868-1.352-1.002-1.743-2.269 1.807-2.485 4.374-3.614 6.12-6.327.109-.169.213-.343.319-.514zm-3.906-3.123c1.146.58 1.508.626 2.122 1.729-.613 2.812-3.331 4.76-5.378 6.615-1.058.269-.934.369-2.058-.032-.118-2.56 3.723-6.336 5.314-8.312zm-19.592-4.831c1.718-.015 2.907-.272 4.423.576.09 2.139-1.448 4.268-2.395 6.189-.802.716-1.181 1.081-2.269 1.196l-.504-.611c-.279-2.515.29-4.887.745-7.35zm26.707 11.436c.876.8 1.462 1.246 1.842 2.407-1.076 2.76-4.496 4.758-6.789 6.517-.406-.005-.908-.325-1.28-.494l-.262-1.133c1.261-2.638 4.415-5.162 6.489-7.297zm3.06 4.113c.826 1.083 1.708 1.948 1.679 3.386-1.41 2.387-4.875 3.865-7.246 5.247l-.642.176c-.74-.685-.83-.86-1.143-1.823 1.589-2.62 4.785-3.808 6.727-6.187.214-.262.417-.533.625-.799zm-16.037-13.855c1.377.583 2.284.712 3.122 1.977-.294 2.463-2.987 5.179-4.452 7.216-1.11.231-1.645.19-2.722-.158l-.304-.991c.885-2.861 2.81-5.491 4.356-8.044z" fill="#73AFFF"/><path d="M438.402 468.102c1.801-.311 2.743-.738 4.45-.012 1.76 2.12 1.961 5.84 2.713 8.497l.009.453c-1.422 1.118-3.175 1.546-4.871 2.097-.332-3.648-1.507-7.445-2.301-11.035z" fill="#60A4FF"/><path d="M443.588 467.261l5.775-1.219c.582 3.191 1.183 6.357 1.479 9.59-1.673.541-3.515 1.325-5.268 1.409l-.009-.453c.411-3.019-1.049-6.456-1.977-9.327zm113.349 10.296c.963.389 1.381.753 2.057 1.537-.353 1.701-1.793 1.802-2.174 3.482.888.341 1.286.706 1.926 1.403.471 2.267-.568 4.614-1.222 6.783-1.773 1.65-3.666 2.868-5.709 4.141 1.396-1.349 4.505-3.96 4.984-5.795-.941.523-1.731 1.022-2.543 1.73-.461.321-1.018.522-1.529.756l-.862-.926c-.402-4.727 3.465-2.214 4.995-5.26l-.516-1.289c-1.221-.713-1.427-.781-2.838-.768-1.473.905-1.468 1.331-2.114 2.882-.819-.834-.69-1.384-.882-2.508.26-.566.49-.926 1.015-1.28 2.064-1.393 3.792-2.237 5.158-4.447.089-.145.169-.294.254-.441z" fill="#73AFFF"/><path d="M436.43 468.256l1.972-.153c.794 3.59 1.969 7.387 2.301 11.035l-1.42.382-5.538 1.472c.152-3.225-.654-9.107-2.202-11.943l4.887-.793z" fill="#60A4FF"/><path d="M436.43 468.256l1.972-.153c.794 3.59 1.969 7.387 2.301 11.035l-1.42.382c-1.247-3.941-2.82-6.97-2.853-11.264zm-82.901.07c2.181.098 4.498.045 6.634.504l1.14.447c1.188 5.166-.308 11.343-.138 16.681l-6.857-1.053-1.736-.142c1.255-3.875.779-11.999.957-16.437z" fill="#73AFFF"/><path d="M353.529 468.326c2.181.098 4.498.045 6.634.504l-4.048.194c-.497 2.108-.191 4.252-.297 6.401a46.938 46.938 0 01-1.51 9.48l-1.736-.142c1.255-3.875.779-11.999.957-16.437zm59.991 14.367c.114-.313.235-.623.341-.938 1.172-3.464.325-7.835 1.003-11.473 1.258-.596 1.475-.761 2.836-.598 1.659 1.475 1.779 3.457 1.893 5.544.162 2.981.038 5.977.124 8.96-2.275.28-4.57.505-6.82.955-1.368.222-2.463.41-3.848.114-1.21-4.158-.64-10.065-.626-14.421l.553-.344c1.455-.103 3.239-.505 4.544.253 1.075 2.076.068 9.216 0 11.948z" fill="#73AFFF"/><path d="M425.871 469.662c1.842-.346 3.803-.424 5.672-.613 1.548 2.836 2.354 8.718 2.202 11.943-2.29.57-4.593 1.095-6.89 1.637-.324-3.972-.487-8.118-1.599-11.957-.622 3.477.635 8.561.952 12.193l-6.381 1.089c.031-2.45.122-4.97-.102-7.409-.231-2.519-.418-4.25 1.26-6.314 1.551-.842 3.178-.613 4.886-.569zm-73.299 15.101c-3.206-.564-6.485-.993-9.557-2.103-2.619-3.241-4.749-11.681-6.239-15.904l.307-.611c.935-.383 1.024-.637 2.027-.32 1.505 1.558 1.513 4.673 1.717 6.716.84-.905.546-3.871.863-5.324 1.408-.484 3.98.206 5.503.398.016 4.432-.722 8.72-.825 13.159 1.079-2.819 1.411-7.02 1.422-10.054.003-.963.016-1.656.317-2.591 1.719-.484 3.669-.03 5.422.197-.178 4.438.298 12.562-.957 16.437zm9.88-15.786c4.379.398 8.786.631 13.175.903-.165 5.727-.576 11.367-.491 17.11-4.428-.115-8.912-.63-13.322-1.068.13-5.66.607-11.268.638-16.945zm13.94.877c1.801.006 3.878-.231 5.469.694.383 1.918.606 3.798.769 5.745l.244-6.272c8.144.642 16.519.653 24.686.417-.119 3.767.148 7.606.496 11.357.107 1.275.435 2.69-.201 3.853-8.019 2.29-23.647 1.811-32.345 1.345.751-5.576.773-11.515.882-17.139z" fill="#73AFFF"/><path d="M262.29 584.189c7.344 3.811 13.829 9.167 20.793 13.613 7.166 4.574 14.977 8.218 22.574 12.018-2.318 1.109-4.728 2.073-7.087 3.095a191.608 191.608 0 01-17.712 6.136c-3.508-5.363-10.282-7.091-15.98-9.303-2.438-7.866-2.257-17.341-2.588-25.559z" fill="#EBFDFF"/><path d="M82.905 197.672c1.256.677 2.549 2.861 3.588 3.958 3.008 3.175 7.771 5.082 11.848 6.484 10.86 3.737 21.389 3.464 31.689-1.63.957 2.763 1.831 5.575 1.745 8.541-.077 2.655-.709 4.091-2.624 5.891a29.034 29.034 0 01-3.286 1.41c-10.706 3.834-23.256 1.831-33.333-2.918-4.88-2.3-10.773-5.554-12.533-10.999-1.298-4.015 1.11-7.29 2.906-10.737z" fill="#73AFFF"/><path d="M231.586 558.625c14.099-.521 27.067 2.599 39.605 9.025-1.104 4.794-2.26 9.019-4.716 13.312a107.145 107.145 0 00-16.068-5.435c-13.846-2.487-26.785-1.501-40.245 2.378-.623-5.097-.824-10.254-1.133-15.379 7.331-2.189 14.944-3.325 22.557-3.901zm-33.982-138.877c1.35 4.597 1.235 31.706 1.618 38.822 1.992 37.023 6.071 73.972 6.412 111.059-2.691-2.559-5.14-5.248-7.572-8.052-1.889-2.473-3.581-4.988-5.053-7.733-4.408-8.219-7.195-17.235-9.065-26.344-5.803-28.27-.473-54.32 6.639-81.639 2.267-8.711 4.416-17.497 7.021-26.113z" fill="#EBFDFF"/><path d="M445.091 365.752c2.686 2.264 5.131 7.051 7.281 9.96 12.74 17.236 25.047 34.453 36.096 52.838 3.143 5.229 6.902 10.767 9.133 16.453 1.728 4.403.914 10.028 1.995 14.703 1.36 5.881 3.915 11.588 5.447 17.463l-.567.868c-16.893-1.553-33.336-2.696-50.316-2.63-.945-16.071-7.574-31.162-9.706-47.137-2.754-20.631.424-41.789.637-62.518z" fill="#60A4FF"/><path d="M522.392 467.493c2.619-.097 5.088.357 7.593 1.083 6.417 1.86 11.873 5.978 14.956 11.961 7.909 15.349 4.897 36.911-.134 52.617-5.512 17.203-13.511 30.549-29.902 39.006 9.151-8.807 14.789-16.052 18.674-28.256 1-3.142 2.324-6.804 2.519-10.121.102-1.752-.174-3.185-1.357-4.448-1.425.364-2 1.542-2.467 2.861-.949 2.681-1.258 5.679-1.957 8.444-2.056 8.134-5.739 15.789-11.273 22.13-4.431 5.077-18.011 16.417-24.557 16.863-.347-1.371 1.012-2.716 1.906-3.721 11.224-12.625 20.638-25.692 26.01-41.91.831-2.507 2.066-5.348 1.961-8-.703-1.119-.759-1.033-2.043-1.416-2.11.923-5.731 13.574-7.006 16.457-3.973 9.002-17.531 31.696-26.44 36.293-.589.303-.841.483-1.482.251-.557-2.067 4.803-8.832 5.991-10.712 5.807-9.184 15.02-29.925 16.421-40.681.171-1.308-.278-1.888-1.031-2.885l-.974-.112c-2.14 1.485-2.818 6.857-3.459 9.288-2.695 10.211-11.02 30.662-17.788 38.091-.833.915-1.272 1.358-2.548 1.362-3.899-5.48 5.133-31.579 7.082-39.065.914-3.512 1.365-7.186 1.81-10.784.188-1.513.732-4.159.273-5.644-.412-1.337-.956-1.486-2.086-2.127-2.57.525-6.66 13.438-11.837 16.5-1.754 1.038-3.134.904-5.004.429l-.429-.778c.405-2.972 9.698-22.174 11.706-25.312 5.879-9.184 13.926-16.102 21.03-24.196 3.113-3.548 5.736-7.76 9.458-10.733 1.965-1.569 3.965-2.187 6.384-2.735zm-392.361-410.9c1.583.68 2.901 1.436 3.675 3.077 4.628 9.804-7.319 51.447-5.636 55.249.971.607.915.569 2.045.35 4.921-4.168 7.181-40.3 12.565-48.768 1.166-.674 1.151-.732 2.467-.505 10.868 8.795-6.277 56.857-2.986 67.894.471 1.578 1.223 2.113 2.652 2.793 7.078-.125 14.912-9.744 20.591-13.671 2.452-1.695 6.541-4.328 9.667-3.279 1.222.41 1.265 1.004 1.621 2.093-.195 1.286-.787 2.145-1.518 3.19-2.828 4.046-6.503 7.576-9.54 11.485-7.888 10.155-14.986 20.973-24.097 30.14-3.673 3.696-8.524 6.074-12.487 9.392-1.041.872-1.25 1.326-1.358 2.651.563.842 1.604 2.193 1.749 3.194.506 3.508-2.716 17.489-3.14 22.55l-4.529 1.429c-.349.073-.698.151-1.05.207a46.186 46.186 0 01-4.267.453c-.714.041-1.429.066-2.145.074a46.536 46.536 0 01-4.288-.157 44.827 44.827 0 01-4.254-.563 46.862 46.862 0 01-2.102-.431 46.535 46.535 0 01-2.079-.531 45.577 45.577 0 01-7.996-3.089 44.82 44.82 0 01-3.743-2.098 46.314 46.314 0 01-1.793-1.18c3.58-8.406 5.898-17.804 8.614-26.552-8.643-18.926-5.865-37.762-3.83-57.654.78-7.628 1.179-15.262 1.844-22.894.197-2.264.236-5.67 2.06-7.211.83-.002 1.38-.137 2.132.283 7.243 4.047.18 24.326 1.771 31.112l.892.483c.95-.22 1.8-.351 2.294-1.344.879-1.77.719-5.688.984-7.771 1.127-8.862 3.424-38.67 8.673-44.906l1.544-.002c.155.175.324.339.465.525 1.043 1.385 1.6 3.476 2.067 5.138 4.017 14.31-2.921 28.07-3.973 42.277-.123 1.657.015 2.276 1.075 3.543l.999-.035c4.916-4.723 5.356-47.05 14.365-56.941z" fill="#EBFDFF"/><path d="M131.897 133.423c1.602-.218 2.347-.057 3.873.482l.337.711c-2.498 3.807-9.795 5.22-13.436 8.182-4.68 3.807-6.131 9.131-6.736 14.851-.39.151-.816.341-1.237.38-.994.091-1.823-.294-2.641-.791-.823-1.848.068-4.41.752-6.202 3.562-9.329 10.488-13.713 19.088-17.613z" fill="#1E1E1E"/><path d="M563.172 492.282c6.769-.106 15.664 4.248 21.531 7.342 11.982 6.318 21.799 16.215 25.731 29.41 4.091 13.728 1.744 29.902-5.024 42.41-3.997 7.384-9.954 14.309-17.528 18.165-5.501 2.8-11.694 3.251-17.642 4.55-4.079.933-8.11 2.039-12.093 3.32-42.802 13.368-85.911 24.103-129.618 34.097-25.944 5.932-52.614 10.803-78.164 18.239-6.246-8.384-11.024-16.953-14.878-26.671-3.008-8.233-5.22-16.49-7.235-25.008 36.566-17.872 72.571-36.86 110.087-52.712 7.72-3.262 21.278-9.534 28.859-11.625 3.97-1.095 6.322 2.245 10.554 1.122 5.667-1.504 8.344-5.738 11.237-10.41-3.233 15.807-10.461 31.362-9.42 47.753 2.027 2.544 3.267 5.601 5.567 7.89 2.297 2.286 4.654 3.587 7.96 3.464 3.865-.143 7.706-1.914 11.267-3.285 10.52-4.05 19.762-7.815 27.744-16.086 15.852-16.426 21.5-42.651 21.066-64.762a172.443 172.443 0 009.999-7.203zM247.755 347.043c10.697-.996 19.832 1.814 28.317 8.434 6.303 4.916 11.332 11.371 15.472 18.161 5.897 9.673 10.693 20.113 15.361 30.419a1045.795 1045.795 0 0127.877 69.488c10.162 27.369 21.529 54.414 26.206 83.391.201 1.245.548 2.242 1.576 3.029 1.164-.031 1.094.031 1.893-.808 2.852-9.557-16.325-60.201-20.407-72.049 22.125 3.648 44.006 5.501 66.344 2.373a193.214 193.214 0 0024.453-5.004c5.692-1.591 11.355-3.742 17.152-4.885 13.006-2.564 34.935-.298 48.1 1.992-5.646 7.414-12.783 13.52-17.7 21.543-4.755 7.76-7.091 16.699-11.629 24.495-.086.149-.177.296-.265.444-15.101 7.262-31.362 12.68-46.728 19.468-26.304 11.621-51.985 24.688-77.64 37.657-11.937 5.76-23.818 12.28-36.109 17.213l-2.762 4.123c-5.269-3.213-10.998-5.716-16.397-8.719-7.351-4.089-14.255-8.795-21.108-13.658 7.538-16.838 9.451-36.813 12.246-54.953a1624.455 1624.455 0 006.768-46.994c2.8-22.779 6.109-47.148 1.392-69.838-.598-2.875-1.534-7.704-3.519-9.921-.5-.558-.407-.371-1.249-.364-.784.893-1.268 1.476-1.22 2.735.139 3.642 2.053 8.21 2.756 11.923 1.501 7.929 1.737 16.018 1.6 24.065-.365 21.362-3.651 43.237-6.784 64.361a1532.386 1532.386 0 01-9.702 58.943c-22.478-10.551-38.775-11.338-62.797-5.559-1.53-39.67-5.565-79.179-6.919-118.852-.433-12.702-2.014-27.145-.031-39.723 1.677-10.634 6.412-21.898 12.636-30.663 8.032-11.312 18.977-19.855 32.817-22.267z" fill="#EBFDFF"/><path d="M77.094 211.893c3.582 4.996 7.892 8.273 13.38 10.94 12.405 6.029 25.572 7.227 38.587 2.659-2.214 16.012-3.809 32.133-5.765 48.182-1.866 15.315-2.972 31.602-9.209 45.886-2.208 5.059-5.02 10.133-8.192 14.65-2.286 3.255-4.942 6.405-6.82 9.909.177 1.129.17 1.187.98 1.982.796-.104 1.135-.067 1.828-.526 2.366-1.567 4.629-5.338 6.266-7.62 11.235-15.665 14.414-30.513 17.509-49.082l.19.256c8.567 11.375 3.896 18.327 3.801 30.571.928.886 1.139.768 2.44.885.394-.222.641-.323.95-.707 2.252-2.805 2.227-11.535 2.164-15.111-.148-8.399-2.081-13.679-8.188-19.541 9.143-4.65 18.744-8.654 28.088-12.897l55.706-25.059c8.321-3.713 21.654-7.981 28.564-13.017l1.243.145c2.308 8.556 6.594 18.533 14.74 23.157 1.644.933 3.275 1.412 5.125 1.73.599-.196 1.155-.358 1.709-.663 2.593.417 5.283 1.037 7.906.698 4.342 3.006 9.456 6.776 14.887 7.108.956-.364 1.44-.634 2.132-1.392 2.352 1.177 5.011 1.664 7.552 2.298-4.521-6.846-8-14.111-9.674-22.164l3.717-2.545c7.741 7.651 21.324 20.338 32.837 20.607.927.022 1.715-.165 2.604-.401.548-.692.969-1.321 1.361-2.112l1.989-.295c.198 8.992-.561 18.075-.805 27.073a829.654 829.654 0 00.157 45.2c.184 5.11-.231 11.34.977 16.238.264 1.07.488 1.824 1.591 2.278 3.373 1.386 9.556-1.424 12.621-3.004-.158-10.148-1.037-20.307-1.351-30.459a1457.335 1457.335 0 01-.401-52.811c7.298-1.415 12.701-4.036 19.021-7.932.052 1.78-.181 2.683 1.068 4.118 2.006 2.305 7.425 2.284 10.278 2.372.259 1.373.174 2.144 1.2 3.128 10.676 1.138 29.228-3.682 37.737-10.451 5.577-4.437 8.242-10.038 10.01-16.745.218.214.433.432.655.643 4.017 3.809 12.576 7.637 17.645 11.116a273.906 273.906 0 0132.594 26.818c29.579 28.54 57.68 73.358 79.467 108.514 8.043 12.978 16.967 26.131 23.019 40.185 2.982 6.925 5.186 14.485 5.538 22.05.733 15.764-5.439 27.511-15.903 38.893l-.17.184c.298-9.684-1.441-17.118-8.237-24.317-6.29-6.662-14.646-10.28-23.781-10.49-9.348-.215-18.213 2.603-25.048 9.143-.29.278-.577.56-.86.846-3.751-10.82-2.657-22.015 2.299-32.319 3.702-7.698 8.956-15.068 15.557-20.541 2.329-1.932 5.1-3.996 7.894-5.189 1.744-.744 3.8-1.22 5.411-2.198.843-.511.984-.719 1.451-1.622-.502-1.09-.504-1.04-1.606-1.533-7.667.465-16.253 7.735-21.113 13.243-7.227 8.192-11.267 17.177-15.004 27.311a492.235 492.235 0 00-23.494-38.292c-4.9-7.164-11.201-14.103-15.319-21.698-1.43-2.637-2.031-5.493-2.545-8.415-1.945-11.06-3.29-22.067-2.918-33.324.162-4.907 1.864-16.359 1.286-20.157-.027-.18-.249-1.002-.303-1.079-.202-.286-.594-.37-.891-.555-1.099.609-1.628 1.062-2.036 2.304-.811 2.471-.803 5.868-1.056 8.497-1.524 15.83-.098 30.201 3.072 45.729-8.357-13.033-17.111-26.076-23.202-40.37-2.072-4.863-4.166-9.903-5.876-14.905-1.083-3.165-1.54-6.635-2.94-9.673-.577-1.254-1.209-2.369-2.609-2.699-.942 1.062-1.064 1.993-.923 3.407 1.381 13.889 14.209 37.655 21.893 50.038-1.144 7.891-.655 16.381-.928 24.373-.381 11.119-1.322 22.369-.903 33.493.59 15.685 4.449 30.865 9.046 45.789-28.875 4.779-57.725 4.858-86.894 2.723-8.864-.649-18.248-1.159-26.937-3.09a1031.916 1031.916 0 00-17.576-43.852c-7.859-18.713-16.05-39.748-28.749-55.784-5.398-6.816-12.056-12.619-20.024-16.217a38.807 38.807 0 00-3.626-1.439 37.511 37.511 0 00-1.862-.582 38.727 38.727 0 00-5.726-1.186 38.293 38.293 0 00-3.888-.313 39.65 39.65 0 00-3.9.073 39.174 39.174 0 00-11.39 2.513c-6.155 2.333-12.096 6.268-16.856 10.797-1.614-6.408-3.714-12.501-5.926-18.723 11.435-5.971 18.277-14.918 22.112-27.177 2.432-7.775 3.924-16.027 5.315-24.043-.9-1.524-1.86-1.613-3.461-2.292-1.638 9.14-3.17 18.514-6.188 27.321-3.373 9.841-9.003 17.528-18.521 22.143-25.831 12.524-95.448 27.51-123.9 27.243-5.95-.056-12.016-.922-17.633-2.927-9.776-3.489-17.97-10.417-22.33-19.922-3.026-6.597-4.125-13.657-3.785-20.882.703-14.974 5.802-31.003 10.078-45.334a880.316 880.316 0 0119.995-59.786z" fill="#73AFFF"/><path d="M239.378 284.037c.588-1.55.608-2.102 1.996-3.075 1.357.293 1.106.385 1.839 1.457.173 1.47-.023 2.506-.374 3.91-.9-1.524-1.86-1.613-3.461-2.292z" fill="#73AFFF"/><path d="M544.799 415.613c1.847-.167 3.433-.205 5.273.05 1.128.82 1.393.995 1.969 2.246-.164.292-.249.644-.492.874-.162.155-.426.14-.642.203-2.549.75-5.812.288-8.488.559-7.888.799-15.736 4.259-22.605 8.035-1.731 1.036-3.597 2.486-5.656 2.589l-.591-.732.191-1.377c6.31-7.45 21.675-11.381 31.041-12.447zm-234.05-35.528c1.108.079 1.77.229 2.685.886 3.149 2.259 5.99 5.365 8.857 8.011 5.323 4.914 10.714 9.609 16.604 13.848 14.219 10.232 28.942 16.106 45.735 20.878 1.193 1.27.923 1.697.945 3.389-.178-.008-.356-.015-.533-.026-22.562-1.395-58.246-25.128-73.003-42.83-1.297-1.555-1.477-2.13-1.29-4.156z" fill="#1E1E1E"/><path d="M380.04 313.472c1.346-.072 2.735-.141 4.023.341 3.336 1.248 4.863 5.429 6.377 8.349 1.861-1.069 3.189-1.579 5.344-1.621 1.506-.029 3.26-.027 4.33 1.208.866.998 1.053 2.009 1.004 3.283-.267 6.978-10.54 19.972-15.651 24.566-.848.144-1.453.232-2.316.041-4.105-.908-14.892-13.139-17.356-17.1-1.091-1.754-2.555-4.394-1.836-6.526 2.154-6.393 6.799-1.729 10.299-3.172 1.298-1.799 1.089-3.217 1.617-5.252.596-2.292 2.234-3.047 4.165-4.117z" fill="#EBFDFF"/><path d="M322.729 131.918a169.029 169.029 0 00-3.027 14.523c-.368 2.285-1.457 9.62-1.765 11.636-.553 3.617-1.491 7.494-1.764 11.172-.095 1.281 4.739 2.117 5.487 2.365 1.282.425 2.634.803 3.864 1.378" stroke="#1E1E1E" stroke-width="2.5" stroke-linecap="round"/></svg>