<svg width="1042" height="667" fill="none" xmlns="http://www.w3.org/2000/svg"><path d="M-21 4l1058.75 463.37" stroke="#60A4FF" stroke-width="7.713" stroke-miterlimit="10" stroke-linecap="round"/><path d="M793.266 373.005c-6.564-3.659-9.333-11.098-6.469-16.84 2.864-5.741 10.473-7.999 17.35-4.951l-10.881 21.791z" fill="#FEC636" stroke="#1E1E1E" stroke-width="1.543"/><path d="M811.997 368.741l-.001.002c-2.863 5.755-10.472 8-17.35 4.95l10.881-21.789c6.567 3.672 9.347 11.098 6.47 16.837z" fill="#fff" stroke="#1E1E1E" stroke-width="1.543"/><path d="M812.019 368.768h.001c2.863-5.755 10.472-8 17.35-4.95l-10.881 21.79c-6.564-3.658-9.334-11.098-6.47-16.84z" fill="#FEC636" stroke="#1E1E1E" stroke-width="1.543"/><path d="M837.22 381.345l-.001.002c-2.864 5.754-10.472 7.999-17.35 4.95l10.881-21.791c6.566 3.659 9.347 11.099 6.47 16.839z" fill="#fff" stroke="#1E1E1E" stroke-width="1.543"/><path d="M843.711 398.197c-6.564-3.658-9.333-11.097-6.469-16.839 2.878-5.741 10.487-7.984 17.35-4.951l-10.881 21.79z" fill="#FEC636" stroke="#1E1E1E" stroke-width="1.543"/><path d="M862.442 393.935l-.001.002c-2.863 5.754-10.472 7.999-17.35 4.95l10.881-21.79c6.568 3.673 9.347 11.098 6.47 16.838z" fill="#fff" stroke="#1E1E1E" stroke-width="1.543"/><path d="M-88 199L970.746 662.37" stroke="#60A4FF" stroke-width="7.713" stroke-miterlimit="10" stroke-linecap="round"/><path d="M726.266 568.005c-6.564-3.659-9.333-11.098-6.469-16.84 2.864-5.741 10.473-7.999 17.35-4.951l-10.881 21.791z" fill="#FEC636" stroke="#1E1E1E" stroke-width="1.543"/><path d="M744.997 563.741l-.001.002c-2.863 5.755-10.472 8-17.35 4.95l10.881-21.789c6.567 3.672 9.347 11.098 6.47 16.837z" fill="#fff" stroke="#1E1E1E" stroke-width="1.543"/><path d="M745.019 563.768h.001c2.863-5.755 10.472-8 17.35-4.95l-10.881 21.79c-6.564-3.658-9.334-11.098-6.47-16.84z" fill="#FEC636" stroke="#1E1E1E" stroke-width="1.543"/><path d="M770.22 576.345l-.001.002c-2.864 5.754-10.472 7.999-17.35 4.95l10.881-21.791c6.566 3.659 9.347 11.099 6.47 16.839z" fill="#fff" stroke="#1E1E1E" stroke-width="1.543"/><path d="M776.711 593.197c-6.564-3.658-9.333-11.097-6.469-16.839 2.878-5.741 10.487-7.984 17.35-4.951l-10.881 21.79z" fill="#FEC636" stroke="#1E1E1E" stroke-width="1.543"/><path d="M795.442 588.935l-.001.002c-2.863 5.754-10.472 7.999-17.35 4.95l10.881-21.79c6.568 3.673 9.347 11.098 6.47 16.838z" fill="#fff" stroke="#1E1E1E" stroke-width="1.543"/><path d="M-67 200l789.5 346.5M0 5l789.5 346.5" stroke="#1E1E1E" stroke-width="2"/></svg>