<svg width="95" height="56" fill="none" xmlns="http://www.w3.org/2000/svg"><mask id="a" style="mask-type:luminance" maskUnits="userSpaceOnUse" x="0" y="0" width="96" height="56"><path d="M94.64 55.547H.36V1.277h94.28v54.27z" fill="#fff" stroke="#fff" stroke-width=".721"/></mask><g mask="url(#a)"><path d="M87.755 55.345C89.651 38.916 82.35 21.42 68.58 12.257c-13.77-9.163-33.566-8.802-46.246 1.824-8.14 6.827-12.89 16.963-15.406 27.279-2.415 9.883-2.92 20.654 1.225 29.946C13.43 83.13 26.226 90.98 39.173 90.951c12.948-.03 25.456-7.627 32.009-18.787 6.553-11.167 7.18-25.44 2.242-37.408-3.958-9.58-11.852-18-21.945-20.387-11.145-2.638-23.386 2.812-30.003 12.17-7.606 10.755-7.736 26.384.072 36.996 7.807 10.619 23.133 15.11 35.266 9.97 9.3-3.944 16.228-13.38 16.444-23.473.216-10.1-6.755-20.127-16.509-22.766-9.754-2.631-21.23 3.006-24.467 12.573-3.244 9.566 3.02 21.425 12.897 23.523 9.876 2.105 20.69-6.9 19.817-16.963" stroke="#60A4FF" stroke-width="1.442" stroke-miterlimit="10"/></g></svg>