<svg width="788" height="617" fill="none" xmlns="http://www.w3.org/2000/svg"><path d="M-171 3.917l1058.746 463.37" stroke="#60A4FF" stroke-width="7.713" stroke-miterlimit="10" stroke-linecap="round"/><path d="M643.266 372.922c-6.564-3.658-9.333-11.098-6.469-16.84 2.864-5.741 10.473-7.999 17.35-4.951l-10.881 21.791z" fill="#FEC636" stroke="#1E1E1E" stroke-width="1.543"/><path d="M661.997 368.659l-.001.002c-2.863 5.754-10.472 7.999-17.35 4.95l10.881-21.79c6.567 3.673 9.347 11.098 6.47 16.838z" fill="#fff" stroke="#1E1E1E" stroke-width="1.543"/><path d="M662.02 368.685h0c2.863-5.755 10.472-8 17.35-4.95l-10.881 21.791c-6.564-3.659-9.334-11.099-6.469-16.841z" fill="#FEC636" stroke="#1E1E1E" stroke-width="1.543"/><path d="M687.22 381.262l-.001.002c-2.864 5.754-10.472 7.999-17.35 4.95l10.881-21.791c6.566 3.659 9.347 11.099 6.47 16.839z" fill="#fff" stroke="#1E1E1E" stroke-width="1.543"/><path d="M693.711 398.114c-6.564-3.658-9.333-11.097-6.469-16.839 2.878-5.741 10.487-7.984 17.35-4.951l-10.881 21.79z" fill="#FEC636" stroke="#1E1E1E" stroke-width="1.543"/><path d="M712.442 393.852l-.001.002c-2.863 5.755-10.472 7.999-17.349 4.95l10.88-21.79c6.568 3.673 9.347 11.099 6.47 16.838z" fill="#fff" stroke="#1E1E1E" stroke-width="1.543"/><path d="M-238 198.917l1058.746 463.37" stroke="#60A4FF" stroke-width="7.713" stroke-miterlimit="10" stroke-linecap="round"/><path d="M576.266 567.922c-6.564-3.658-9.333-11.098-6.469-16.84 2.864-5.741 10.473-7.999 17.35-4.951l-10.881 21.791z" fill="#FEC636" stroke="#1E1E1E" stroke-width="1.543"/><path d="M594.997 563.659l-.001.002c-2.863 5.754-10.472 7.999-17.35 4.95l10.881-21.79c6.567 3.673 9.347 11.098 6.47 16.838z" fill="#fff" stroke="#1E1E1E" stroke-width="1.543"/><path d="M595.02 563.685h0c2.863-5.755 10.472-8 17.35-4.95l-10.881 21.791c-6.564-3.659-9.334-11.099-6.469-16.841z" fill="#FEC636" stroke="#1E1E1E" stroke-width="1.543"/><path d="M620.22 576.262l-.001.002c-2.864 5.754-10.472 7.999-17.35 4.95l10.881-21.791c6.566 3.659 9.347 11.099 6.47 16.839z" fill="#fff" stroke="#1E1E1E" stroke-width="1.543"/><path d="M626.711 593.114c-6.564-3.658-9.333-11.097-6.469-16.839 2.878-5.741 10.487-7.984 17.35-4.951l-10.881 21.79z" fill="#FEC636" stroke="#1E1E1E" stroke-width="1.543"/><path d="M645.442 588.852l-.001.002c-2.863 5.755-10.472 7.999-17.349 4.95l10.88-21.79c6.568 3.673 9.347 11.099 6.47 16.838z" fill="#fff" stroke="#1E1E1E" stroke-width="1.543"/><path d="M-217 199.917l789.5 346.5M-150 4.917l789.5 346.5" stroke="#1E1E1E" stroke-width="2"/></svg>