<svg width="88" height="101" fill="none" xmlns="http://www.w3.org/2000/svg"><path d="M99.14 96.058c17.54-14.79 26.82-39.4 21.62-61.75-5.19-22.35-25.52-40.82-48.43-42.14-14.71-.85-29.15 4.87-41.51 12.89-11.84 7.69-22.59 18.08-27.25 31.41-5.92 16.95-.47 37.06 12.63 49.34 13.1 12.28 32.95 16.51 50.19 11.47 17.24-5.04 31.45-18.86 37.84-35.64 5.12-13.44 5.16-29.45-2.76-41.46-8.75-13.26-26.29-19.4-41.86-16.25-17.9 3.63-32.9 19.29-35.11 37.43-2.21 18.14 8.99 37.25 26.13 43.6 13.14 4.87 29.11 1.93 38.93-8.06s12.33-26.75 4.99-38.69c-7.34-11.93-24.29-17.16-36.66-10.58-12.37 6.58-17.33 24.5-9.36 36.02 7.97 11.52 27.45 12.71 36.14 1.72" stroke="#60A4FF" stroke-width="2" stroke-miterlimit="10"/></svg>