<svg width="21" height="21" fill="none" xmlns="http://www.w3.org/2000/svg"><g clip-path="url(#clip0_28_319)" stroke="#1E1E1E" stroke-miterlimit="10"><path d="M8.36 17.834c-2.095-1.822-5.5-5.663-5.5-9.504 0-4.238 2.355-7.063 7.064-7.063 4.39 0 7.611 3.141 7.611 7.56 0 5.297-6.473 10.594-7.062 10.594-.198 0-1.057-.596-2.112-1.587z" fill="#1E1E1E"/><path d="M2.86 8.33c0 5.297 6.475 10.594 7.064 10.594.588 0 7.062-5.297 7.062-10.594 0-4.238-2.354-7.063-7.062-7.063-4.709 0-7.063 2.825-7.063 7.063z" fill="#FEC636"/><path d="M9.924 11.273c2.265.003 3.684-2.448 2.553-4.41a2.942 2.942 0 00-2.553-1.475C7.658 5.39 6.246 7.844 7.38 9.805a2.942 2.942 0 002.543 1.468z" fill="#fff"/></g><defs><clipPath id="clip0_28_319"><path fill="#fff" transform="translate(.198 .344)" d="M0 0h20v20H0z"/></clipPath></defs></svg>