<svg width="332" height="463" fill="none" xmlns="http://www.w3.org/2000/svg"><path d="M171.11 155.94l.055-84.557.036-23.391c.016-3.555.486-7.718-.099-11.206-.549-.356-.938-.25-1.574-.253-.186 24.83-.244 49.66-.175 74.492l-.004 90.408c.005 17.861.267 35.761-.008 53.618-5.052 1.377-15.288 6.624-17.969 11.304-.509.889-.971 2.312-.661 3.338.156.515.538 1.009.836 1.45-2.255 2.215-7.471 3.955-7.542 7.611-.038 1.952 1.244 3.96 2.591 5.282 1.854 1.818 3.421.814 4.121 2.812.234.666.522 1.067 1.162 1.393 2.178 1.106 5.206.204 7.558.473 3.231.369 6.521 1.445 9.662 2.273l.91 137.017c.581.007 1.03.034 1.568-.231.462-2.951.072-6.424.066-9.443l-.039-21.273c.105-.036.211-.071.315-.109 28.187-10.122 47.574-26.556 64.458-51.052 6.26-9.082 11.71-18.376 16.312-28.403.231-.136.576-.311.76-.519 2.462-2.779 3.564-15.543 3.577-19.229 4.774.206 8.733-.44 13.023-2.608 1.557-.787 3.127-1.744 4.756-2.365 2.103-.803 5.05-.818 7.323-1.301 9.92-2.106 19.477-6.08 25.152-14.937 6.918-10.797 5.893-23.218.367-34.341-2.968-5.973-6.532-10.686-7.069-17.57-.804-10.303 5.51-14.413 2.81-26.695-1.347-6.131-5.453-13.27-7.557-19.648-4.991-15.129-7.232-40.541-21.929-49.694-3.581-2.231-7.186-2.683-11.247-1.726-1.048-.712-2.147-1.413-3.059-2.298-.481-.465-1.062-1.052-1.071-1.756-.001-.008-.071-.701-.089-.782-.336-1.458-2.853-3.257-4.041-4.108-7.777-5.576-16.927-6.356-26.178-4.806-19.335 3.24-35.778 16.181-48.08 30.834-3.229 3.847-6.108 7.915-9.027 11.996z" fill="#FEC636"/><path d="M251.225 236.553c-.229.107-.412.174-.601.362-2.47 2.459-2.931 11.736-2.436 15.204.899 6.306 4.257 12.45 9.38 16.297.022-.01.045-.017.066-.03.521-.329.556-.333.706-.914-.827-1.872-3.676-4.045-4.962-5.89-3.334-4.784-4.701-12.349-3.46-18.025.43-1.97 1.464-3.932 1.752-5.901.085-.582-.099-.657-.445-1.103z" fill="#000"/><path d="M171.11 155.94l.055-84.557.037-23.391c.015-3.555.486-7.718-.1-11.206-.548-.356-.938-.25-1.574-.253-.186 24.83-.244 49.66-.175 74.492l-.003 90.408c.005 17.861.266 35.761-.009 53.618-5.052 1.377-15.288 6.624-17.968 11.304-.51.889-.972 2.312-.662 3.338.156.515.538 1.009.837 1.45-2.256 2.215-7.472 3.955-7.543 7.611-.038 1.952 1.244 3.96 2.591 5.282 1.854 1.818 3.421.814 4.121 2.812.234.666.522 1.067 1.162 1.393 2.178 1.106 5.206.204 7.558.473 3.232.369 6.521 1.445 9.662 2.273l.91 137.017c.581.007 1.03.034 1.568-.231.462-2.951.072-6.424.066-9.443l-.039-21.273c.025-12.566-.039-25.132-.192-37.698 8.007-4.031 16.434-10.597 22.835-16.863a120.936 120.936 0 004.642-4.751 120.742 120.742 0 008.471-10.225 121.098 121.098 0 003.804-5.446c1.099-1.642 3.051-3.968 3.074-6.003-.314-.522-.296-.519-.873-.708-.861.368-4.926 7.435-5.959 8.901a125.774 125.774 0 01-7.917 9.916c-8.196 9.269-17.665 16.629-28.131 23.165l-.349-50.497c5.121-5.263 10.539-14.205 12.444-21.231 1.217-4.493 1.81-11.849-.653-16.023-.977-1.656-2.537-2.923-3.529-4.579-1.093-1.823-1.808-3.877-2.89-5.718-1.268-2.157-2.693-3.782-5.186-4.416l-.066-41.264c1.195.015 4.604-.255 5.423.457-.112.295-.315.709-.336 1.019-.04.589.309.799.676 1.196-.091 10.123 2.161 19.232 9.437 26.653 2.347 2.394 5.085 4.382 7.853 6.26-.069-.004-.138-.007-.208-.013-5.966-.534-14.82-7.303-20.234-10.199-.52-.278-.811-.386-1.38-.188-.278 1.071 1.451 3.76 2.009 4.712 4.468 7.634 13.435 13.217 21.858 15.362 7.356 1.873 15.772 1.736 22.449-2.228 1.791-1.063 3.351-2.387 4.741-3.934 4.908 6.444 10.976 11.166 16.966 16.498 11.651 10.372 16.358 20.979 14.199 36.591-.218 1.577-.435 3.179-.799 4.729-.416 1.766-1.552 4.232-1.515 5.993.007.336.103.546.293.812.039.054.086.104.128.156.232-.136.576-.311.76-.519 2.463-2.779 3.564-15.543 3.577-19.229 4.774.206 8.733-.44 13.023-2.608 1.557-.787 3.127-1.744 4.756-2.365 2.103-.803 5.05-.818 7.323-1.301 9.92-2.106 19.477-6.08 25.152-14.937 6.918-10.797 5.893-23.218.367-34.341-2.968-5.973-6.531-10.686-7.069-17.57-.804-10.303 5.51-14.413 2.81-26.695-1.347-6.131-5.453-13.27-7.557-19.648-4.991-15.129-7.232-40.541-21.929-49.694-3.581-2.231-7.186-2.683-11.247-1.726-.579.36-1.004.602-1.353 1.215.13.353.051.374.383.511 1.219.498 4.633-.297 6.052-.445 2.24-.234 5.923 2.284 7.581 3.716 4.004 3.457 6.743 8.3 8.823 13.098 4.528 10.447 6.298 21.976 9.624 32.83a82.134 82.134 0 003.804 10.091c1.018 2.284 2.212 4.541 3.059 6.894a29.52 29.52 0 011.616 7.644c.553 8.29-4.431 14.463-3.463 22.874.827 7.188 4.774 12.445 7.733 18.777 5.37 11.491 5.496 24.736-3.239 34.654-6.437 7.306-16.858 10.949-26.353 11.934 2.768-2.91 8.078-9.322 7.928-13.578-.015-.448-.26-.775-.539-1.099l-.476-.052c-1.049.854-.959 3.085-1.568 4.38-3.46 7.351-10.297 13.469-18.313 15.329-2.296.533-4.591.619-6.939.652-2.642-23.088-14.974-25.975-28.424-40.457-3.096-3.334-5.627-7.448-7.996-11.331 1.548-2.554 3.15-5.087 4.511-7.746 12.749-3.591 20.831-9.33 29.819-18.774 4.07 1.376 7.853 1.633 11.801-.284 3.877-1.883 6.716-5.292 8.114-9.347 1.148-3.328 1.369-7.339-.219-10.559-1.114-2.259-2.723-3.536-4.891-4.66a106.979 106.979 0 002.539-10.864c2.355 2.125 10.959 9.102 14.116 8.872.337-.025.262-.069.528-.36l-.011-.552c-1.351-1.173-3.25-1.996-4.806-2.891a38.782 38.782 0 01-5.797-4.007c-9.385-7.815-20.172-24.435-21.057-36.883-.082-1.167.245-3.266-.377-4.202-.793-.171-.997.038-1.683.484-1.809 1.175-3.411 2.654-5.311 3.702-8.722 4.811-19.231 5.755-28.917 4.043-4.196-.742-8.248-1.91-12.26-3.326-1.786-.631-3.579-1.472-5.397-1.979-.594-.165-.623-.166-1.138.121-.188.608-.187.623.034 1.22 2.847 1.748 7.29 3.196 10.583 3.942 12.896 3.439 26.505 4.183 38.488-2.701 1.438-.827 2.783-1.775 4.122-2.751.337 12.967 8.994 26.206 17.324 35.722a63.726 63.726 0 01-1.753 8.493 63.803 63.803 0 01-2.886 8.177c-4.627 10.625-13.316 21.632-22.579 28.549-8.587 6.413-20.142 11.187-31.04 9.564-6.318-.941-11.101-4.235-14.837-9.344-6.181-8.45-8.64-19.839-9.043-30.154-.201-5.146.737-10.061.849-15.153.007-.297-.075-.479-.233-.722l.185.302-.76-.644c-.421.723-.537 1.712-1.221 2.155-1.078-.549-1.665-2.268-2.015-3.36-1.535-4.789-1.172-10.922 1.161-15.408.715-1.375 1.816-2.738 3.345-3.224.681-.216 1.245-.152 1.862.209 1.635.954 2.01 5.356 3.477 5.305 3.331-2.053 6.388-5.498 9.365-8.074 1.738-1.504 3.684-2.772 5.393-4.302.496-.444.861-.801 1.145-1.403-.079-.387-.109-.517-.345-.85-2.751.439-12.436 9.58-15.008 11.806-.363-.848-.783-1.733-1.323-2.481-.81-1.124-1.938-2.19-3.363-2.394-1.364-.195-2.655.457-3.665 1.319-3.048 2.6-4.496 7.431-4.764 11.309-.371 5.358.907 10.333 4.444 14.416-.351 3.459-.271 6.973-.671 10.425-.685 5.904-4.539 12.159-8.001 16.831-2.428-1.81-4.411-2.733-7.323-3.542l.035-49.054c4.97-8.866 12.789-17.723 20.158-24.693 13.705-12.962 37.702-25.748 56.717-18.425a19.892 19.892 0 014.688 2.564c1.029.758 3.681 3.584 4.568 3.857.306.094.913.025 1.253.035 0-.008-.071-.701-.089-.782-.336-1.458-2.853-3.257-4.04-4.108-7.778-5.576-16.928-6.356-26.179-4.806-19.335 3.24-35.778 16.181-48.08 30.834-3.229 3.847-6.108 7.915-9.027 11.996z" fill="#000"/><path d="M171.516 256.54c-5.328.622-11.772 4.711-15.89 8.06-1.423 1.157-2.974 2.282-3.046 4.281-.019.524.046.752.418 1.134 1.067.087 2.988-1.252 3.966-1.771 7.326-3.894 12.433-4.801 20.478-2.732-1.459-3.115-2.989-7.003-5.926-8.972zm97.796-61.513c-.711.291-1.938 3.951-2.361 4.81a72.053 72.053 0 01-6.021 9.988c-1.479 2.081-3.12 4.09-4.434 6.279l.176.324c1.3.675 2.823.811 4.263.858a28.719 28.719 0 001.521-.193c3.525-.559 6.732-2.804 8.796-5.668 2.028-2.814 3.258-6.59 2.603-10.056-.546-2.889-2.224-4.716-4.543-6.342z" fill="#F6F6F5"/><path d="M269.629 201.266c-.268.106-.41.215-.633.393l-.001.3c-.001.156-.007.311-.004.467.028 1.347-.215 2.56-.591 3.85-1.036 3.556-3.535 4.143-6.45 5.731l-.02.473c1.284.08 2.33-.111 3.464-.747 2.251-1.262 3.955-3.713 4.615-6.183.419-1.568.469-2.876-.38-4.284z" fill="#000"/><path d="M172.132 266.166a29.177 29.177 0 00-1.417-.082c-6.464-.197-12.631 3.325-17.973 6.585-1.866 1.139-3.812 2.257-5.389 3.789-.917.889-1.572 1.881-1.584 3.194.1.133.151.322.298.399.11.058 5.818-2.783 7.762-3.561 6.157-2.467 12.187-3.738 18.822-3.027 1.18.126 2.467.202 3.601.549 1.172.359 2.397.922 2.97 2.059l-.151.358c-1.334.338-3.804-.778-5.253-.999a33.713 33.713 0 00-9.564-.009c-3.469.466-14.734 3.82-16.83 6.549.16.455.043.321.295.554.779.72 1.549 1.088 2.617 1.167 2.472.185 5.552-.936 7.999-1.409a47.718 47.718 0 017.432-.868c2.816-.105 10.074-.501 12.392.636.451.221.497.309.666.75-.256.465-.316.528-.884.637-1.468.28-4.242-.324-5.934-.374-3.536-.105-16.828.511-19.589 2.692l.013.384c.784.645 2.18.597 3.151.648 4.806.251 9.22 1.111 13.904 2.155 1.316.293 3.227.504 3.993 1.709l-.163.496c-.797.412-1.699.289-2.573.269a1240.5 1240.5 0 00.012 13.084c4.892-5.987 10.189-14.06 11.506-21.714.658-3.827.825-9.631-1.602-12.908-2.001-2.701-5.418-3.271-8.527-3.712zm50.723-29.112c-.697.097-1.396.185-2.095.266-7.016.803-14.035-.149-19.68-4.698-9.244-7.451-12.818-21.05-14.012-32.329-2.018 4.528-6.041 13.391-10.176 15.996-.092 10.123 2.161 19.232 9.437 26.653 2.347 2.394 5.085 4.382 7.853 6.26 5.476 2.53 11.583 3.772 17.536 2.227 1.55-.402 3.149-1.042 4.301-2.19 1.51-1.506 5.283-9.499 6.836-12.185z" fill="#F6F6F5"/><path d="M253.386 144.995c-1.339.976-2.684 1.924-4.122 2.751-11.983 6.884-25.593 6.14-38.488 2.701l.004.386c.236.333.266.463.345.85-.285.602-.649.959-1.145 1.403-1.709 1.53-3.655 2.798-5.393 4.302-2.977 2.576-6.034 6.021-9.365 8.074-1.467.052-1.842-4.351-3.477-5.305-.617-.361-1.181-.425-1.862-.209-1.529.487-2.63 1.849-3.345 3.224-2.333 4.486-2.696 10.619-1.161 15.408.35 1.093.937 2.811 2.015 3.36.684-.443.8-1.432 1.221-2.155l.759.644-.184-.302c.158.243.24.425.233.722-.112 5.092-1.051 10.007-.849 15.153.403 10.315 2.862 21.704 9.043 30.155 3.736 5.108 8.519 8.402 14.837 9.343 10.898 1.623 22.453-3.151 31.04-9.564 9.263-6.917 17.952-17.924 22.579-28.549a64.11 64.11 0 002.886-8.177 63.726 63.726 0 001.753-8.493c-8.33-9.515-16.987-22.755-17.324-35.722z" fill="#F6F6F5"/><path d="M255.41 194.739l-.843.183c-.365.441-.342.495-.376 1.075.305.73.547.959 1.178 1.435.645-.161.918-.124 1.337-.657-.072-.786-.799-1.448-1.296-2.036zm-64.976-29.95c-.453-.044-.958-.122-1.407 0a2.151 2.151 0 00-1.33 1.127c-.161.355-.102.257.075.651l.502-.039c.926-.194 2.208.028 2.974-.473-.092-.636-.382-.805-.814-1.266zm1.438 4.497c-.834-.001-1.624.042-2.376.439-1.344.711-1.72 2.071-2.092 3.44.522 1.847 1.068 2.834 2.417 4.162.236-.07.432-.209.644-.333.07-.833-.632-1.52-1.024-2.254-.371-.695-.669-1.4-.315-2.178.338-.741.97-1.022 1.673-1.316.505-.211.915-.39 1.361-.706.171-.639.039-.666-.288-1.254zm19.278 49.254l-.455.099c-.208.254-.36.303-.315.659.137 1.093 1.338 2.044 2.134 2.691 1.694 1.377 3.344 1.322 5.406 1.141.444-.172.642-.296.948-.664-.126-.432-.112-.54-.561-.735-.644-.28-1.497-.254-2.19-.408-1.999-.445-3.396-1.553-4.967-2.783zm44.08-25.42c.534-.553.966-.971 1.22-1.707l-.193-.311c-.59-.093-1.305-.152-1.849-.407-.604-.283-.893-.609-1.129-1.218-.409-1.057-.916-1.876-1.746-2.665-1.954-1.858-4.362-2.807-7.066-2.669-2.578.132-6.092 1.421-7.812 3.425-.449.523-.742.989-.696 1.683l.584.066-.324.04c1.198-.17 2.71-2.034 3.833-2.692 1.459-.852 3.345-1.225 5.01-1.354 1.707-.287 3.431.144 4.865 1.115.81.547 1.609 1.345 1.858 2.313.904 1.181 1.202 2.507 1.785 3.839.333.759.736 1.504 1.578 1.781 1.103.365 2.709.722 3.797.187.2-.454.08-.466-.086-.909-.859-.576-2.579-.452-3.629-.517zm-47.494-24.237c-.259-.975-.415-1.996-1.218-2.647l-.649.141c-.991 1.347.421 2.67-.038 4.063-.848.409-2.101-.049-3.041.003-.561.031-.609.073-.971.464l.068.495c1.084.944 2.31.872 3.663.874l.55-.086c2.612-2.388 3.768-2.853 7.345-2.904 1.951.099 3.754 1.08 5.065 2.515.711.779 1.405 1.829 1.589 2.885.805 2.152.33 5.907 1.457 7.509l.267-.128c.78-1.861.407-4.469-.126-6.399-.79-2.868-2.578-5.199-5.217-6.604-3.035-1.614-5.627-1.119-8.744-.181zm42.923 6.617c-.495-.03-.998-.064-1.494-.043-.953.04-2.311.315-2.955 1.028.304 1.519 7.013 2.935 8.652 3.742 1.832.903 3.312 2.112 4.838 3.456.322.425.644.898 1.021 1.275.371.369.652.394 1.143.35l.266-.462c-.07-1.22-.551-2.197-1.26-3.183-2.516-3.495-5.995-5.506-10.211-6.163zm-33.812-17.406c-.631-.074-1.282-.078-1.918-.082-1.212-.006-3.166.181-4.041 1.057.845.94 3.01.851 4.214 1.037 3.67.569 6.473 2.798 9.119 5.239.811.864 1.69 2.067 2.762 2.586.5-.301.642-.395.814-1 .302-1.064-.395-2.644-.987-3.496-2.198-3.165-6.31-4.716-9.963-5.341zm-10.745 46.128c-.153.019-.375.038-.516.092-.515.197-.528.396-.697.875.346 2.777 4.035 6.303 6.139 8.007 5.032 4.076 10.607 5.86 17.056 5.193.607-.155 1.21-.256 1.586-.799-.73-1.181-6.864-.696-8.597-1.192-7.007-2.005-11.411-5.889-14.971-12.176z" fill="#000"/><path d="M176.892 216.289c-.367-.397-.716-.607-.676-1.196.021-.31.224-.724.336-1.019-.82-.711-4.228-.442-5.423-.457l.066 41.264c2.493.634 3.918 2.259 5.186 4.416 1.082 1.841 1.797 3.895 2.89 5.718.992 1.656 2.551 2.923 3.529 4.579 2.463 4.174 1.87 11.53.652 16.023-1.904 7.026-7.323 15.968-12.443 21.231l.349 50.497c10.466-6.536 19.935-13.896 28.131-23.165a125.532 125.532 0 007.916-9.916c1.034-1.466 5.098-8.533 5.96-8.901.577.189.559.186.873.708-.023 2.035-1.975 4.361-3.074 6.003a121.098 121.098 0 01-12.275 15.671 120.936 120.936 0 01-4.642 4.751c-6.402 6.266-14.828 12.832-22.835 16.863.153 12.566.217 25.132.192 37.698.105-.036.211-.071.315-.109 28.187-10.122 47.574-26.556 64.458-51.052 6.26-9.082 11.71-18.376 16.312-28.403-.043-.052-.089-.102-.128-.156-.19-.266-.286-.476-.293-.812-.037-1.761 1.099-4.227 1.515-5.993.364-1.55.581-3.152.799-4.729 2.159-15.612-2.548-26.219-14.199-36.591-5.99-5.332-12.058-10.054-16.967-16.498-1.389 1.547-2.949 2.871-4.74 3.934-6.677 3.964-15.093 4.101-22.449 2.228-8.424-2.145-17.391-7.728-21.858-15.362-.558-.952-2.287-3.641-2.009-4.712.569-.198.86-.09 1.38.188 5.413 2.896 14.268 9.665 20.234 10.199.07.006.139.009.208.013-2.768-1.878-5.506-3.866-7.853-6.26-7.276-7.421-9.529-16.53-9.437-26.653z" fill="#60A4FF"/><path d="M236.089 168.51a168.959 168.959 0 01-3.416 14.437c-.635 2.225-2.759 9.329-3.335 11.286-1.033 3.51-1.828 7.419-3.14 10.866-.457 1.2-5.189-.092-5.971-.185-1.342-.158-2.726-.39-4.084-.39" stroke="#000" stroke-width="1.5" stroke-linecap="round"/><path d="M246.132 184.071c-.611-.044-1.223-.07-1.834-.017-1.899.163-4.048.878-5.236 2.439-1.007 1.32-1.432 3.168-1.144 4.797a6.094 6.094 0 00.865 2.217 6.217 6.217 0 001.179 1.346c.152.129.31.25.475.363.99.676 2.254 1.06 3.447.791 1.079-.244 2.456-1.167 2.938-2.191.465-.988-.165-2.189-.589-3.066l-.142-.29.14-.372c.937-.774 1.599-1.696 2.316-2.665 2.203 1.516 3.453 3.397 3.62 6.104.033.538-.02 1.131.255 1.607.171.295.374.246.676.31.513-.278.825-.406 1.041-1.001.492-1.355-.397-3.781-1.042-4.969-1.537-2.829-3.926-4.547-6.965-5.403zm-39.546-13.914c.021.027.039.056.063.08.226.232.813.683.809 1.039-.012 1.308-2.397 3.059-1.547 5.878.367 1.218 1.434 2.542 2.585 3.094 1.219.585 2.687.602 3.939.106 3.857-1.526 1.13-4.021 1.925-5.932.686-.569 2.033-1.298 2.96-1.097.594.129.859.342 1.189.847 1.209 1.854.222 4.778-.088 6.749-.095.603-.135.846.233 1.339.48.006.813-.104 1.169-.439 1.063-1.005 1.339-3.668 1.264-5.078-.125-2.362-1.509-4.54-3.313-6-1.814-1.468-4.479-2.563-6.813-1.887-.677.196-1.428.708-2.123.723-.07.001-.139-.014-.209-.02-.406.323-.769.611-1.232.851l-.811-.253z" fill="#070503"/></svg>