<svg width="98" height="106" fill="none" xmlns="http://www.w3.org/2000/svg"><mask id="a" style="mask-type:luminance" maskUnits="userSpaceOnUse" x="0" y="0" width="98" height="106"><path d="M97.71 0H0v105.68h97.71V0z" fill="#fff"/></mask><g mask="url(#a)"><path d="M109.14 95.14c17.54-14.79 26.82-39.4 21.62-61.75-5.19-22.35-25.52-40.82-48.43-42.14C67.62-9.6 53.18-3.88 40.82 4.14c-11.84 7.69-22.59 18.08-27.25 31.41C7.65 52.5 13.1 72.61 26.2 84.89c13.1 12.28 32.95 16.51 50.19 11.47 17.24-5.04 31.45-18.86 37.84-35.64 5.12-13.44 5.16-29.45-2.76-41.46C102.72 6 85.18-.14 69.61 3.01 51.71 6.64 36.71 22.3 34.5 40.44c-2.21 18.14 8.99 37.25 26.13 43.6 13.14 4.87 29.11 1.93 38.93-8.06s12.33-26.75 4.99-38.69c-7.34-11.93-24.29-17.16-36.66-10.58-12.37 6.58-17.33 24.5-9.36 36.02 7.97 11.52 27.45 12.71 36.14 1.72" stroke="#fff" stroke-width="2" stroke-miterlimit="10"/></g></svg>