<svg width="147" height="281" fill="none" xmlns="http://www.w3.org/2000/svg"><g clip-path="url(#clip0_46_1586)"><path d="M.93 87.931l.053-80 .034-22.13c.015-3.364.46-7.302-.094-10.603-.519-.336-.887-.236-1.49-.239a6854.13 6854.13 0 00-.165 70.478l-.003 85.535c.005 16.899.252 33.835-.008 50.729-4.78 1.303-14.464 6.267-17 10.695-.482.841-.92 2.188-.627 3.157.148.488.51.955.792 1.373-2.134 2.095-7.068 3.742-7.136 7.201-.036 1.847 1.177 3.746 2.452 4.996 1.753 1.721 3.236.771 3.899 2.662.22.629.493 1.009 1.1 1.317 2.06 1.047 4.924.194 7.15.448 3.057.349 6.17 1.366 9.14 2.15l.862 129.633c.55.007.974.032 1.483-.219.438-2.791.069-6.077.063-8.933l-.037-20.127c.1-.034.2-.067.298-.103 26.668-9.577 45.01-25.125 60.984-48.301 5.923-8.592 11.079-17.386 15.433-26.872.22-.129.545-.294.72-.492 2.329-2.629 3.371-14.705 3.383-18.192 4.517.195 8.263-.416 12.321-2.468 1.473-.744 2.959-1.65 4.5-2.237 1.99-.76 4.778-.774 6.929-1.231 9.385-1.992 18.427-5.752 23.796-14.131 6.545-10.216 5.576-21.968.347-32.491-2.808-5.651-6.179-10.11-6.688-16.623-.761-9.748 5.213-13.637 2.659-25.257-1.275-5.8-5.16-12.554-7.15-18.588-4.722-14.314-6.843-38.356-20.747-47.017-3.388-2.11-6.799-2.538-10.64-1.632-.992-.674-2.032-1.337-2.896-2.174-.454-.44-1.004-.996-1.012-1.662-.001-.008-.068-.663-.085-.74-.317-1.38-2.699-3.081-3.822-3.887-7.359-5.275-16.016-6.013-24.768-4.546-18.293 3.065-33.85 15.308-45.489 29.172-3.055 3.639-5.779 7.488-8.54 11.35z" fill="#FEC636"/><path d="M76.728 164.2c-.217.101-.39.164-.57.343-2.336 2.326-2.772 11.103-2.304 14.384.85 5.967 4.028 11.779 8.875 15.419.02-.01.043-.016.063-.029.492-.311.525-.315.668-.864-.783-1.771-3.479-3.828-4.695-5.573-3.155-4.526-4.448-11.684-3.274-17.054.407-1.863 1.386-3.72 1.658-5.582.08-.552-.094-.622-.421-1.044z" fill="#000"/><path d="M.93 87.931l.053-80 .034-22.13c.015-3.364.46-7.302-.094-10.603-.519-.336-.887-.236-1.49-.239a6854.158 6854.158 0 00-.165 70.478l-.003 85.535c.005 16.899.252 33.835-.008 50.729-4.78 1.303-14.464 6.267-17 10.694-.482.842-.92 2.189-.627 3.158.148.488.51.955.792 1.373-2.134 2.095-7.068 3.742-7.136 7.201-.036 1.847 1.177 3.746 2.452 4.996 1.753 1.721 3.236.771 3.899 2.662.22.629.493 1.009 1.1 1.317 2.06 1.047 4.924.194 7.15.448 3.057.349 6.17 1.366 9.14 2.15l.862 129.633c.55.007.974.032 1.483-.219.438-2.791.069-6.077.063-8.933l-.037-20.127c.024-11.889-.037-23.778-.182-35.666 7.576-3.814 15.548-10.026 21.605-15.955a114.912 114.912 0 0016.005-19.321c1.04-1.553 2.886-3.754 2.908-5.679-.297-.494-.28-.491-.826-.671-.815.349-4.66 7.035-5.638 8.422a118.778 118.778 0 01-7.49 9.381c-7.755 8.77-16.713 15.734-26.615 21.917l-.33-47.775c4.844-4.98 9.97-13.44 11.773-20.088 1.152-4.25 1.713-11.21-.617-15.159-.925-1.567-2.401-2.765-3.34-4.332-1.034-1.725-1.71-3.668-2.734-5.41-1.2-2.041-2.547-3.578-4.906-4.178L.949 142.5c1.13.014 4.355-.241 5.13.432-.106.28-.298.671-.318.965-.038.557.292.755.64 1.131-.087 9.578 2.044 18.196 8.928 25.216 2.22 2.265 4.812 4.146 7.43 5.923-.065-.004-.13-.006-.196-.012-5.645-.505-14.023-6.91-19.144-9.649-.492-.264-.767-.366-1.306-.178-.263 1.013 1.373 3.557 1.9 4.458 4.228 7.222 12.711 12.505 20.68 14.534 6.96 1.772 14.923 1.643 21.24-2.108 1.695-1.006 3.17-2.258 4.485-3.722 4.644 6.097 10.385 10.564 16.052 15.609 11.023 9.813 15.476 19.848 13.434 34.619-.206 1.491-.411 3.007-.756 4.474-.393 1.671-1.469 4.004-1.434 5.67.007.318.098.516.278.768.037.052.08.098.121.148.22-.129.545-.294.72-.492 2.329-2.629 3.371-14.705 3.383-18.192 4.517.195 8.263-.416 12.321-2.468 1.473-.744 2.959-1.65 4.5-2.237 1.99-.76 4.778-.774 6.929-1.231 9.385-1.992 18.427-5.752 23.796-14.131 6.545-10.216 5.576-21.968.347-32.491-2.808-5.651-6.179-10.11-6.688-16.623-.761-9.748 5.213-13.637 2.659-25.257-1.275-5.8-5.16-12.554-7.15-18.588-4.722-14.314-6.843-38.356-20.747-47.017-3.388-2.11-6.799-2.538-10.64-1.632-.549.34-.951.569-1.282 1.15.124.333.049.353.363.482 1.154.472 4.384-.281 5.726-.42 2.12-.222 5.604 2.16 7.172 3.515 3.788 3.27 6.38 7.853 8.347 12.392 4.285 9.885 5.96 20.792 9.107 31.061a77.411 77.411 0 003.599 9.547c.962 2.162 2.092 4.296 2.894 6.522a28.088 28.088 0 011.528 7.233c.523 7.843-4.192 13.683-3.276 21.641.782 6.8 4.517 11.775 7.316 17.765 5.081 10.872 5.2 23.403-3.065 32.786-6.089 6.913-15.949 10.359-24.932 11.291 2.619-2.753 7.643-8.82 7.501-12.846-.015-.424-.247-.733-.51-1.04l-.451-.048c-.992.807-.907 2.918-1.483 4.143-3.273 6.955-9.742 12.743-17.326 14.503-2.172.504-4.344.585-6.565.617-2.5-21.844-14.167-24.576-26.892-38.277-2.93-3.154-5.324-7.047-7.565-10.721 1.464-2.416 2.98-4.812 4.268-7.328 12.061-3.397 19.708-8.827 28.212-17.762 3.85 1.301 7.43 1.545 11.164-.269 3.668-1.781 6.354-5.007 7.677-8.843 1.087-3.149 1.295-6.944-.207-9.99-1.054-2.137-2.576-3.345-4.628-4.409.981-3.404 1.78-6.79 2.403-10.279 2.228 2.011 10.368 8.613 13.355 8.394.319-.023.248-.065.499-.34l-.01-.522c-1.278-1.11-3.075-1.889-4.547-2.735a36.767 36.767 0 01-5.485-3.791c-8.879-7.395-19.085-23.118-19.921-34.896-.079-1.104.23-3.09-.357-3.975-.75-.162-.943.036-1.592.457-1.712 1.113-3.228 2.511-5.025 3.503-8.253 4.552-18.195 5.445-27.36 3.825-3.969-.702-7.803-1.807-11.598-3.147-1.69-.597-3.387-1.392-5.106-1.872-.563-.157-.59-.157-1.077.115-.178.575-.177.589.032 1.154 2.694 1.653 6.897 3.023 10.013 3.73 12.2 3.252 25.076 3.957 36.414-2.556 1.36-.782 2.632-1.68 3.9-2.603.318 12.268 8.509 24.794 16.39 33.797a60.294 60.294 0 01-1.659 8.035 60.276 60.276 0 01-2.73 7.737c-4.378 10.052-12.599 20.466-21.362 27.01-8.125 6.067-19.057 10.584-29.367 9.049-5.978-.89-10.503-4.007-14.038-8.84-5.848-7.995-8.175-18.771-8.556-28.53-.19-4.868.698-9.518.804-14.337.006-.28-.071-.452-.22-.682l.174.285-.718-.609c-.399.684-.51 1.62-1.156 2.039-1.02-.519-1.576-2.145-1.907-3.179-1.452-4.53-1.108-10.334 1.099-14.578.676-1.3 1.718-2.59 3.165-3.05.644-.204 1.177-.144 1.762.198 1.547.902 1.901 5.068 3.29 5.019 3.15-1.942 6.043-5.201 8.86-7.639 1.644-1.423 3.485-2.622 5.102-4.07.469-.42.814-.757 1.083-1.327-.075-.367-.103-.49-.327-.804-2.603.415-11.766 9.063-14.199 11.17-.343-.803-.74-1.64-1.251-2.348-.767-1.064-1.834-2.072-3.182-2.265-1.29-.185-2.512.432-3.468 1.248-2.883 2.46-4.253 7.03-4.507 10.699-.35 5.07.858 9.776 4.205 13.64-.332 3.272-.257 6.597-.635 9.863-.648 5.586-4.295 11.504-7.57 15.924-2.297-1.712-4.174-2.586-6.928-3.352l.033-46.41c4.702-8.388 12.1-16.767 19.072-23.362 12.966-12.264 35.67-24.36 53.66-17.432a18.783 18.783 0 014.436 2.426c.973.717 3.482 3.39 4.32 3.649.29.09.865.024 1.187.033-.001-.008-.068-.663-.085-.74-.317-1.38-2.699-3.081-3.822-3.887-7.359-5.275-16.016-6.013-24.768-4.546-18.293 3.065-33.85 15.308-45.489 29.172-3.055 3.639-5.779 7.488-8.54 11.35z" fill="#000"/><path d="M1.314 183.109c-5.04.589-11.137 4.458-15.033 7.626-1.346 1.095-2.813 2.16-2.882 4.051-.018.495.044.711.396 1.072 1.01.083 2.827-1.184 3.752-1.675 6.931-3.684 11.763-4.542 19.374-2.584-1.38-2.948-2.828-6.627-5.607-8.49zm92.526-58.197c-.673.275-1.833 3.738-2.233 4.551a68.117 68.117 0 01-5.698 9.449c-1.398 1.969-2.95 3.869-4.194 5.941l.166.306c1.23.639 2.671.767 4.034.812.481-.048.96-.109 1.439-.182 3.335-.529 6.368-2.653 8.321-5.363 1.92-2.662 3.083-6.234 2.463-9.514-.516-2.733-2.103-4.462-4.297-6z" fill="#F6F6F5"/><path d="M94.14 130.815c-.254.1-.388.203-.6.371v.285c-.001.147-.007.294-.004.441.027 1.275-.203 2.422-.559 3.643-.98 3.364-3.344 3.919-6.102 5.422l-.02.448c1.216.075 2.205-.106 3.278-.707 2.13-1.194 3.742-3.513 4.366-5.85.397-1.484.445-2.722-.359-4.053z" fill="#000"/><path d="M1.898 192.217a27.289 27.289 0 00-1.342-.077c-6.115-.187-11.95 3.145-17.004 6.229-1.765 1.078-3.606 2.136-5.098 3.585-.868.842-1.488 1.78-1.499 3.022.095.126.143.305.282.378.105.055 5.505-2.633 7.344-3.37 5.825-2.333 11.53-3.536 17.808-2.864 1.116.12 2.333.191 3.407.52 1.109.34 2.268.872 2.81 1.949l-.143.337c-1.263.321-3.6-.735-4.97-.944a31.85 31.85 0 00-9.05-.009c-3.28.441-13.939 3.614-15.922 6.196.152.431.04.304.279.524.737.682 1.466 1.03 2.476 1.105 2.34.175 5.253-.886 7.568-1.334a45.16 45.16 0 017.031-.821c2.665-.099 9.532-.474 11.725.602.426.209.47.292.63.71-.242.44-.3.499-.837.602-1.389.265-4.013-.307-5.614-.354-3.345-.099-15.92.484-18.533 2.547l.013.363c.74.611 2.062.566 2.98.614 4.548.237 8.723 1.051 13.155 2.038 1.245.278 3.053.477 3.778 1.618l-.155.469c-.754.39-1.607.273-2.434.255-.018 4.126-.014 8.252.012 12.378 4.628-5.664 9.64-13.302 10.886-20.543.623-3.621.78-9.113-1.516-12.213-1.893-2.555-5.126-3.095-8.067-3.512zm47.989-27.543c-.66.091-1.32.175-1.982.251-6.638.76-13.279-.14-18.62-4.444-8.746-7.05-12.127-19.916-13.256-30.587-1.91 4.284-5.716 12.669-9.628 15.134-.087 9.578 2.044 18.196 8.928 25.216 2.22 2.265 4.811 4.146 7.43 5.923 5.181 2.394 10.959 3.569 16.591 2.108 1.466-.381 2.98-.987 4.07-2.073 1.428-1.424 4.997-8.986 6.467-11.528z" fill="#F6F6F5"/><path d="M78.772 77.576c-1.267.923-2.539 1.82-3.9 2.603-11.337 6.513-24.213 5.809-36.413 2.555l.003.366c.224.315.252.437.327.804-.27.57-.614.907-1.083 1.327-1.617 1.448-3.459 2.647-5.103 4.07-2.816 2.438-5.709 5.697-8.86 7.64-1.388.048-1.742-4.118-3.29-5.02-.584-.342-1.117-.402-1.761-.197-1.447.46-2.489 1.748-3.165 3.05-2.207 4.243-2.55 10.047-1.099 14.577.331 1.034.887 2.66 1.907 3.18.647-.42.757-1.356 1.155-2.04l.719.609-.174-.285c.149.23.226.402.22.682-.106 4.819-.994 9.469-.804 14.337.381 9.759 2.708 20.535 8.556 28.53 3.535 4.833 8.06 7.95 14.038 8.84 10.31 1.536 21.242-2.982 29.367-9.049 8.763-6.544 16.984-16.958 21.362-27.01a60.378 60.378 0 003.696-11.726c.276-1.341.508-2.689.693-4.046-7.881-9.003-16.072-21.529-16.39-33.797z" fill="#F6F6F5"/><path d="M80.687 124.639l-.797.173c-.346.418-.324.469-.356 1.018.289.69.517.907 1.115 1.357.61-.152.868-.117 1.265-.621-.068-.744-.756-1.371-1.227-1.927zM19.213 96.303c-.43-.041-.906-.115-1.331 0a2.038 2.038 0 00-1.259 1.067c-.152.336-.097.242.072.615l.474-.037c.876-.183 2.089.027 2.814-.447-.087-.602-.361-.761-.77-1.198zm1.36 4.255c-.789-.001-1.536.04-2.247.416-1.273.672-1.628 1.958-1.98 3.254.494 1.747 1.01 2.682 2.287 3.937.223-.065.409-.197.609-.314.066-.788-.598-1.439-.969-2.132-.35-.658-.633-1.326-.298-2.061.32-.702.918-.967 1.583-1.246.478-.2.866-.369 1.288-.667.162-.605.037-.631-.273-1.187zm18.239 46.6l-.43.093c-.197.241-.34.287-.298.624.13 1.034 1.266 1.933 2.02 2.545 1.601 1.303 3.163 1.251 5.114 1.08.42-.162.607-.28.896-.627-.119-.409-.106-.512-.53-.696-.61-.265-1.417-.241-2.072-.386-1.892-.421-3.213-1.47-4.7-2.633zm41.705-24.05c.505-.524.914-.919 1.154-1.615l-.183-.295c-.557-.088-1.234-.144-1.749-.384-.571-.269-.845-.577-1.068-1.153-.387-1-.867-1.775-1.652-2.521-1.849-1.758-4.126-2.657-6.685-2.526-2.439.126-5.763 1.344-7.391 3.241-.425.495-.702.935-.659 1.592l.553.063-.307.037c1.134-.161 2.564-1.924 3.627-2.546 1.38-.807 3.165-1.159 4.74-1.281 1.615-.272 3.246.136 4.603 1.054.766.518 1.522 1.273 1.757 2.189.856 1.117 1.137 2.371 1.69 3.632.314.718.696 1.422 1.492 1.685 1.044.345 2.563.683 3.593.177.189-.429.075-.441-.082-.86-.812-.545-2.44-.428-3.433-.489zm-44.935-22.931c-.245-.923-.392-1.889-1.151-2.505l-.615.134c-.937 1.274.399 2.526-.036 3.844-.802.387-1.988-.046-2.877.003-.53.029-.576.069-.918.438l.064.469c1.025.893 2.185.825 3.466.827l.52-.081c2.47-2.26 3.565-2.699 6.95-2.748 1.845.094 3.55 1.022 4.791 2.379.673.737 1.33 1.731 1.503 2.73.762 2.036.313 5.588 1.38 7.104l.252-.121c.737-1.76.384-4.228-.12-6.054-.748-2.713-2.439-4.919-4.936-6.248-2.87-1.528-5.323-1.059-8.273-.171zm40.61 6.26c-.468-.028-.944-.061-1.413-.041-.902.038-2.186.299-2.796.973.288 1.438 6.635 2.777 8.186 3.541 1.733.854 3.134 1.998 4.577 3.269.305.402.61.85.966 1.206.351.35.617.373 1.081.332l.252-.438c-.066-1.154-.522-2.079-1.192-3.011-2.38-3.307-5.672-5.21-9.66-5.831zM44.203 89.97c-.598-.07-1.213-.075-1.815-.078-1.147-.006-2.996.17-3.824 1 .8.889 2.849.805 3.988.98 3.471.539 6.123 2.648 8.627 4.958.767.817 1.599 1.955 2.613 2.446.474-.284.607-.373.77-.946.286-1.007-.373-2.502-.933-3.308-2.08-2.994-5.97-4.461-9.426-5.053zm-10.166 43.642c-.145.017-.355.035-.488.086-.488.186-.5.375-.66.828.327 2.628 3.818 5.963 5.808 7.576 4.76 3.856 10.035 5.544 16.137 4.912.574-.146 1.145-.241 1.5-.755-.69-1.118-6.494-.658-8.133-1.128-6.63-1.897-10.796-5.571-14.164-11.519z" fill="#000"/><path d="M6.4 145.028c-.347-.376-.677-.574-.64-1.131.021-.294.213-.685.319-.965-.775-.673-4-.418-5.13-.432l.061 39.04c2.36.6 3.707 2.137 4.907 4.178 1.024 1.742 1.7 3.685 2.734 5.41.939 1.567 2.414 2.765 3.34 4.332 2.33 3.949 1.769 10.909.617 15.159-1.802 6.648-6.929 15.108-11.773 20.088l.33 47.775c9.902-6.183 18.86-13.147 26.615-21.917a118.778 118.778 0 007.49-9.381c.978-1.387 4.823-8.073 5.638-8.422.546.18.529.177.826.671-.022 1.925-1.868 4.126-2.908 5.679a115.386 115.386 0 01-7.474 10.099 114.42 114.42 0 01-8.532 9.222c-6.056 5.929-14.028 12.141-21.604 15.955.145 11.888.206 23.777.182 35.666.1-.034.199-.067.298-.103 26.668-9.577 45.01-25.125 60.984-48.301 5.923-8.592 11.078-17.386 15.433-26.872-.04-.05-.084-.096-.121-.148-.18-.252-.271-.45-.278-.768-.035-1.666 1.04-3.999 1.434-5.67.345-1.467.55-2.983.756-4.474 2.042-14.771-2.411-24.806-13.434-34.619-5.667-5.045-11.409-9.512-16.052-15.609-1.315 1.464-2.79 2.716-4.485 3.722-6.318 3.751-14.28 3.88-21.24 2.108-7.969-2.029-16.453-7.312-20.68-14.534-.527-.901-2.163-3.445-1.9-4.458.538-.188.813-.086 1.306.178 5.121 2.739 13.499 9.144 19.143 9.649.066.006.131.008.197.012-2.619-1.777-5.21-3.658-7.43-5.923-6.884-7.02-9.015-15.638-8.928-25.216z" fill="#60A4FF"/><path d="M62.408 99.824a159.788 159.788 0 01-3.233 13.658c-.6 2.106-2.61 8.827-3.155 10.679-.977 3.321-1.729 7.019-2.97 10.28-.432 1.135-4.91-.087-5.65-.175-1.269-.15-2.579-.369-3.864-.369" stroke="#000" stroke-width="1.419" stroke-linecap="round"/><path d="M71.909 114.546c-.578-.041-1.157-.066-1.735-.016-1.797.154-3.83.831-4.954 2.308-.952 1.249-1.354 2.997-1.082 4.538a5.573 5.573 0 00.305 1.089 5.752 5.752 0 00.842 1.469 5.753 5.753 0 001.236 1.157c.936.639 2.133 1.002 3.261.747 1.022-.23 2.324-1.104 2.78-2.072.44-.935-.156-2.071-.557-2.901l-.135-.275.133-.351c.886-.733 1.513-1.604 2.19-2.521 2.086 1.434 3.268 3.213 3.426 5.775.03.508-.02 1.069.241 1.52.162.279.354.233.64.294.485-.263.78-.385.984-.948.466-1.282-.375-3.577-.985-4.701-1.454-2.677-3.715-4.302-6.59-5.112zm-37.415-13.164c.02.026.038.053.06.076.215.219.77.646.766.983-.012 1.237-2.268 2.894-1.464 5.561.347 1.153 1.356 2.405 2.446 2.927 1.153.553 2.541.57 3.726.101 3.65-1.444 1.07-3.805 1.822-5.613.649-.538 1.923-1.227 2.8-1.038.562.122.813.324 1.125.802 1.144 1.754.21 4.52-.083 6.385-.09.571-.128.801.22 1.266.454.007.77-.097 1.106-.415 1.006-.95 1.267-3.47 1.196-4.804-.118-2.234-1.428-4.295-3.134-5.677-1.716-1.388-4.238-2.424-6.446-1.785-.64.186-1.352.67-2.009.684-.066.001-.131-.013-.197-.019-.384.305-.728.578-1.166.806l-.768-.24z" fill="#070503"/></g><defs><clipPath id="clip0_46_1586"><path fill="#fff" transform="matrix(-1 0 0 1 147 0)" d="M0 0h158v281H0z"/></clipPath></defs></svg>