<svg width="77" height="132" fill="none" xmlns="http://www.w3.org/2000/svg"><mask id="a" style="mask-type:luminance" maskUnits="userSpaceOnUse" x="0" y="0" width="77" height="132"><path d="M76.28 0H0v131.78h76.28V0z" fill="#fff"/></mask><g mask="url(#a)"><path d="M.78 121.73c22.79 2.63 47.06-7.5 59.77-26.6s12.21-46.56-2.53-64.15C48.55 19.69 34.49 13.1 20.18 9.61 6.47 6.26-8.47 5.56-21.36 11.31c-16.4 7.32-27.29 25.07-27.25 43.03.04 17.96 10.58 35.31 26.06 44.4 15.49 9.09 35.29 9.96 51.89 3.11 13.29-5.49 24.97-16.44 28.28-30.44 3.66-15.46-3.9-32.44-16.88-41.62-14.92-10.55-36.6-10.73-51.32.1-14.73 10.83-20.96 32.09-13.83 48.92 5.47 12.9 18.56 22.51 32.56 22.81 14.01.3 27.92-9.37 31.58-22.9 3.65-13.53-4.17-29.45-17.44-33.94-13.27-4.5-29.72 4.19-32.63 17.89-2.92 13.7 9.57 28.7 23.53 27.49" stroke="#fff" stroke-width="2" stroke-miterlimit="10"/></g></svg>