<svg width="50" height="81" fill="none" xmlns="http://www.w3.org/2000/svg"><path d="M21.642 88.584C6.632 76.679-1.719 56.364 2.054 37.58 5.828 18.795 22.34 2.875 41.431 1.19c12.26-1.074 24.454 3.337 34.965 9.726 10.075 6.118 19.31 14.528 23.527 25.535 5.362 14.007 1.311 30.92-9.319 41.502-10.63 10.583-27.1 14.604-41.608 10.83-14.516-3.779-26.722-14.957-32.48-28.805-4.606-11.09-5.037-24.454 1.276-34.676 6.968-11.291 21.46-16.854 34.546-14.61 15.04 2.58 27.95 15.277 30.247 30.365 2.303 15.094-6.573 31.328-20.722 37.056-10.848 4.387-24.253 2.332-32.697-5.758-8.45-8.096-10.955-22.02-5.126-32.172 5.834-10.143 19.854-14.927 30.34-9.743 10.494 5.18 15.076 20.025 8.705 29.834-6.366 9.814-22.6 11.297-30.13 2.338" stroke="#fff" stroke-width="1.67" stroke-miterlimit="10"/></svg>