<svg width="58" height="54" fill="none" xmlns="http://www.w3.org/2000/svg"><mask id="a" style="mask-type:luminance" maskUnits="userSpaceOnUse" x="-13" y="-20" width="71" height="74"><path d="M4.676-19.65L57.861-3.873 40.8 53.65l-53.185-15.775L4.676-19.65z" fill="#fff"/></mask><g mask="url(#a)"><path d="M-16.906 30.291c-7.16-10.882-8.237-25.776-1.798-37.102 6.433-11.327 20.481-18.098 33.165-15.118 8.144 1.912 15.08 7.357 20.513 13.718 5.203 6.098 9.377 13.489 9.761 21.497.486 10.182-5.728 20.248-14.84 24.817C20.78 42.672 9.293 41.77.722 36.243c-8.57-5.527-14.073-15.344-14.842-25.509-.617-8.142 1.946-16.863 8.196-22.121 6.904-5.805 17.442-6.315 25.408-2.087C28.643-8.608 34.28 2.338 32.553 12.568c-1.726 10.23-10.907 18.824-21.262 19.513-7.939.53-16.157-3.649-19.889-10.672-3.732-7.023-2.392-16.551 3.53-21.865 5.922-5.309 15.993-5.419 21.663.16 5.671 5.579 5.478 16.134-.72 21.117-6.199 4.984-16.994 2.486-19.95-4.899" stroke="#fff" stroke-width="1.135" stroke-miterlimit="10"/></g></svg>