<svg width="50" height="51" fill="none" xmlns="http://www.w3.org/2000/svg"><path d="M24.176 3.225c-4.486 0-10.09 6.727-11.66 9.058-.953 1.445-2.331 8.06-2.331 13.678 0 1.635.101 3.676.269 5.772l-.102.08a22.877 22.877 0 00-3.216 4.572l-.015.027c-.373.695-2.228 4.157-2.228 5.938-.023.49.115.978.394 1.382.55.797 1.896 2.21 2.855 2.52a21.09 21.09 0 005.47.595c.875 0 1.806-.078 2.657-.168a22.835 22.835 0 009.607 1.927 22.91 22.91 0 009.485-1.883c.923.096 1.852.14 2.78.135a20.953 20.953 0 005.46-.707 2.242 2.242 0 001.502-2.242v-.023c.018-.22.13-1.666-2.31-5.93a23.93 23.93 0 00-3.206-4.428c.18-2.141.28-4.237.28-5.907 0-5.605-1.379-12.231-2.33-13.677-2.66-3.95-8.21-10.719-13.363-10.719h.002z" fill="#1E1E1E" stroke="#1E1E1E" stroke-width="1.7" stroke-miterlimit="10"/><path d="M41.092 36.296a23.928 23.928 0 00-3.206-4.428c.18-2.142.28-4.238.28-5.907 0-5.606-1.379-12.232-2.33-13.678-1.572-2.331-7.177-9.058-11.662-9.058-4.482 0-10.088 6.727-11.658 9.058-.953 1.445-2.331 8.06-2.331 13.678 0 1.635.101 3.676.269 5.772l-.102.08a22.878 22.878 0 00-3.216 4.572c-.337.629-2.242 4.16-2.242 5.965a2.242 2.242 0 001.547 2.242c1.79.436 3.628.636 5.47.594.874 0 1.805-.079 2.657-.169a22.835 22.835 0 009.607 1.929c3.26.054 6.493-.588 9.485-1.883.923.095 1.851.14 2.78.134a20.95 20.95 0 005.46-.706 2.242 2.242 0 001.502-2.242c0-.102.256-1.468-2.31-5.953z" fill="#FEC636" stroke="#1E1E1E" stroke-width="1.7" stroke-miterlimit="10"/><path d="M24.176 39.95c4.04.001 6.564-4.371 4.544-7.87a5.247 5.247 0 00-4.544-2.623c-4.039 0-6.563 4.372-4.544 7.87a5.247 5.247 0 004.544 2.624z" fill="#fff" stroke="#1E1E1E" stroke-width="1.7" stroke-miterlimit="10"/><path d="M17.18 14.806c4.623.874 9.369.874 13.991 0m-18.98 21.031a47.59 47.59 0 00.696 5.863m23.273-5.863a47.613 47.613 0 01-.695 5.863" stroke="#1E1E1E" stroke-width="1.7" stroke-miterlimit="10" stroke-linecap="round"/></svg>