<svg width="50" height="51" fill="none" xmlns="http://www.w3.org/2000/svg"><path d="M28.61 39.255c1.138 1.658 4.004 7.25 6.338 7.587 3.31.512 4.653-6.826 4.653-6.826s7.372 1.343 8.076-1.934c.222-1.054-2.33-4.712-4.692-8.098-.316-.451-.627-.897-.927-1.332l-.49-.694c.388-1.683.58-3.405.57-5.13 0-4.974-1.391-9.14-4.167-12.064-2.729-3.658-7.224-5.803-13.476-5.803-11.068 0-16.7 6.723-16.7 16.666a22.97 22.97 0 00.569 5.22l-.421.604c-.3.436-.612.882-.927 1.332-2.361 3.389-4.913 7.046-4.692 8.1.751 3.491 5.608 3.595 8.381 3.239.545 2.03 2.463 7.198 5.359 6.721 1.07-.15 3.462-3.646 5.74-6.98l.426-.619a24.29 24.29 0 006.38.01z" fill="#1E1E1E" stroke="#1E1E1E" stroke-width="1.7" stroke-miterlimit="10"/><path d="M41.047 27.45l-.49-.692c.39-1.683.58-3.405.57-5.13 0-9.945-5.562-16.667-16.633-16.667-11.067 0-16.698 6.723-16.698 16.666-.01 1.756.18 3.508.567 5.22l-.42.604c-2.56 3.697-5.868 8.238-5.62 9.43.705 3.277 8.077 1.935 8.077 1.935s1.343 7.371 4.653 6.826c1.138-.16 3.766-4.096 6.166-7.6 2.175.29 4.378.287 6.552-.012 2.401 3.505 5.063 7.452 6.166 7.612 3.31.512 4.653-6.826 4.653-6.826s7.372 1.342 8.076-1.934c.25-1.194-3.06-5.734-5.62-9.43l.001-.001z" fill="#FEC636" stroke="#1E1E1E" stroke-width="1.7" stroke-miterlimit="10"/><path d="M24.46 30.886c7.129.08 11.67-7.586 8.175-13.8a9.26 9.26 0 00-8.174-4.72c-7.129 0-11.584 7.718-8.02 13.891a9.259 9.259 0 008.02 4.63z" fill="#fff" stroke="#1E1E1E" stroke-width="1.7" stroke-miterlimit="10"/><path d="M11.14 30.545c.99 2.014 4.448 4.551 5.915 5.153m20.738-5.153c-1 2.014-4.459 4.551-5.927 5.153" stroke="#1E1E1E" stroke-width="1.7" stroke-miterlimit="10" stroke-linecap="round"/></svg>